{
.appVersion = "3420";
.formatVersion = 3;
DisplayStrings = (
"GOŒQSŞẞdđðeęəoþsşßţΩ3⓪○➀➁➂➃➄➅➆➇➈➋/zero.dnom/two.dnom/zero.numr/two.numr ½₀₂⁰²$/cent.001 Ω@§/at.case",
"⓪➀➁➂➃➄➅➆➇➈",
"ŒSŞ➋/zero.dnom/two.dnom/zero.numr/two.numr ½₀₂⁰²$/cent.001 Ω@§/at.case",
H,
"¢W"
);
axes = (
{
name = Weight;
tag = wght;
}
);
customParameters = (
{
name = panose;
value = (
0,
0,
0,
0,
0,
0,
0,
0,
0,
0
);
},
{
disabled = 1;
name = unicodeRanges;
value = (
0,
1,
2,
3,
4,
5,
6,
7,
9,
29,
31,
32,
33,
35,
36,
37,
38,
42,
45,
47,
60,
62
);
},
{
name = fsType;
value = (
);
}
);
date = "2021-03-04 17:58:23 +0000";
familyName = "Kolbi Sans";
featurePrefixes = (
{
code = "lookup SUB_19 {
	sub i by dotlessi;
	sub j by uni0237;
	sub uni0308 by uni0308.case;
	sub uni0307 by uni0307.case;
	sub gravecomb by gravecomb.case;
	sub acutecomb by acutecomb.case;
	sub uni030B by uni030B.case;
	sub uni030C.alt by uni030C.alt.case;
	sub uni0302 by uni0302.case;
	sub uni030C by uni030C.case;
	sub uni0306 by uni0306.case;
	sub uni030A by uni030A.case;
	sub tildecomb by tildecomb.case;
	sub uni0304 by uni0304.case;
	sub uni0327 by uni0327.case;
	sub uni0328 by uni0328.case;
} SUB_19;
lookup SUB_20 {
	sub iogonek by dotlessi uni0328;
} SUB_20;
lookup SUB_21 {
	sub uni0308 by uni0308.case;
	sub uni0307 by uni0307.case;
	sub gravecomb by gravecomb.case;
	sub acutecomb by acutecomb.case;
	sub uni030B by uni030B.case;
	sub uni030C.alt by uni030C.alt.case;
	sub uni0302 by uni0302.case;
	sub uni030C by uni030C.case;
	sub uni0306 by uni0306.case;
	sub uni030A by uni030A.case;
	sub tildecomb by tildecomb.case;
	sub uni0304 by uni0304.case;
	sub uni0327 by uni0327.case;
	sub uni0328 by uni0328.case;
} SUB_21;
lookup SUB_22 {
	sub periodcentered by periodcentered.loclCAT;
} SUB_22;
lookup SUB_23 {
	sub J by uni004A0301;
	sub j by uni006A0301;
	sub periodcentered by periodcentered.loclCAT.case;
} SUB_23;
lookup SUB_24 {
	sub zero.numr by zero.dnom;
	sub one.numr by one.dnom;
	sub two.numr by two.dnom;

glyphs = (
{
glyphname = A;
kernLeft = A;
kernRight = A;
lastChange = "2025-07-25 13:38:07 +0000";
layers = (
{
anchors = (
{
name = bottom;
pos = (332,0);
},
{
name = ogonek;
pos = (634,0);
},
{
name = top;
pos = (332,700);
}
);
layerId = "BF20E584-FC8B-4684-8793-6BFBAEEB9F40";
shapes = (
{
closed = 1;
nodes = (
(118,0,l),
(183,180,l),
(481,180,l),
(545,0,l),
(634,0,l),
(377,700,l),
(288,700,l),
(288,700,l),
(30,0,l)
);
},
{
closed = 1;
nodes = (
(332,594,l),
(456,248,l),
(456,248,l),
(208,248,l)
);
}
);
userData = {
assembly = "NPUSHB[ ]	/* 40 values pushed */
9 1 4 0 1 76 5 1 4 0 2 1 4 2 104 0 0 0 33 77 3 1 1 1 34 1 78 8 8 8 10 8 10 17 17 17 16 6 8 26
CALL[ ]	/* CallFunction */";
};
width = 664;
},
{
anchors = (
{
name = bottom;
pos = (347,0);
},
{
name = ogonek;
pos = (675,0);
},
{
name = top;
pos = (347,700);
}
);
layerId = "59E4F189-9048-43B1-80D4-C98F20AC972F";
shapes = (
{
closed = 1;
nodes = (
(19,0,l),
(153,0,l),
(209,159,l),
(484,159,l),
(539,0,l),
(675,0,l),
(419,700,l),
(275,700,l),
(19,0,l)
);
},
{
closed = 1;
nodes = (
(245,262,l),
(346,553,l),
(448,262,l),
(245,262,l)
);
}
);
userData = {
assembly = "NPUSHB[ ]	/* 40 values pushed */
9 1 4 0 1 76 5 1 4 0 2 1 4 2 104 0 0 0 33 77 3 1 1 1 34 1 78 8 8 8 10 8 10 17 17 17 16 6 8 26
CALL[ ]	/* CallFunction */";
};
width = 694;
}
);
note = A;
unicode = 65;
},
{
glyphname = Aogonek;
kernLeft = A;
lastChange = "2025-07-25 13:38:07 +0000";
layers = (
{
anchors = (
{
name = bottom;
pos = (332,0);
},
{
name = ogonek;
pos = (634,0);
},
{
name = top;
pos = (332,700);
}
);
layerId = "BF20E584-FC8B-4684-8793-6BFBAEEB9F40";
shapes = (
{
closed = 1;
nodes = (
(588,-203,o),
(613,-198.667,o),
(637,-190,c),
(637,-134,l),
(614.333,-144,o),
(593,-149,o),
(572,-149,cs),
(536,-149,o),
(512,-131,o),
(512,-100,cs),
(512,-73,o),
(533.333,-48.667,o),
(576,-28,cs),
(634,0,l),
(377,700,l),
(288,700,l),
(30,0,l),
(118,0,l),
(183,180,l),
(481,180,l),
(541,11,l),
(471.667,-23.667,o),
(444,-64,o),
(444,-108,cs),
(444,-171,o),
(495,-203,o),
(562,-203,cs)
);
},
{
closed = 1;
nodes = (
(332,594,l),
(456,248,l),
(456,248,l),
(208,248,l)
);
}
);
userData = {
assembly = "NPUSHB[ ]	/* 23 values pushed */
25 1 5 0 19 1 4 3 10 1 1 4 11 1 2 1 4 76 2 1 4 1 75
MPPEM[ ]	/* MeasurePixelPerEm */
PUSHB[ ]	/* 1 value pushed */
29
LT[ ]	/* LessThan */
IF[ ]	/* If */
NPUSHB[ ]	/* 30 values pushed */
6 1 5 0 3 4 5 3 104 0 0 0 33 77 0 4 4 34 77 0 1 1 2 97 0 2 2 38 2 78
ELSE[ ]	/* Else */
NPUSHB[ ]	/* 27 values pushed */
6 1 5 0 3 4 5 3 104 0 1 0 2 1 2 101 0 0 0 33 77 0 4 4 34 4 78
EIF[ ]	/* EndIf */
NPUSHB[ ]	/* 14 values pushed */
24 24 24 26 24 26 17 22 35 38 16 7 8 27
CALL[ ]	/* CallFunction */";
};
width = 664;
},
{
anchors = (
{
name = bottom;
pos = (347,0);
},
{
name = ogonek;
pos = (675,0);
},
{
name = top;
pos = (347,700);
}
);
layerId = "59E4F189-9048-43B1-80D4-C98F20AC972F";
shapes = (
{
closed = 1;
nodes = (
(621.667,-210,o),
(650.667,-205.333,o),
(680,-196,c),
(680,-120,l),
(654,-130,o),
(630.333,-135,o),
(609,-135,cs),
(577,-135,o),
(557,-119.333,o),
(557,-94,cs),
(557,-70,o),
(576.333,-50,o),
(623,-26,cs),
(675,0,l),
(419,700,l),
(275,700,l),
(19,0,l),
(153,0,l),
(209,159,l),
(484,159,l),
(537,7,l),
(482.333,-27.667,o),
(460,-63.333,o),
(460,-106,cs),
(460,-174,o),
(515.667,-210,o),
(593,-210,cs)
);
},
{
closed = 1;
nodes = (
(245,262,l),
(346,553,l),
(448,262,l),
(245,262,l)
);
}
);
userData = {
assembly = "NPUSHB[ ]	/* 23 values pushed */
26 1 5 0 20 1 4 3 11 1 1 4 12 1 2 1 4 76 2 1 4 1 75
MPPEM[ ]	/* MeasurePixelPerEm */
PUSHB[ ]	/* 1 value pushed */
50
LT[ ]	/* LessThan */
IF[ ]	/* If */
NPUSHB[ ]	/* 30 values pushed */
6 1 5 0 3 4 5 3 104 0 0 0 33 77 0 4 4 34 77 0 1 1 2 97 0 2 2 38 2 78
ELSE[ ]	/* Else */
NPUSHB[ ]	/* 27 values pushed */
6 1 5 0 3 4 5 3 104 0 1 0 2 1 2 101 0 0 0 33 77 0 4 4 34 4 78
EIF[ ]	/* EndIf */
NPUSHB[ ]	/* 14 values pushed */
25 25 25 27 25 27 17 22 35 39 16 7 8 27
CALL[ ]	/* CallFunction */";
};
width = 694;
}
);
note = Aogonek;
unicode = 260;
},
{
glyphname = AE;
kernLeft = AE;
lastChange = "2025-07-25 13:39:37 +0000";
layers = (
{
anchors = (
{
name = bottom;
pos = (456,0);
},
{
name = top;
pos = (526,700);
}
);
layerId = "BF20E584-FC8B-4684-8793-6BFBAEEB9F40";
shapes = (
{
closed = 1;
nodes = (
(122,0,l),
(212,159,l),
(481,159,l),
(481,0,l),
(854,0,l),
(854,67,l),
(565,67,l),
(565,338,l),
(808,338,l),
(808,406,l),
(565,406,l),
(565,633,l),
(854,633,l),
(854,700,l),
(429,700,l),
(30,0,l)
);
},
{
closed = 1;
nodes = (
(481,631,l),
(481,226,l),
(250,226,l)
);
}
);
userData = {
assembly = "NPUSHB[ ]	/* 62 values pushed */
17 1 2 1 1 76 0 2 0 3 8 2 3 103 9 1 8 0 6 4 8 6 103 0 1 1 0 95 0 0 0 33 77 0 4 4 5 95 7 1 5 5 34 5 78 16 16 16 18 16 18 17 17 17 17 17 17 17 16 10 8 30
CALL[ ]	/* CallFunction */";
};
width = 911;
},
{
anchors = (
{
name = bottom;
pos = (466,0);
},
{
name = top;
pos = (546,700);
}
);
layerId = "59E4F189-9048-43B1-80D4-C98F20AC972F";
shapes = (
{
closed = 1;
nodes = (
(158,0,l),
(232,136,l),
(482,136,l),
(482,0,l),
(881,0,l),
(881,109,l),
(610,109,l),
(610,315,l),
(837,315,l),
(837,424,l),
(610,424,l),
(610,591,l),
(881,591,l),
(881,700,l),
(398,700,l),
(19,0,l)
);
},
{
closed = 1;
nodes = (
(482,602,l),
(482,237,l),
(286,237,l)
);
}
);
userData = {
assembly = "NPUSHB[ ]	/* 62 values pushed */
17 1 1 0 1 76 0 2 0 3 8 2 3 103 9 1 8 0 6 4 8 6 103 0 1 1 0 95 0 0 0 33 77 0 4 4 5 95 7 1 5 5 34 5 78 16 16 16 18 16 18 17 17 17 17 17 17 17 16 10 8 30
CALL[ ]	/* CallFunction */";
};
width = 931;
}
);
note = AE;
unicode = 198;
},
{
glyphname = B;
kernRight = B;
lastChange = "2025-07-25 13:40:37 +0000";
layers = (
{
layerId = "BF20E584-FC8B-4684-8793-6BFBAEEB9F40";
shapes = (
{
closed = 1;
nodes = (
(338,0,ls),
(485,0,o),
(561,78,o),
(561,199,cs),
(561,284,o),
(512,348,o),
(421,377,c),
(484,396,o),
(529,454,o),
(529,529,cs),
(529,628,o),
(449,700,o),
(315,700,cs),
(74,700,l),
(74,0,l)
);
},
{
closed = 1;
nodes = (
(158,339,l),
(310,339,ls),
(411,339,o),
(476,295,o),
(476,204,cs),
(476,113,o),
(417,70,o),
(312,70,cs),
(158,70,l)
);
},
{
closed = 1;
nodes = (
(158,630,l),
(306,630,ls),
(395,630,o),
(444,589,o),
(444,518,cs),
(444,449,o),
(394,406,o),
(309,406,cs),
(158,406,l)
);
}
);
userData = {
assembly = "NPUSHB[ ]	/* 57 values pushed */
8 1 2 5 1 76 7 1 5 0 2 3 5 2 103 0 4 4 0 95 0 0 0 33 77 6 1 3 3 1 95 0 1 1 34 1 78 25 25 16 16 25 33 25 32 31 29 16 24 16 23 37 43 32 8 8 25
CALL[ ]	/* CallFunction */";
};
width = 602;
},
{
layerId = "59E4F189-9048-43B1-80D4-C98F20AC972F";
shapes = (
{
closed = 1;
nodes = (
(355,0,ls),
(503,0,o),
(585,86,o),
(585,197,cs),
(585,277,o),
(528,348,o),
(455,375,c),
(515,400,o),
(553,451,o),
(553,524,cs),
(553,631,o),
(472,700,o),
(329,700,cs),
(64,700,l),
(64,0,l)
);
},
{
closed = 1;
nodes = (
(192,311,l),
(341,311,ls),
(416,311,o),
(455,275,o),
(455,210,cs),
(455,143,o),
(418,109,o),
(343,109,cs),
(192,109,l)
);
},
{
closed = 1;
nodes = (
(192,591,l),
(316,591,ls),
(391,591,o),
(422,562,o),
(422,506,cs),
(422,447,o),
(390,420,o),
(318,420,cs),
(192,420,l)
);
}
);
userData = {
assembly = "NPUSHB[ ]	/* 57 values pushed */
7 1 2 5 1 76 7 1 5 0 2 3 5 2 103 0 4 4 0 95 0 0 0 33 77 6 1 3 3 1 95 0 1 1 34 1 78 24 24 16 16 24 32 24 31 30 28 16 23 16 22 36 43 32 8 8 25
CALL[ ]	/* CallFunction */";
};
width = 623;
}
);
note = B;
unicode = 66;
},
{
glyphname = C;
kernLeft = C;
kernRight = C;
lastChange = "2025-07-25 13:38:07 +0000";
layers = (
{
anchors = (
{
name = bottom;
pos = (381,0);
},
{
name = top;
pos = (381,700);
}
);
layerId = "BF20E584-FC8B-4684-8793-6BFBAEEB9F40";
shapes = (
{
closed = 1;
nodes = (
(539.667,-12,o),
(645,67,o),
(673,203,c),
(580,203,l),
(558.667,115,o),
(490.333,62,o),
(381,62,cs),
(226.109,62,o),
(133,175.35,o),
(133,350,cs),
(133,522.962,o),
(224.387,638,o),
(381,638,cs),
(490.333,638,o),
(558.667,583.333,o),
(580,494,c),
(673,494,l),
(645,631.333,o),
(539.667,712,o),
(381,712,cs),
(174.601,712,o),
(47,564.514,o),
(47,350,cs),
(47,135.603,o),
(174.928,-12,o),
(381,-12,cs)
);
}
);
userData = {
assembly = "NPUSHB[ ]	/* 51 values pushed */
0 1 2 4 2 1 4 128 0 4 3 2 4 3 126 0 2 2 0 97 0 0 0 39 77 0 3 3 5 97 6 1 5 5 40 5 78 0 0 0 29 0 28 18 38 34 18 38 7 8 27
CALL[ ]	/* CallFunction */";
};
width = 720;
},
{
anchors = (
{
name = bottom;
pos = (381,0);
},
{
name = top;
pos = (379,700);
}
);
layerId = "59E4F189-9048-43B1-80D4-C98F20AC972F";
shapes = (
{
closed = 1;
nodes = (
(547.667,-12,o),
(661.333,74,o),
(688,218,c),
(547,218,l),
(529.667,144.667,o),
(471,103,o),
(379,103,cs),
(249.667,103,o),
(172,195.667,o),
(172,349,cs),
(172,502.333,o),
(249.667,596,o),
(379,596,cs),
(471,596,o),
(529.667,551.333,o),
(547,474,c),
(688,474,l),
(661.333,624.667,o),
(549,712,o),
(381,712,cs),
(171.368,712,o),
(41,567.905,o),
(41,349,cs),
(41,134.052,o),
(171.624,-12,o),
(381,-12,cs)
);
}
);
userData = {
assembly = "NPUSHB[ ]	/* 51 values pushed */
0 1 2 4 2 1 4 128 0 4 3 2 4 3 126 0 2 2 0 97 0 0 0 39 77 0 3 3 5 97 6 1 5 5 40 5 78 0 0 0 27 0 26 18 36 34 18 38 7 8 27
CALL[ ]	/* CallFunction */";
};
width = 729;
}
);
note = C;
unicode = 67;
},
{
glyphname = Ccedilla;
kernLeft = C;
kernRight = C;
lastChange = "2025-07-25 13:40:37 +0000";
layers = (
{
anchors = (
{
name = bottom;
pos = (381,-259);
},
{
name = top;
pos = (381,700);
}
);
layerId = "BF20E584-FC8B-4684-8793-6BFBAEEB9F40";
shapes = (
{
closed = 1;
nodes = (
(416,-259,ls),
(488,-259,o),
(537,-220,o),
(537,-159,cs),
(537,-96,o),
(487,-62,o),
(408,-63,c),
(408,-11,l),
(552,-3,o),
(646,75,o),
(673,203,c),
(580,203,l),
(559,115,o),
(490,62,o),
(381,62,cs),
(226,62,o),
(133,175,o),
(133,350,cs),
(133,523,o),
(224,638,o),
(381,638,cs),
(490,638,o),
(559,583,o),
(580,494,c),
(673,494,l),
(645,631,o),
(540,712,o),
(381,712,cs),
(175,712,o),
(47,565,o),
(47,350,cs),
(47,142,o),
(166,3,o),
(352,-11,c),
(352,-113,l),
(401,-113,ls),
(446,-113,o),
(469,-128,o),
(469,-158,cs),
(469,-190,o),
(446,-206,o),
(401,-206,cs),
(309,-206,l),
(309,-259,l)
);
}
);
userData = {
assembly = "NPUSHB[ ]	/* 71 values pushed */
7 1 8 7 1 76 0 3 4 6 4 3 6 128 0 6 5 4 6 5 126 0 8 0 1 0 8 1 105 0 0 0 9 0 9 99 0 4 4 2 97 0 2 2 39 77 0 5 5 7 97 0 7 7 40 7 78 45 43 17 18 18 38 34 18 40 34 32 10 8 31
CALL[ ]	/* CallFunction */";
};
width = 720;
},
{
anchors = (
{
name = bottom;
pos = (381,-263);
},
{
name = top;
pos = (379,700);
}
);
layerId = "59E4F189-9048-43B1-80D4-C98F20AC972F";
shapes = (
{
closed = 1;
nodes = (
(420,-263,ls),
(493,-263,o),
(550,-224,o),
(550,-155,cs),
(550,-86,o),
(495,-47,o),
(420,-50,c),
(420,-10,l),
(565,2,o),
(663,85,o),
(688,218,c),
(547,218,l),
(530,145,o),
(471,103,o),
(379,103,cs),
(250,103,o),
(172,196,o),
(172,349,cs),
(172,502,o),
(250,596,o),
(379,596,cs),
(471,596,o),
(530,551,o),
(547,474,c),
(688,474,l),
(661,625,o),
(549,712,o),
(381,712,cs),
(171,712,o),
(41,568,o),
(41,349,cs),
(41,151,o),
(150,8,o),
(340,-10,c),
(340,-118,l),
(401,-118,ls),
(436,-118,o),
(454,-130,o),
(454,-153,cs),
(454,-177,o),
(436,-189,o),
(401,-189,cs),
(289,-189,l),
(289,-263,l)
);
}
);
userData = {
assembly = "PUSHB[ ]	/* 7 values pushed */
35 7 2 7 5 1 76
MPPEM[ ]	/* MeasurePixelPerEm */
PUSHB[ ]	/* 1 value pushed */
9
LT[ ]	/* LessThan */
IF[ ]	/* If */
NPUSHB[ ]	/* 47 values pushed */
0 3 4 6 4 3 6 128 0 6 5 4 6 5 126 0 5 7 7 5 112 0 7 0 1 0 7 1 106 0 0 0 8 0 8 99 0 4 4 2 97 0 2 2 39 4 78
ELSE[ ]	/* Else */
NPUSHB[ ]	/* 48 values pushed */
0 3 4 6 4 3 6 128 0 6 5 4 6 5 126 0 5 7 4 5 7 126 0 7 0 1 0 7 1 106 0 0 0 8 0 8 99 0 4 4 2 97 0 2 2 39 4 78
EIF[ ]	/* EndIf */
NPUSHB[ ]	/* 12 values pushed */
36 20 18 36 34 18 40 34 32 9 8 31
CALL[ ]	/* CallFunction */";
};
width = 729;
}
);
note = Ccedilla;
unicode = 199;
},
{
glyphname = D;
kernRight = D;
lastChange = "2025-07-25 13:40:37 +0000";
layers = (
{
anchors = (
{
name = bottom;
pos = (342,0);
},
{
name = top;
pos = (342,700);
}
);
layerId = "BF20E584-FC8B-4684-8793-6BFBAEEB9F40";
shapes = (
{
closed = 1;
nodes = (
(289,0,ls),
(530,0,o),
(649,127,o),
(649,348,cs),
(649,573,o),
(530,700,o),
(289,700,cs),
(74,700,l),
(74,0,l)
);
},
{
closed = 1;
nodes = (
(158,630,l),
(287,630,ls),
(476,630,o),
(562,540,o),
(562,348,cs),
(562,164,o),
(480,70,o),
(287,70,cs),
(158,70,l)
);
}
);
userData = {
assembly = "NPUSHB[ ]	/* 34 values pushed */
0 2 2 0 95 0 0 0 33 77 4 1 3 3 1 95 0 1 1 34 1 78 9 9 9 17 9 16 37 36 32 5 8 25
CALL[ ]	/* CallFunction */";
};
width = 696;
},
{
anchors = (
{
name = bottom;
pos = (346,0);
},
{
name = top;
pos = (346,700);
}
);
layerId = "59E4F189-9048-43B1-80D4-C98F20AC972F";
shapes = (
{
closed = 1;
nodes = (
(303,0,ls),
(535,0,o),
(662,125,o),
(662,350,cs),
(662,567,o),
(544,700,o),
(303,700,cs),
(64,700,l),
(64,0,l)
);
},
{
closed = 1;
nodes = (
(192,591,l),
(297,591,ls),
(457,591,o),
(531,517,o),
(531,350,cs),
(531,193,o),
(466,110,o),
(297,110,cs),
(192,110,l)
);
}
);
userData = {
assembly = "NPUSHB[ ]	/* 34 values pushed */
0 2 2 0 95 0 0 0 33 77 4 1 3 3 1 95 0 1 1 34 1 78 9 9 9 17 9 16 37 36 32 5 8 25
CALL[ ]	/* CallFunction */";
};
width = 703;
}
);
note = D;
unicode = 68;
},
{
glyphname = Dcroat;
kernRight = D;
lastChange = "2025-07-25 13:40:37 +0000";
layers = (
{
layerId = "BF20E584-FC8B-4684-8793-6BFBAEEB9F40";
shapes = (
{
closed = 1;
nodes = (
(310,0,ls),
(551,0,o),
(670,127,o),
(670,348,cs),
(670,573,o),
(551,700,o),
(310,700,cs),
(95,700,l),
(95,387,l),
(8,387,l),
(8,311,l),
(95,311,l),
(95,0,l)
);
},
{
closed = 1;
nodes = (
(179,311,l),
(381,311,l),
(381,387,l),
(179,387,l),
(179,630,l),
(309,630,ls),
(498,630,o),
(584,539,o),
(584,348,cs),
(584,171,o),
(509,70,o),
(309,70,cs),
(179,70,l)
);
}
);
userData = {
assembly = "NPUSHB[ ]	/* 48 values pushed */
5 1 1 6 1 0 7 1 0 103 0 4 4 2 95 0 2 2 33 77 8 1 7 7 3 95 0 3 3 34 3 78 13 13 13 25 13 24 17 17 37 36 33 17 16 9 8 29
CALL[ ]	/* CallFunction */";
};
width = 717;
},
{
layerId = "59E4F189-9048-43B1-80D4-C98F20AC972F";
shapes = (
{
closed = 1;
nodes = (
(316,0,ls),
(548,0,o),
(675,125,o),
(675,350,cs),
(675,567,o),
(557,700,o),
(316,700,cs),
(77,700,l),
(77,405,l),
(2,405,l),
(2,295,l),
(77,295,l),
(77,0,l)
);
},
{
closed = 1;
nodes = (
(205,295,l),
(382,295,l),
(382,405,l),
(205,405,l),
(205,591,l),
(310,591,ls),
(470,591,o),
(544,517,o),
(544,350,cs),
(544,193,o),
(479,110,o),
(310,110,cs),
(205,110,l)
);
}
);
userData = {
assembly = "NPUSHB[ ]	/* 48 values pushed */
5 1 1 6 1 0 7 1 0 103 0 4 4 2 95 0 2 2 33 77 8 1 7 7 3 95 0 3 3 34 3 78 13 13 13 25 13 24 17 17 37 36 33 17 16 9 8 29
CALL[ ]	/* CallFunction */";
};
width = 716;
}
);
note = Dcroat;
unicode = 272;
},
{
glyphname = Eth;
kernRight = D;
lastChange = "2025-07-25 13:40:37 +0000";
layers = (
{
layerId = "BF20E584-FC8B-4684-8793-6BFBAEEB9F40";
shapes = (
{
closed = 1;
nodes = (
(310,0,ls),
(551,0,o),
(670,127,o),
(670,348,cs),
(670,573,o),
(551,700,o),
(310,700,cs),
(95,700,l),
(95,387,l),
(8,387,l),
(8,311,l),
(95,311,l),
(95,0,l)
);
},
{
closed = 1;
nodes = (
(179,311,l),
(381,311,l),
(381,387,l),
(179,387,l),
(179,630,l),
(309,630,ls),
(498,630,o),
(584,539,o),
(584,348,cs),
(584,171,o),
(509,70,o),
(309,70,cs),
(179,70,l)
);
}
);
userData = {
assembly = "NPUSHB[ ]	/* 48 values pushed */
5 1 1 6 1 0 7 1 0 103 0 4 4 2 95 0 2 2 33 77 8 1 7 7 3 95 0 3 3 34 3 78 13 13 13 25 13 24 17 17 37 36 33 17 16 9 8 29
CALL[ ]	/* CallFunction */";
};
width = 717;
},
{
layerId = "59E4F189-9048-43B1-80D4-C98F20AC972F";
shapes = (
{
closed = 1;
nodes = (
(316,0,ls),
(548,0,o),
(675,125,o),
(675,350,cs),
(675,567,o),
(557,700,o),
(316,700,cs),
(77,700,l),
(77,405,l),
(2,405,l),
(2,295,l),
(77,295,l),
(77,0,l)
);
},
{
closed = 1;
nodes = (
(205,295,l),
(382,295,l),
(382,405,l),
(205,405,l),
(205,591,l),
(310,591,ls),
(470,591,o),
(544,517,o),
(544,350,cs),
(544,193,o),
(479,110,o),
(310,110,cs),
(205,110,l)
);
}
);
userData = {
assembly = "NPUSHB[ ]	/* 48 values pushed */
5 1 1 6 1 0 7 1 0 103 0 4 4 2 95 0 2 2 33 77 8 1 7 7 3 95 0 3 3 34 3 78 13 13 13 25 13 24 17 17 37 36 33 17 16 9 8 29
CALL[ ]	/* CallFunction */";
};
width = 716;
}
);
note = Eth;
unicode = 208;
},
{
glyphname = E;
kernRight = E;
lastChange = "2025-07-25 13:40:37 +0000";
layers = (
{
anchors = (
{
name = bottom;
pos = (282,0);
},
{
name = ogonek;
pos = (507,0);
},
{
name = top;
pos = (282,700);
}
);
layerId = "BF20E584-FC8B-4684-8793-6BFBAEEB9F40";
shapes = (
{
closed = 1;
nodes = (
(507,0,l),
(507,69,l),
(158,69,l),
(158,336,l),
(463,336,l),
(463,404,l),
(158,404,l),
(158,631,l),
(507,631,l),
(507,700,l),
(74,700,l),
(74,0,l)
);
}
);
userData = {
assembly = "NPUSHB[ ]	/* 38 values pushed */
0 2 0 3 4 2 3 103 0 1 1 0 95 0 0 0 33 77 0 4 4 5 95 0 5 5 34 5 78 17 17 17 17 17 16 6 8 28
CALL[ ]	/* CallFunction */";
};
width = 564;
},
{
anchors = (
{
name = bottom;
pos = (281,0);
},
{
name = ogonek;
pos = (513,0);
},
{
name = top;
pos = (281,700);
}
);
layerId = "59E4F189-9048-43B1-80D4-C98F20AC972F";
shapes = (
{
closed = 1;
nodes = (
(513,0,l),
(513,109,l),
(192,109,l),
(192,315,l),
(467,315,l),
(467,424,l),
(192,424,l),
(192,591,l),
(513,591,l),
(513,700,l),
(64,700,l),
(64,0,l)
);
}
);
userData = {
assembly = "NPUSHB[ ]	/* 38 values pushed */
0 2 0 3 4 2 3 103 0 1 1 0 95 0 0 0 33 77 0 4 4 5 95 0 5 5 34 5 78 17 17 17 17 17 16 6 8 28
CALL[ ]	/* CallFunction */";
};
width = 562;
}
);
note = E;
unicode = 69;
},
{
glyphname = Eogonek;
lastChange = "2025-07-25 13:40:37 +0000";
layers = (
{
anchors = (
{
name = bottom;
pos = (282,0);
},
{
name = ogonek;
pos = (507,0);
},
{
name = top;
pos = (282,700);
}
);
layerId = "BF20E584-FC8B-4684-8793-6BFBAEEB9F40";
shapes = (
{
closed = 1;
nodes = (
(461,-203,o),
(486,-199,o),
(510,-190,c),
(510,-134,l),
(487,-144,o),
(466,-149,o),
(445,-149,cs),
(409,-149,o),
(385,-131,o),
(385,-100,cs),
(385,-73,o),
(406,-49,o),
(449,-28,cs),
(507,0,l),
(507,69,l),
(158,69,l),
(158,336,l),
(463,336,l),
(463,404,l),
(158,404,l),
(158,631,l),
(507,631,l),
(507,700,l),
(74,700,l),
(74,0,l),
(393,0,l),
(342,-30,o),
(317,-66,o),
(317,-108,cs),
(317,-171,o),
(368,-203,o),
(435,-203,cs)
);
}
);
userData = {
assembly = "NPUSHB[ ]	/* 15 values pushed */
18 1 5 7 19 1 6 5 2 76 10 1 7 1 75
MPPEM[ ]	/* MeasurePixelPerEm */
PUSHB[ ]	/* 1 value pushed */
29
LT[ ]	/* LessThan */
IF[ ]	/* If */
NPUSHB[ ]	/* 39 values pushed */
0 2 0 3 4 2 3 103 0 1 1 0 95 0 0 0 33 77 0 4 4 7 95 0 7 7 34 77 0 5 5 6 97 0 6 6 38 6 78
ELSE[ ]	/* Else */
NPUSHB[ ]	/* 36 values pushed */
0 2 0 3 4 2 3 103 0 5 0 6 5 6 101 0 1 1 0 95 0 0 0 33 77 0 4 4 7 95 0 7 7 34 7 78
EIF[ ]	/* EndIf */
NPUSHB[ ]	/* 11 values pushed */
20 35 38 17 17 17 17 16 8 8 30
CALL[ ]	/* CallFunction */";
};
width = 564;
},
{
anchors = (
{
name = bottom;
pos = (281,0);
},
{
name = ogonek;
pos = (513,0);
},
{
name = top;
pos = (281,700);
}
);
layerId = "59E4F189-9048-43B1-80D4-C98F20AC972F";
shapes = (
{
closed = 1;
nodes = (
(460,-210,o),
(489,-205,o),
(518,-196,c),
(518,-120,l),
(492,-130,o),
(468,-135,o),
(447,-135,cs),
(415,-135,o),
(395,-119,o),
(395,-94,cs),
(395,-70,o),
(414,-50,o),
(461,-26,cs),
(513,0,l),
(513,109,l),
(192,109,l),
(192,315,l),
(467,315,l),
(467,424,l),
(192,424,l),
(192,591,l),
(513,591,l),
(513,700,l),
(64,700,l),
(64,0,l),
(364,0,l),
(320,-29,o),
(298,-65,o),
(298,-106,cs),
(298,-174,o),
(354,-210,o),
(431,-210,cs)
);
}
);
userData = {
assembly = "NPUSHB[ ]	/* 15 values pushed */
19 1 5 7 20 1 6 5 2 76 10 1 7 1 75
MPPEM[ ]	/* MeasurePixelPerEm */
PUSHB[ ]	/* 1 value pushed */
50
LT[ ]	/* LessThan */
IF[ ]	/* If */
NPUSHB[ ]	/* 39 values pushed */
0 2 0 3 4 2 3 103 0 1 1 0 95 0 0 0 33 77 0 4 4 7 95 0 7 7 34 77 0 5 5 6 97 0 6 6 38 6 78
ELSE[ ]	/* Else */
NPUSHB[ ]	/* 36 values pushed */
0 2 0 3 4 2 3 103 0 5 0 6 5 6 101 0 1 1 0 95 0 0 0 33 77 0 4 4 7 95 0 7 7 34 7 78
EIF[ ]	/* EndIf */
NPUSHB[ ]	/* 11 values pushed */
20 35 39 17 17 17 17 16 8 8 30
CALL[ ]	/* CallFunction */";
};
width = 562;
}
);
note = Eogonek;
unicode = 280;
},
{
glyphname = Eturned;
kernRight = uni018E;
lastChange = "2025-07-25 14:43:36 +0000";
layers = (
{
layerId = "BF20E584-FC8B-4684-8793-6BFBAEEB9F40";
shapes = (
{
closed = 1;
nodes = (
(507,0,l),
(507,700,l),
(74,700,l),
(74,631,l),
(423,631,l),
(423,404,l),
(118,404,l),
(118,336,l),
(423,336,l),
(423,69,l),
(74,69,l),
(74,0,l)
);
}
);
userData = {
assembly = "NPUSHB[ ]	/* 38 values pushed */
0 2 0 1 0 2 1 103 0 3 3 4 95 0 4 4 33 77 0 0 0 5 95 0 5 5 34 5 78 17 17 17 17 17 16 6 8 28
CALL[ ]	/* CallFunction */";
};
width = 600;
},
{
layerId = "59E4F189-9048-43B1-80D4-C98F20AC972F";
shapes = (
{
closed = 1;
nodes = (
(494,0,l),
(494,700,l),
(45,700,l),
(45,591,l),
(366,591,l),
(366,424,l),
(91,424,l),
(91,315,l),
(366,315,l),
(366,109,l),
(45,109,l),
(45,0,l)
);
}
);
userData = {
assembly = "NPUSHB[ ]	/* 38 values pushed */
0 2 0 1 0 2 1 103 0 3 3 4 95 0 4 4 33 77 0 0 0 5 95 0 5 5 34 5 78 17 17 17 17 17 16 6 8 28
CALL[ ]	/* CallFunction */";
};
width = 554;
}
);
note = uni018E;
unicode = (398,477);
},
{
glyphname = Schwa;
kernLeft = uni018F;
kernRight = D;
lastChange = "2025-07-25 14:43:36 +0000";
layers = (
{
layerId = "BF20E584-FC8B-4684-8793-6BFBAEEB9F40";
shapes = (
{
closed = 1;
nodes = (
(439.333,-12,o),
(498.333,3,o),
(549,33,cs),
(650.333,94.333,o),
(708,204.667,o),
(708,346,cs),
(708,419.333,o),
(694,483.333,o),
(666,538,cs),
(610,648.667,o),
(505.667,712,o),
(375,712,cs),
(322.333,712,o),
(274,702.333,o),
(230,683,cs),
(142,644.333,o),
(80,572.333,o),
(52,479,c),
(147,479,l),
(177.667,577.667,o),
(265.667,636,o),
(375,636,cs),
(421,636,o),
(461.667,625.667,o),
(497,605,cs),
(570.333,562.333,o),
(614,481.667,o),
(618,375,c),
(50,375,l),
(48,354.333,o),
(47,334.667,o),
(47,316,cs),
(47,247.333,o),
(61,188.333,o),
(89,139,cs),
(143.667,41.667,o),
(245.333,-12,o),
(372,-12,cs)
);
},
{
closed = 1;
nodes = (
(324,64,o),
(282,74,o),
(246,94,cs),
(174,132.667,o),
(133.667,207,o),
(135,303,c),
(618,303,l),
(614.667,251.667,o),
(602.333,208.667,o),
(581,174,cs),
(537,103.333,o),
(461.333,64,o),
(372,64,cs)
);
}
);
userData = {
assembly = "NPUSHB[ ]	/* 60 values pushed */
0 2 1 0 1 2 0 128 0 0 0 5 6 0 5 103 0 1 1 3 97 0 3 3 39 77 8 1 6 6 4 97 7 1 4 4 40 4 78 32 32 0 0 32 42 32 41 37 36 0 31 0 30 36 18 36 22 9 8 26
CALL[ ]	/* CallFunction */";
};
width = 755;
},
{
layerId = "59E4F189-9048-43B1-80D4-C98F20AC972F";
shapes = (
{
closed = 1;
nodes = (
(444.667,-12,o),
(504.333,3,o),
(555,33,cs),
(657.667,93,o),
(717,205.333,o),
(717,348,cs),
(717,421.333,o),
(702.667,485.333,o),
(674,540,cs),
(616.667,649.333,o),
(510.667,712,o),
(376,712,cs),
(322,712,o),
(272.333,702,o),
(227,682,cs),
(139,642,o),
(75.667,567.333,o),
(49,474,c),
(190,474,l),
(215.333,550,o),
(288.667,596,o),
(378,596,cs),
(416,596,o),
(449.667,587.667,o),
(479,571,cs),
(540.333,537.667,o),
(578,472.667,o),
(582,386,c),
(45,386,l),
(42.333,368,o),
(41,348,o),
(41,326,cs),
(41,254,o),
(55.333,193.333,o),
(84,144,cs),
(140,42.667,o),
(242.667,-12,o),
(376,-12,cs)
);
},
{
closed = 1;
nodes = (
(334.667,105,o),
(300,113,o),
(270,129,cs),
(208.667,161,o),
(174.333,217.333,o),
(173,292,c),
(582,292,l),
(578.667,251.333,o),
(567.667,217.667,o),
(549,191,cs),
(511.667,135,o),
(447.333,105,o),
(374,105,cs)
);
}
);
userData = {
assembly = "NPUSHB[ ]	/* 60 values pushed */
0 2 1 0 1 2 0 128 0 0 0 5 6 0 5 103 0 1 1 3 97 0 3 3 39 77 8 1 6 6 4 97 7 1 4 4 40 4 78 32 32 0 0 32 42 32 41 37 36 0 31 0 30 36 18 36 22 9 8 26
CALL[ ]	/* CallFunction */";
};
width = 758;
}
);
note = uni018F;
unicode = 399;
},
{
glyphname = F;
kernRight = F;
lastChange = "2025-07-25 13:40:37 +0000";
layers = (
{
layerId = "BF20E584-FC8B-4684-8793-6BFBAEEB9F40";
shapes = (
{
closed = 1;
nodes = (
(158,0,l),
(158,327,l),
(449,327,l),
(449,395,l),
(158,395,l),
(158,631,l),
(500,631,l),
(500,700,l),
(74,700,l),
(74,0,l)
);
}
);
userData = {
assembly = "NPUSHB[ ]	/* 32 values pushed */
0 2 0 3 4 2 3 103 0 1 1 0 95 0 0 0 33 77 0 4 4 34 4 78 17 17 17 17 16 5 8 27
CALL[ ]	/* CallFunction */";
};
width = 534;
},
{
layerId = "59E4F189-9048-43B1-80D4-C98F20AC972F";
shapes = (
{
closed = 1;
nodes = (
(192,0,l),
(192,307,l),
(466,307,l),
(466,416,l),
(192,416,l),
(192,591,l),
(505,591,l),
(505,700,l),
(64,700,l),
(64,0,l)
);
}
);
userData = {
assembly = "NPUSHB[ ]	/* 32 values pushed */
0 2 0 3 4 2 3 103 0 1 1 0 95 0 0 0 33 77 0 4 4 34 4 78 17 17 17 17 16 5 8 27
CALL[ ]	/* CallFunction */";
};
width = 532;
}
);
note = F;
unicode = 70;
},
{
glyphname = G;
kernLeft = C;
kernRight = G;
lastChange = "2025-07-25 13:46:20 +0000";
layers = (
{
anchors = (
{
name = bottom;
pos = (379,0);
},
{
name = top;
pos = (379,700);
}
);
layerId = "BF20E584-FC8B-4684-8793-6BFBAEEB9F40";
shapes = (
{
closed = 1;
nodes = (
(491,-12,o),
(561,30,o),
(614,115,c),
(621,0,l),
(698,0,l),
(698,374,l),
(360,374,l),
(360,308,l),
(612,308,l),
(601,152,o),
(523,63,o),
(378,63,cs),
(229,63,o),
(133,175,o),
(133,349,cs),
(133,520,o),
(228,635,o),
(387,635,cs),
(495,635,o),
(569,583,o),
(588,498,c),
(685,498,l),
(654,631,o),
(543,712,o),
(387,712,cs),
(177,712,o),
(47,562,o),
(47,349,cs),
(47,130,o),
(182,-12,o),
(375,-12,cs)
);
}
);
userData = {
assembly = "PUSHB[ ]	/* 6 values pushed */
31 1 3 4 1 76
MPPEM[ ]	/* MeasurePixelPerEm */
PUSHB[ ]	/* 1 value pushed */
21
LT[ ]	/* LessThan */
IF[ ]	/* If */
NPUSHB[ ]	/* 39 values pushed */
0 1 2 5 2 1 5 128 0 5 0 4 3 5 4 103 0 2 2 0 97 0 0 0 39 77 0 3 3 6 97 8 7 2 6 6 34 6 78
ELSE[ ]	/* Else */
NPUSHB[ ]	/* 43 values pushed */
0 1 2 5 2 1 5 128 0 5 0 4 3 5 4 103 0 2 2 0 97 0 0 0 39 77 0 6 6 34 77 0 3 3 7 97 8 1 7 7 40 7 78
EIF[ ]	/* EndIf */
NPUSHB[ ]	/* 16 values pushed */
0 0 0 34 0 33 17 17 18 38 34 18 38 9 8 29
CALL[ ]	/* CallFunction */";
};
width = 757;
},
{
anchors = (
{
name = bottom;
pos = (383,0);
},
{
name = top;
pos = (383,700);
}
);
layerId = "59E4F189-9048-43B1-80D4-C98F20AC972F";
shapes = (
{
closed = 1;
nodes = (
(473,-12,o),
(538,23,o),
(585,92,c),
(595,0,l),
(713,0,l),
(713,378,l),
(358,378,l),
(358,270,l),
(581,270,l),
(562,163,o),
(498,102,o),
(382,102,cs),
(251,102,o),
(172,192,o),
(172,345,cs),
(172,501,o),
(252,594,o),
(391,594,cs),
(478,594,o),
(536,557,o),
(557,490,c),
(700,490,l),
(668,630,o),
(555,712,o),
(391,712,cs),
(171,712,o),
(41,558,o),
(41,346,cs),
(41,140,o),
(166,-12,o),
(370,-12,cs)
);
}
);
userData = {
assembly = "PUSHB[ ]	/* 6 values pushed */
29 1 6 3 1 76
MPPEM[ ]	/* MeasurePixelPerEm */
PUSHB[ ]	/* 1 value pushed */
21
LT[ ]	/* LessThan */
IF[ ]	/* If */
NPUSHB[ ]	/* 39 values pushed */
0 1 2 5 2 1 5 128 0 5 0 4 3 5 4 103 0 2 2 0 97 0 0 0 39 77 0 3 3 6 97 8 7 2 6 6 34 6 78
ELSE[ ]	/* Else */
NPUSHB[ ]	/* 43 values pushed */
0 1 2 5 2 1 5 128 0 5 0 4 3 5 4 103 0 2 2 0 97 0 0 0 39 77 0 6 6 34 77 0 3 3 7 97 8 1 7 7 40 7 78
EIF[ ]	/* EndIf */
NPUSHB[ ]	/* 16 values pushed */
0 0 0 32 0 31 17 17 18 36 34 18 38 9 8 29
CALL[ ]	/* CallFunction */";
};
width = 765;
}
);
note = G;
unicode = 71;
},
{
glyphname = H;
kernRight = H;
lastChange = "2025-07-25 13:40:37 +0000";
layers = (
{
layerId = "BF20E584-FC8B-4684-8793-6BFBAEEB9F40";
shapes = (
{
closed = 1;
nodes = (
(158,0,l),
(158,336,l),
(521,336,l),
(521,0,l),
(605,0,l),
(605,700,l),
(521,700,l),
(521,405,l),
(158,405,l),
(158,700,l),
(74,700,l),
(74,0,l)
);
}
);
userData = {
assembly = "NPUSHB[ ]	/* 30 values pushed */
0 1 0 4 3 1 4 103 2 1 0 0 33 77 5 1 3 3 34 3 78 17 17 17 17 17 16 6 8 28
CALL[ ]	/* CallFunction */";
};
width = 679;
},
{
layerId = "59E4F189-9048-43B1-80D4-C98F20AC972F";
shapes = (
{
closed = 1;
nodes = (
(192,0,l),
(192,316,l),
(506,316,l),
(506,0,l),
(634,0,l),
(634,700,l),
(506,700,l),
(506,425,l),
(192,425,l),
(192,700,l),
(64,700,l),
(64,0,l)
);
}
);
userData = {
assembly = "NPUSHB[ ]	/* 30 values pushed */
0 1 0 4 3 1 4 103 2 1 0 0 33 77 5 1 3 3 34 3 78 17 17 17 17 17 16 6 8 28
CALL[ ]	/* CallFunction */";
};
width = 698;
}
);
note = H;
unicode = 72;
},
{
glyphname = Hbar;
lastChange = "2025-07-25 13:40:37 +0000";
layers = (
{
layerId = "BF20E584-FC8B-4684-8793-6BFBAEEB9F40";
shapes = (
{
closed = 1;
nodes = (
(158,0,l),
(158,336,l),
(521,336,l),
(521,0,l),
(605,0,l),
(605,513,l),
(655,513,l),
(655,582,l),
(605,582,l),
(605,700,l),
(521,700,l),
(521,582,l),
(158,582,l),
(158,700,l),
(74,700,l),
(74,582,l),
(24,582,l),
(24,513,l),
(74,513,l),
(74,0,l)
);
},
{
closed = 1;
nodes = (
(158,513,l),
(521,513,l),
(521,405,l),
(158,405,l)
);
}
);
userData = {
assembly = "NPUSHB[ ]	/* 56 values pushed */
5 3 2 1 10 6 2 0 11 1 0 103 12 1 11 0 8 7 11 8 103 4 1 2 2 33 77 9 1 7 7 34 7 78 20 20 20 23 20 23 22 21 19 18 17 17 17 17 17 17 17 17 16 13 8 31
CALL[ ]	/* CallFunction */";
};
width = 679;
},
{
layerId = "59E4F189-9048-43B1-80D4-C98F20AC972F";
shapes = (
{
closed = 1;
nodes = (
(193,0,l),
(193,316,l),
(507,316,l),
(507,0,l),
(635,0,l),
(635,493,l),
(675,493,l),
(675,602,l),
(635,602,l),
(635,700,l),
(507,700,l),
(507,602,l),
(193,602,l),
(193,700,l),
(65,700,l),
(65,602,l),
(24,602,l),
(24,493,l),
(65,493,l),
(65,0,l)
);
},
{
closed = 1;
nodes = (
(193,493,l),
(507,493,l),
(507,425,l),
(193,425,l)
);
}
);
userData = {
assembly = "NPUSHB[ ]	/* 56 values pushed */
5 3 2 1 10 6 2 0 11 1 0 103 12 1 11 0 8 7 11 8 103 4 1 2 2 33 77 9 1 7 7 34 7 78 20 20 20 23 20 23 22 21 19 18 17 17 17 17 17 17 17 17 16 13 8 31
CALL[ ]	/* CallFunction */";
};
width = 699;
}
);
note = Hbar;
unicode = 294;
},
{
glyphname = I;
kernRight = I;
lastChange = "2025-07-25 13:40:37 +0000";
layers = (
{
anchors = (
{
name = bottom;
pos = (116,0);
},
{
name = ogonek;
pos = (158,0);
},
{
name = top;
pos = (116,700);
}
);
layerId = "BF20E584-FC8B-4684-8793-6BFBAEEB9F40";
shapes = (
{
closed = 1;
nodes = (
(158,0,l),
(158,700,l),
(74,700,l),
(74,0,l)
);
}
);
userData = {
assembly = "NPUSHB[ ]	/* 16 values pushed */
0 0 0 33 77 0 1 1 34 1 78 17 16 2 8 24
CALL[ ]	/* CallFunction */";
};
width = 232;
},
{
anchors = (
{
name = bottom;
pos = (128,0);
},
{
name = ogonek;
pos = (192,0);
},
{
name = top;
pos = (128,700);
}
);
layerId = "59E4F189-9048-43B1-80D4-C98F20AC972F";
shapes = (
{
closed = 1;
nodes = (
(192,0,l),
(192,700,l),
(64,700,l),
(64,0,l)
);
}
);
userData = {
assembly = "NPUSHB[ ]	/* 16 values pushed */
0 0 0 33 77 0 1 1 34 1 78 17 16 2 8 24
CALL[ ]	/* CallFunction */";
};
width = 256;
}
);
note = I;
unicode = 73;
},
{
glyphname = Iogonek;
lastChange = "2025-07-25 13:38:07 +0000";
layers = (
{
anchors = (
{
name = bottom;
pos = (116,0);
},
{
name = ogonek;
pos = (158,0);
},
{
name = top;
pos = (116,700);
}
);
layerId = "BF20E584-FC8B-4684-8793-6BFBAEEB9F40";
shapes = (
{
closed = 1;
nodes = (
(112,-203,o),
(137,-198.667,o),
(161,-190,c),
(161,-134,l),
(138.333,-144,o),
(116.667,-149,o),
(96,-149,cs),
(60,-149,o),
(36,-130.667,o),
(36,-100,cs),
(36,-72.667,o),
(57.333,-48.667,o),
(100,-28,cs),
(158,0,l),
(158,700,l),
(74,700,l),
(74,15,l),
(3.333,-17,o),
(-32,-58,o),
(-32,-108,cs),
(-32,-170.667,o),
(19.333,-203,o),
(86,-203,cs)
);
}
);
userData = {
assembly = "NPUSHB[ ]	/* 12 values pushed */
15 7 4 3 1 0 16 1 2 1 2 76
MPPEM[ ]	/* MeasurePixelPerEm */
PUSHB[ ]	/* 1 value pushed */
29
LT[ ]	/* LessThan */
IF[ ]	/* If */
NPUSHB[ ]	/* 17 values pushed */
0 0 0 33 77 0 1 1 2 97 3 1 2 2 38 2 78
ELSE[ ]	/* Else */
NPUSHB[ ]	/* 14 values pushed */
0 1 3 1 2 1 2 101 0 0 0 33 0 78
EIF[ ]	/* EndIf */
NPUSHB[ ]	/* 11 values pushed */
0 0 0 18 0 17 38 21 4 8 24
CALL[ ]	/* CallFunction */";
};
width = 232;
},
{
anchors = (
{
name = bottom;
pos = (128,0);
},
{
name = ogonek;
pos = (192,0);
},
{
name = top;
pos = (128,700);
}
);
layerId = "59E4F189-9048-43B1-80D4-C98F20AC972F";
shapes = (
{
closed = 1;
nodes = (
(138.667,-210,o),
(167.667,-205.333,o),
(197,-196,c),
(197,-120,l),
(171,-130,o),
(147.333,-135,o),
(126,-135,cs),
(94,-135,o),
(74,-119.333,o),
(74,-94,cs),
(74,-70,o),
(93.333,-50,o),
(140,-26,cs),
(192,0,l),
(192,700,l),
(64,700,l),
(64,14,l),
(1.333,-22,o),
(-23,-60.667,o),
(-23,-106,cs),
(-23,-174,o),
(32.667,-210,o),
(110,-210,cs)
);
}
);
userData = {
assembly = "NPUSHB[ ]	/* 12 values pushed */
17 8 5 3 1 0 18 1 2 1 2 76
MPPEM[ ]	/* MeasurePixelPerEm */
PUSHB[ ]	/* 1 value pushed */
50
LT[ ]	/* LessThan */
IF[ ]	/* If */
NPUSHB[ ]	/* 17 values pushed */
0 0 0 33 77 0 1 1 2 98 3 1 2 2 38 2 78
ELSE[ ]	/* Else */
NPUSHB[ ]	/* 14 values pushed */
0 1 3 1 2 1 2 102 0 0 0 33 0 78
EIF[ ]	/* EndIf */
NPUSHB[ ]	/* 11 values pushed */
0 0 0 20 0 19 39 22 4 8 24
CALL[ ]	/* CallFunction */";
};
width = 256;
}
);
note = Iogonek;
unicode = 302;
},
{
glyphname = J;
kernLeft = J;
kernRight = J;
lastChange = "2025-07-25 13:38:07 +0000";
layers = (
{
anchors = (
{
name = bottom;
pos = (250,0);
},
{
name = top;
pos = (384,700);
}
);
layerId = "BF20E584-FC8B-4684-8793-6BFBAEEB9F40";
shapes = (
{
closed = 1;
nodes = (
(352.667,-12,o),
(425,61,o),
(425,185,cs),
(425,700,l),
(341,700,l),
(341,185,ls),
(341,103.667,o),
(303.667,63,o),
(229,63,cs),
(146.333,63,o),
(112,110.667,o),
(112,188,c),
(27,188,l),
(27,62.667,o),
(103.333,-12,o),
(230,-12,cs)
);
}
);
userData = {
assembly = "NPUSHB[ ]	/* 37 values pushed */
0 0 2 1 2 0 1 128 0 2 2 33 77 0 1 1 3 97 4 1 3 3 40 3 78 0 0 0 14 0 13 18 34 18 5 8 25
CALL[ ]	/* CallFunction */";
};
width = 499;
},
{
anchors = (
{
name = bottom;
pos = (262,0);
},
{
name = top;
pos = (397,700);
}
);
layerId = "59E4F189-9048-43B1-80D4-C98F20AC972F";
shapes = (
{
closed = 1;
nodes = (
(379,-12,o),
(460,66,o),
(460,202,cs),
(460,700,l),
(332,700,l),
(332,202,ls),
(332,139.333,o),
(302.667,102,o),
(244,102,cs),
(181.333,102,o),
(151.333,141,o),
(150,209,c),
(22,209,l),
(22,70.333,o),
(109.667,-12,o),
(247,-12,cs)
);
}
);
userData = {
assembly = "MPPEM[ ]	/* MeasurePixelPerEm */
PUSHB[ ]	/* 1 value pushed */
11
LT[ ]	/* LessThan */
IF[ ]	/* If */
NPUSHB[ ]	/* 24 values pushed */
0 0 2 1 1 0 114 0 2 2 33 77 0 1 1 3 98 4 1 3 3 40 3 78
ELSE[ ]	/* Else */
NPUSHB[ ]	/* 25 values pushed */
0 0 2 1 2 0 1 128 0 2 2 33 77 0 1 1 3 98 4 1 3 3 40 3 78
EIF[ ]	/* EndIf */
NPUSHB[ ]	/* 12 values pushed */
0 0 0 15 0 14 19 34 18 5 8 25
CALL[ ]	/* CallFunction */";
};
width = 524;
}
);
note = J;
unicode = 74;
},
{
glyphname = K;
kernRight = K;
lastChange = "2025-07-25 13:34:08 +0000";
layers = (
{
anchors = (
{
name = bottom;
pos = (288,0);
},
{
name = top;
pos = (288,700);
}
);
layerId = "BF20E584-FC8B-4684-8793-6BFBAEEB9F40";
shapes = (
{
closed = 1;
nodes = (
(74,0,l),
(158,0,l),
(158,333,l),
(457,0,l),
(576,0,l),
(248,357,l),
(561,700,l),
(454,700,l),
(158,367,l),
(158,700,l),
(74,700,l)
);
}
);
userData = {
assembly = "NPUSHB[ ]	/* 28 values pushed */
8 5 2 3 2 0 1 76 1 1 0 0 33 77 3 1 2 2 34 2 78 18 18 18 16 4 8 26
CALL[ ]	/* CallFunction */";
};
width = 580;
},
{
anchors = (
{
name = bottom;
pos = (316,0);
},
{
name = top;
pos = (316,700);
}
);
layerId = "59E4F189-9048-43B1-80D4-C98F20AC972F";
shapes = (
{
closed = 1;
nodes = (
(195,0,l),
(195,324,l),
(451,0,l),
(626,0,l),
(325,360,l),
(610,700,l),
(446,700,l),
(195,379,l),
(195,700,l),
(67,700,l),
(67,0,l)
);
}
);
userData = {
assembly = "NPUSHB[ ]	/* 28 values pushed */
8 5 2 3 2 0 1 76 1 1 0 0 33 77 3 1 2 2 34 2 78 18 18 18 16 4 8 26
CALL[ ]	/* CallFunction */";
};
width = 633;
}
);
note = K;
unicode = 75;
},
{
glyphname = L;
kernRight = L;
lastChange = "2025-07-25 13:40:37 +0000";
layers = (
{
anchors = (
{
name = bottom;
pos = (263,0);
},
{
name = top;
pos = (178,700);
},
{
name = topright;
pos = (261,700);
}
);
layerId = "BF20E584-FC8B-4684-8793-6BFBAEEB9F40";
shapes = (
{
closed = 1;
nodes = (
(484,0,l),
(484,67,l),
(158,67,l),
(158,700,l),
(74,700,l),
(74,0,l)
);
}
);
userData = {
assembly = "NPUSHB[ ]	/* 22 values pushed */
0 0 0 33 77 0 1 1 2 96 0 2 2 34 2 78 17 17 16 3 8 25
CALL[ ]	/* CallFunction */";
};
width = 525;
},
{
anchors = (
{
name = bottom;
pos = (268,0);
},
{
name = top;
pos = (175,700);
},
{
name = topright;
pos = (281,700);
}
);
layerId = "59E4F189-9048-43B1-80D4-C98F20AC972F";
shapes = (
{
closed = 1;
nodes = (
(494,0,l),
(494,109,l),
(192,109,l),
(192,700,l),
(64,700,l),
(64,0,l)
);
}
);
userData = {
assembly = "NPUSHB[ ]	/* 22 values pushed */
0 0 0 33 77 0 1 1 2 96 0 2 2 34 2 78 17 17 16 3 8 25
CALL[ ]	/* CallFunction */";
};
width = 535;
}
);
note = L;
unicode = 76;
},
{
glyphname = Ldot;
kernRight = L;
lastChange = "2025-07-25 13:40:37 +0000";
layers = (
{
layerId = "BF20E584-FC8B-4684-8793-6BFBAEEB9F40";
shapes = (
{
closed = 1;
nodes = (
(484,0,l),
(484,67,l),
(158,67,l),
(158,700,l),
(74,700,l),
(74,0,l)
);
},
{
closed = 1;
nodes = (
(389,293,o),
(414,318,o),
(414,350,cs),
(414,383,o),
(389,407,o),
(357,407,cs),
(324,407,o),
(299,383,o),
(299,350,cs),
(299,318,o),
(324,293,o),
(357,293,cs)
);
}
);
userData = {
assembly = "NPUSHB[ ]	/* 38 values pushed */
0 3 5 1 4 1 3 4 105 0 0 0 33 77 0 1 1 2 96 0 2 2 34 2 78 6 6 6 17 6 16 37 17 17 16 6 8 26
CALL[ ]	/* CallFunction */";
};
width = 525;
},
{
layerId = "59E4F189-9048-43B1-80D4-C98F20AC972F";
shapes = (
{
closed = 1;
nodes = (
(494,0,l),
(494,109,l),
(192,109,l),
(192,700,l),
(64,700,l),
(64,0,l)
);
},
{
closed = 1;
nodes = (
(416,267,o),
(452,305,o),
(452,350,cs),
(452,397,o),
(416,433,o),
(369,433,cs),
(322,433,o),
(286,397,o),
(286,350,cs),
(286,303,o),
(322,267,o),
(369,267,cs)
);
}
);
userData = {
assembly = "NPUSHB[ ]	/* 38 values pushed */
0 3 5 1 4 1 3 4 105 0 0 0 33 77 0 1 1 2 96 0 2 2 34 2 78 6 6 6 17 6 16 37 17 17 16 6 8 26
CALL[ ]	/* CallFunction */";
};
width = 535;
}
);
note = Ldot;
unicode = 319;
},
{
glyphname = Lslash;
kernRight = L;
lastChange = "2025-07-25 13:40:37 +0000";
layers = (
{
layerId = "BF20E584-FC8B-4684-8793-6BFBAEEB9F40";
shapes = (
{
closed = 1;
nodes = (
(510,0,l),
(510,67,l),
(184,67,l),
(184,346,l),
(306,392,l),
(306,459,l),
(184,413,l),
(184,700,l),
(100,700,l),
(100,381,l),
(20,351,l),
(20,284,l),
(100,314,l),
(100,0,l)
);
}
);
userData = {
assembly = "NPUSHB[ ]	/* 35 values pushed */
9 8 7 6 3 2 1 0 8 1 0 1 76 0 0 0 33 77 0 1 1 2 96 0 2 2 34 2 78 17 21 20 3 8 25
CALL[ ]	/* CallFunction */";
};
width = 551;
},
{
layerId = "59E4F189-9048-43B1-80D4-C98F20AC972F";
shapes = (
{
closed = 1;
nodes = (
(518,0,l),
(518,109,l),
(216,109,l),
(216,335,l),
(319,370,l),
(319,476,l),
(216,441,l),
(216,700,l),
(88,700,l),
(88,399,l),
(16,374,l),
(16,268,l),
(88,293,l),
(88,0,l)
);
}
);
userData = {
assembly = "NPUSHB[ ]	/* 35 values pushed */
9 8 7 6 3 2 1 0 8 1 0 1 76 0 0 0 33 77 0 1 1 2 96 0 2 2 34 2 78 17 21 20 3 8 25
CALL[ ]	/* CallFunction */";
};
width = 559;
}
);
note = Lslash;
unicode = 321;
},
{
glyphname = M;
kernRight = M;
lastChange = "2025-07-25 13:40:37 +0000";
layers = (
{
layerId = "BF20E584-FC8B-4684-8793-6BFBAEEB9F40";
shapes = (
{
closed = 1;
nodes = (
(158,0,l),
(158,547,l),
(382,100,l),
(445,100,l),
(669,548,l),
(669,0,l),
(753,0,l),
(753,700,l),
(654,700,l),
(414,214,l),
(172,700,l),
(74,700,l),
(74,0,l)
);
}
);
userData = {
assembly = "NPUSHB[ ]	/* 37 values pushed */
10 7 2 3 3 0 1 76 0 3 0 2 0 3 2 128 1 1 0 0 33 77 4 1 2 2 34 2 78 18 18 17 18 16 5 8 27
CALL[ ]	/* CallFunction */";
};
width = 827;
},
{
layerId = "59E4F189-9048-43B1-80D4-C98F20AC972F";
shapes = (
{
closed = 1;
nodes = (
(192,0,l),
(192,472,l),
(363,89,l),
(464,89,l),
(635,472,l),
(635,0,l),
(763,0,l),
(763,700,l),
(611,700,l),
(415,248,l),
(216,700,l),
(64,700,l),
(64,0,l)
);
}
);
userData = {
assembly = "NPUSHB[ ]	/* 37 values pushed */
10 7 2 3 3 0 1 76 0 3 0 2 0 3 2 128 1 1 0 0 33 77 4 1 2 2 34 2 78 18 18 17 18 16 5 8 27
CALL[ ]	/* CallFunction */";
};
width = 827;
}
);
note = M;
unicode = 77;
},
{
glyphname = N;
kernLeft = N;
kernRight = N;
lastChange = "2025-07-25 13:40:37 +0000";
layers = (
{
anchors = (
{
name = bottom;
pos = (345,0);
},
{
name = top;
pos = (345,700);
}
);
layerId = "BF20E584-FC8B-4684-8793-6BFBAEEB9F40";
shapes = (
{
closed = 1;
nodes = (
(158,0,l),
(158,561,l),
(531,0,l),
(615,0,l),
(615,700,l),
(531,700,l),
(531,139,l),
(158,700,l),
(74,700,l),
(74,0,l)
);
}
);
userData = {
assembly = "NPUSHB[ ]	/* 27 values pushed */
7 2 2 2 0 1 76 1 1 0 0 33 77 3 1 2 2 34 2 78 18 17 18 16 4 8 26
CALL[ ]	/* CallFunction */";
};
width = 689;
},
{
anchors = (
{
name = bottom;
pos = (357,0);
},
{
name = top;
pos = (357,700);
}
);
layerId = "59E4F189-9048-43B1-80D4-C98F20AC972F";
shapes = (
{
closed = 1;
nodes = (
(192,0,l),
(192,488,l),
(521,0,l),
(649,0,l),
(649,700,l),
(521,700,l),
(521,211,l),
(192,700,l),
(64,700,l),
(64,0,l)
);
}
);
userData = {
assembly = "NPUSHB[ ]	/* 27 values pushed */
7 2 2 2 0 1 76 1 1 0 0 33 77 3 1 2 2 34 2 78 18 17 18 16 4 8 26
CALL[ ]	/* CallFunction */";
};
width = 713;
}
);
note = N;
unicode = 78;
},
{
glyphname = Eng;
lastChange = "2025-07-25 13:40:37 +0000";
layers = (
{
layerId = "BF20E584-FC8B-4684-8793-6BFBAEEB9F40";
shapes = (
{
closed = 1;
nodes = (
(474,-220,ls),
(567,-220,o),
(615,-177,o),
(615,-82,cs),
(615,700,l),
(531,700,l),
(531,139,l),
(158,700,l),
(74,700,l),
(74,0,l),
(158,0,l),
(158,561,l),
(531,0,l),
(531,-80,ls),
(531,-128,o),
(510,-148,o),
(461,-148,cs),
(422,-148,l),
(422,-220,l)
);
}
);
userData = {
assembly = "NPUSHB[ ]	/* 42 values pushed */
16 2 2 4 0 1 76 15 1 4 1 75 1 1 0 0 33 77 0 4 4 34 77 0 3 3 2 97 0 2 2 38 2 78 21 33 35 18 16 5 8 27
CALL[ ]	/* CallFunction */";
};
width = 689;
},
{
layerId = "59E4F189-9048-43B1-80D4-C98F20AC972F";
shapes = (
{
closed = 1;
nodes = (
(480,-220,ls),
(593,-220,o),
(649,-165,o),
(649,-54,cs),
(649,700,l),
(521,700,l),
(521,211,l),
(192,700,l),
(64,700,l),
(64,0,l),
(192,0,l),
(192,488,l),
(521,0,l),
(521,-54,ls),
(521,-95,o),
(503,-111,o),
(460,-111,cs),
(433,-111,l),
(433,-220,l)
);
}
);
userData = {
assembly = "NPUSHB[ ]	/* 42 values pushed */
15 2 2 4 0 1 76 14 1 4 1 75 1 1 0 0 33 77 0 4 4 34 77 0 3 3 2 98 0 2 2 38 2 78 21 33 34 18 16 5 8 27
CALL[ ]	/* CallFunction */";
};
width = 713;
}
);
note = Eng;
unicode = 330;
},
{
glyphname = O;
kernLeft = C;
kernRight = D;
lastChange = "2025-07-25 13:46:28 +0000";
layers = (
{
anchors = (
{
name = bottom;
pos = (392,0);
},
{
name = ogonek;
pos = (464,10);
},
{
name = top;
pos = (392,700);
},
{
name = topright;
pos = (764,700);
}
);
layerId = "BF20E584-FC8B-4684-8793-6BFBAEEB9F40";
shapes = (
{
closed = 1;
nodes = (
(605,-12,o),
(737,138,o),
(737,350,cs),
(737,567,o),
(599,712,o),
(392,712,cs),
(179,712,o),
(47,557,o),
(47,350,cs),
(47,143,o),
(179,-12,o),
(392,-12,cs)
);
},
{
closed = 1;
nodes = (
(236,62,o),
(133,175,o),
(133,350,cs),
(133,524,o),
(234,637,o),
(392,637,cs),
(556,637,o),
(651,524,o),
(651,350,cs),
(651,174,o),
(549,62,o),
(392,62,cs)
);
}
);
userData = {
assembly = "NPUSHB[ ]	/* 41 values pushed */
0 2 2 0 97 0 0 0 39 77 5 1 3 3 1 97 4 1 1 1 40 1 78 16 16 0 0 16 31 16 30 24 22 0 15 0 14 38 6 8 23
CALL[ ]	/* CallFunction */";
};
width = 784;
},
{
anchors = (
{
name = bottom;
pos = (399,0);
},
{
name = ogonek;
pos = (483,10);
},
{
name = top;
pos = (399,700);
},
{
name = topright;
pos = (777,700);
}
);
layerId = "59E4F189-9048-43B1-80D4-C98F20AC972F";
shapes = (
{
closed = 1;
nodes = (
(590,-12,o),
(756,128,o),
(756,350,cs),
(756,572,o),
(590,712,o),
(398,712,cs),
(206,712,o),
(41,570,o),
(41,350,cs),
(41,130,o),
(206,-12,o),
(398,-12,cs)
);
},
{
closed = 1;
nodes = (
(260,104,o),
(173,212,o),
(173,350,cs),
(173,512,o),
(280,597,o),
(398,597,cs),
(529,597,o),
(624,499,o),
(624,350,cs),
(624,200,o),
(525,104,o),
(398,104,cs)
);
}
);
userData = {
assembly = "NPUSHB[ ]	/* 41 values pushed */
0 2 2 0 97 0 0 0 39 77 5 1 3 3 1 97 4 1 1 1 40 1 78 16 16 0 0 16 31 16 30 24 22 0 15 0 14 38 6 8 23
CALL[ ]	/* CallFunction */";
};
width = 797;
}
);
note = O;
unicode = 79;
},
{
glyphname = Oslash;
kernLeft = Oslash;
kernRight = Oslash;
lastChange = "2025-07-25 13:38:07 +0000";
layers = (
{
layerId = "BF20E584-FC8B-4684-8793-6BFBAEEB9F40";
shapes = (
{
closed = 1;
nodes = (
(604.667,-12,o),
(737,137.545,o),
(737,350,cs),
(737,447.333,o),
(708.333,532,o),
(655,596,c),
(747,700,l),
(658,700,l),
(607,643,l),
(549.667,687,o),
(476,712,o),
(392,712,cs),
(178.955,712,o),
(47,557.39,o),
(47,350,cs),
(47,251.333,o),
(76.667,166,o),
(130,102,c),
(39,0,l),
(129,0,l),
(179,56,l),
(237,10.667,o),
(308,-12,o),
(392,-12,cs)
);
},
{
closed = 1;
nodes = (
(328,62,o),
(274.333,79.667,o),
(231,115,c),
(601,534,l),
(634.333,485.333,o),
(651,424,o),
(651,350,cs),
(651,173.62,o),
(548.965,62,o),
(392,62,cs)
);
},
{
closed = 1;
nodes = (
(184,164,l),
(150,215.333,o),
(133,277.333,o),
(133,350,cs),
(133,524.182,o),
(234.469,637,o),
(392,637,cs),
(456,637,o),
(510.333,619.333,o),
(555,584,c),
(184,164,l)
);
}
);
userData = {
assembly = "MPPEM[ ]	/* MeasurePixelPerEm */
PUSHB[ ]	/* 1 value pushed */
21
LT[ ]	/* LessThan */
IF[ ]	/* If */
NPUSHB[ ]	/* 19 values pushed */
14 1 5 1 42 41 31 30 17 4 6 4 5 1 1 0 4 3 76
ELSE[ ]	/* Else */
NPUSHB[ ]	/* 19 values pushed */
14 1 5 2 42 41 31 30 17 4 6 4 5 1 1 0 4 3 76
EIF[ ]	/* EndIf */
MPPEM[ ]	/* MeasurePixelPerEm */
PUSHB[ ]	/* 1 value pushed */
21
LT[ ]	/* LessThan */
IF[ ]	/* If */
NPUSHB[ ]	/* 25 values pushed */
0 5 5 1 97 2 1 1 1 39 77 7 1 4 4 0 97 6 3 2 0 0 34 0 78
ELSE[ ]	/* Else */
NPUSHB[ ]	/* 33 values pushed */
0 2 2 33 77 0 5 5 1 97 0 1 1 39 77 0 0 0 34 77 7 1 4 4 3 97 6 1 3 3 40 3 78
EIF[ ]	/* EndIf */
NPUSHB[ ]	/* 20 values pushed */
25 25 0 0 36 34 25 33 25 32 0 24 0 23 19 39 18 8 8 25
CALL[ ]	/* CallFunction */";
};
width = 786;
},
{
layerId = "59E4F189-9048-43B1-80D4-C98F20AC972F";
shapes = (
{
closed = 1;
nodes = (
(596.569,-12,o),
(741,130.76,o),
(741,350,cs),
(741,448.667,o),
(713.667,530.333,o),
(659,595,c),
(750,700,l),
(628,700,l),
(590,656,l),
(532.667,693.333,o),
(466.333,712,o),
(391,712,cs),
(185.431,712,o),
(41,569.24,o),
(41,350,cs),
(41,254,o),
(69.333,170.333,o),
(120,109,c),
(27,0,l),
(149,0,l),
(189,46,l),
(246.333,7.333,o),
(313.667,-12,o),
(391,-12,cs)
);
},
{
closed = 1;
nodes = (
(343.667,103,o),
(302.333,114.667,o),
(267,138,c),
(575,497,l),
(599,456.333,o),
(611,407.333,o),
(611,350,cs),
(611,196.583,o),
(524.248,103,o),
(391,103,cs)
);
},
{
closed = 1;
nodes = (
(204,207,l),
(182,247,o),
(171,294.667,o),
(171,350,cs),
(171,503.417,o),
(257.752,597,o),
(391,597,cs),
(437,597,o),
(477,586,o),
(511,564,c),
(204,207,l)
);
}
);
userData = {
assembly = "MPPEM[ ]	/* MeasurePixelPerEm */
PUSHB[ ]	/* 1 value pushed */
21
LT[ ]	/* LessThan */
IF[ ]	/* If */
NPUSHB[ ]	/* 19 values pushed */
13 1 5 1 40 39 29 28 16 4 6 4 5 1 1 0 4 3 76
ELSE[ ]	/* Else */
NPUSHB[ ]	/* 19 values pushed */
13 1 5 2 40 39 29 28 16 4 6 4 5 1 1 0 4 3 76
EIF[ ]	/* EndIf */
MPPEM[ ]	/* MeasurePixelPerEm */
PUSHB[ ]	/* 1 value pushed */
21
LT[ ]	/* LessThan */
IF[ ]	/* If */
NPUSHB[ ]	/* 25 values pushed */
0 5 5 1 97 2 1 1 1 39 77 7 1 4 4 0 97 6 3 2 0 0 34 0 78
ELSE[ ]	/* Else */
NPUSHB[ ]	/* 33 values pushed */
0 2 2 33 77 0 5 5 1 97 0 1 1 39 77 0 0 0 34 77 7 1 4 4 3 97 6 1 3 3 40 3 78
EIF[ ]	/* EndIf */
NPUSHB[ ]	/* 20 values pushed */
23 23 0 0 34 32 23 31 23 30 0 22 0 21 18 39 18 8 8 25
CALL[ ]	/* CallFunction */";
};
width = 776;
}
);
note = Oslash;
unicode = 216;
},
{
glyphname = OE;
kernLeft = C;
lastChange = "2025-07-25 14:50:45 +0000";
layers = (
{
layerId = "BF20E584-FC8B-4684-8793-6BFBAEEB9F40";
shapes = (
{
closed = 1;
nodes = (
(502,-12,o),
(599,36,o),
(659,124,c),
(659,0,l),
(1061,0,l),
(1061,69,l),
(743,69,l),
(743,336,l),
(1021,336,l),
(1021,404,l),
(743,404,l),
(743,631,l),
(1061,631,l),
(1061,700,l),
(659,700,l),
(659,575,l),
(599,663,o),
(502,712,o),
(393,712,cs),
(192,712,o),
(47,558,o),
(47,350,cs),
(47,147,o),
(189,-12,o),
(393,-12,cs)
);
},
{
closed = 1;
nodes = (
(253,62,o),
(133,172,o),
(133,350,cs),
(133,513,o),
(235,637,o),
(395,637,cs),
(554,637,o),
(657,516,o),
(657,350,cs),
(657,193,o),
(562,62,o),
(395,62,cs)
);
}
);
userData = {
assembly = "NPUSHB[ ]	/* 10 values pushed */
10 1 3 2 23 1 5 4 2 76
MPPEM[ ]	/* MeasurePixelPerEm */
PUSHB[ ]	/* 1 value pushed */
21
LT[ ]	/* LessThan */
IF[ ]	/* If */
NPUSHB[ ]	/* 35 values pushed */
0 3 0 4 5 3 4 103 8 1 2 2 0 97 1 1 0 0 39 77 11 9 2 5 5 6 97 10 7 2 6 6 34 6 78
ELSE[ ]	/* Else */
MPPEM[ ]	/* MeasurePixelPerEm */
PUSHB[ ]	/* 1 value pushed */
33
LT[ ]	/* LessThan */
IF[ ]	/* If */
NPUSHB[ ]	/* 56 values pushed */
0 3 0 4 5 3 4 103 8 1 2 2 0 97 0 0 0 39 77 8 1 2 2 1 95 0 1 1 33 77 11 9 2 5 5 6 95 0 6 6 34 77 11 9 2 5 5 7 97 10 1 7 7 40 7 78
ELSE[ ]	/* Else */
MPPEM[ ]	/* MeasurePixelPerEm */
PUSHB[ ]	/* 1 value pushed */
39
LT[ ]	/* LessThan */
IF[ ]	/* If */
NPUSHB[ ]	/* 53 values pushed */
0 3 0 4 5 3 4 103 8 1 2 2 0 97 0 0 0 39 77 8 1 2 2 1 95 0 1 1 33 77 0 5 5 6 95 0 6 6 34 77 11 1 9 9 7 97 10 1 7 7 40 7 78
ELSE[ ]	/* Else */
NPUSHB[ ]	/* 51 values pushed */
0 3 0 4 5 3 4 103 0 8 8 0 97 0 0 0 39 77 0 2 2 1 95 0 1 1 33 77 0 5 5 6 95 0 6 6 34 77 11 1 9 9 7 97 10 1 7 7 40 7 78
EIF[ ]	/* EndIf */
EIF[ ]	/* EndIf */
EIF[ ]	/* EndIf */
NPUSHB[ ]	/* 24 values pushed */
27 27 0 0 27 42 27 41 35 33 0 26 0 25 17 17 17 17 17 19 38 12 8 29
CALL[ ]	/* CallFunction */";
};
width = 1118;
},
{
layerId = "59E4F189-9048-43B1-80D4-C98F20AC972F";
shapes = (
{
closed = 1;
nodes = (
(478,-12,o),
(568,28,o),
(619,96,c),
(619,0,l),
(1046,0,l),
(1046,109,l),
(747,109,l),
(747,315,l),
(1000,315,l),
(1000,424,l),
(747,424,l),
(747,591,l),
(1046,591,l),
(1046,700,l),
(619,700,l),
(619,601,l),
(568,672,o),
(478,712,o),
(385,712,cs),
(182,712,o),
(41,554,o),
(41,350,cs),
(41,147,o),
(184,-12,o),
(385,-12,cs)
);
},
{
closed = 1;
nodes = (
(261,103,o),
(172,207,o),
(172,350,cs),
(172,482,o),
(251,597,o),
(395,597,cs),
(522,597,o),
(619,497,o),
(619,350,cs),
(619,208,o),
(531,103,o),
(395,103,cs)
);
}
);
userData = {
assembly = "MPPEM[ ]	/* MeasurePixelPerEm */
PUSHB[ ]	/* 1 value pushed */
21
LT[ ]	/* LessThan */
IF[ ]	/* If */
NPUSHB[ ]	/* 10 values pushed */
10 1 2 0 23 1 6 5 2 76
ELSE[ ]	/* Else */
MPPEM[ ]	/* MeasurePixelPerEm */
PUSHB[ ]	/* 1 value pushed */
39
LT[ ]	/* LessThan */
IF[ ]	/* If */
NPUSHB[ ]	/* 10 values pushed */
10 1 2 1 23 1 6 5 2 76
ELSE[ ]	/* Else */
NPUSHB[ ]	/* 10 values pushed */
10 1 8 1 23 1 6 9 2 76
EIF[ ]	/* EndIf */
EIF[ ]	/* EndIf */
MPPEM[ ]	/* MeasurePixelPerEm */
PUSHB[ ]	/* 1 value pushed */
21
LT[ ]	/* LessThan */
IF[ ]	/* If */
NPUSHB[ ]	/* 35 values pushed */
0 3 0 4 5 3 4 103 8 1 2 2 0 97 1 1 0 0 39 77 11 9 2 5 5 6 97 10 7 2 6 6 34 6 78
ELSE[ ]	/* Else */
MPPEM[ ]	/* MeasurePixelPerEm */
PUSHB[ ]	/* 1 value pushed */
39
LT[ ]	/* LessThan */
IF[ ]	/* If */
NPUSHB[ ]	/* 56 values pushed */
0 3 0 4 5 3 4 103 8 1 2 2 0 97 0 0 0 39 77 8 1 2 2 1 95 0 1 1 33 77 11 9 2 5 5 6 95 0 6 6 34 77 11 9 2 5 5 7 97 10 1 7 7 40 7 78
ELSE[ ]	/* Else */
NPUSHB[ ]	/* 51 values pushed */
0 3 0 4 5 3 4 103 0 8 8 0 97 0 0 0 39 77 0 2 2 1 95 0 1 1 33 77 0 5 5 6 95 0 6 6 34 77 11 1 9 9 7 97 10 1 7 7 40 7 78
EIF[ ]	/* EndIf */
EIF[ ]	/* EndIf */
NPUSHB[ ]	/* 24 values pushed */
27 27 0 0 27 42 27 41 35 33 0 26 0 25 17 17 17 17 17 19 38 12 8 29
CALL[ ]	/* CallFunction */";
};
width = 1095;
}
);
note = OE;
unicode = 338;
},
{
glyphname = P;
kernRight = P;
lastChange = "2025-07-25 13:40:37 +0000";
layers = (
{
layerId = "BF20E584-FC8B-4684-8793-6BFBAEEB9F40";
shapes = (
{
closed = 1;
nodes = (
(158,0,l),
(158,304,l),
(305,304,ls),
(450,304,o),
(543,370,o),
(543,502,cs),
(543,631,o),
(454,700,o),
(305,700,cs),
(74,700,l),
(74,0,l)
);
},
{
closed = 1;
nodes = (
(158,630,l),
(303,630,ls),
(412,630,o),
(457,589,o),
(457,502,cs),
(457,417,o),
(412,375,o),
(303,375,cs),
(158,375,l)
);
}
);
userData = {
assembly = "NPUSHB[ ]	/* 38 values pushed */
5 1 4 0 1 2 4 1 103 0 3 3 0 95 0 0 0 33 77 0 2 2 34 2 78 11 11 11 19 11 18 37 17 36 32 6 8 26
CALL[ ]	/* CallFunction */";
};
width = 579;
},
{
layerId = "59E4F189-9048-43B1-80D4-C98F20AC972F";
shapes = (
{
closed = 1;
nodes = (
(192,0,l),
(192,279,l),
(323,279,ls),
(471,279,o),
(571,358,o),
(571,490,cs),
(571,622,o),
(471,700,o),
(323,700,cs),
(64,700,l),
(64,0,l)
);
},
{
closed = 1;
nodes = (
(192,591,l),
(320,591,ls),
(401,591,o),
(441,557,o),
(441,490,cs),
(441,422,o),
(401,388,o),
(320,388,cs),
(192,388,l)
);
}
);
userData = {
assembly = "NPUSHB[ ]	/* 38 values pushed */
5 1 4 0 1 2 4 1 103 0 3 3 0 95 0 0 0 33 77 0 2 2 34 2 78 11 11 11 17 11 16 35 17 36 32 6 8 26
CALL[ ]	/* CallFunction */";
};
width = 599;
}
);
note = P;
unicode = 80;
},
{
glyphname = Thorn;
kernRight = Thorn;
lastChange = "2025-07-25 13:40:37 +0000";
layers = (
{
layerId = "BF20E584-FC8B-4684-8793-6BFBAEEB9F40";
shapes = (
{
closed = 1;
nodes = (
(158,0,l),
(158,147,l),
(304,147,ls),
(360,147,o),
(405,156,o),
(440,174,cs),
(509,209,o),
(543,271,o),
(543,350,cs),
(543,389,o),
(535,424,o),
(518,455,cs),
(483,519,o),
(411,554,o),
(304,554,cs),
(158,554,l),
(158,700,l),
(74,700,l),
(74,0,l)
);
},
{
closed = 1;
nodes = (
(158,484,l),
(302,484,ls),
(410,484,o),
(457,438,o),
(457,350,cs),
(457,261,o),
(405,217,o),
(302,217,cs),
(158,217,l)
);
}
);
userData = {
assembly = "NPUSHB[ ]	/* 42 values pushed */
0 1 0 4 5 1 4 103 6 1 5 0 2 3 5 2 103 0 0 0 33 77 0 3 3 34 3 78 17 17 17 24 17 23 36 17 40 33 16 7 8 27
CALL[ ]	/* CallFunction */";
};
width = 579;
},
{
layerId = "59E4F189-9048-43B1-80D4-C98F20AC972F";
shapes = (
{
closed = 1;
nodes = (
(192,0,l),
(192,136,l),
(323,136,ls),
(380,136,o),
(427,146,o),
(464,166,cs),
(535,203,o),
(571,270,o),
(571,349,cs),
(571,390,o),
(562,427,o),
(544,460,cs),
(507,527,o),
(432,565,o),
(323,565,cs),
(192,565,l),
(192,700,l),
(64,700,l),
(64,0,l)
);
},
{
closed = 1;
nodes = (
(192,460,l),
(315,460,ls),
(399,460,o),
(441,423,o),
(441,349,cs),
(441,280,o),
(402,239,o),
(315,239,cs),
(192,239,l)
);
}
);
userData = {
assembly = "NPUSHB[ ]	/* 42 values pushed */
0 1 0 4 5 1 4 103 6 1 5 0 2 3 5 2 103 0 0 0 33 77 0 3 3 34 3 78 17 17 17 24 17 23 36 17 40 33 16 7 8 27
CALL[ ]	/* CallFunction */";
};
width = 599;
}
);
note = Thorn;
unicode = 222;
},
{
glyphname = Q;
kernLeft = C;
kernRight = Q;
lastChange = "2025-07-25 13:46:43 +0000";
layers = (
{
layerId = "BF20E584-FC8B-4684-8793-6BFBAEEB9F40";
shapes = (
{
closed = 1;
nodes = (
(476,-12,o),
(548,11,o),
(607,56,c),
(677,-11,l),
(727,41,l),
(658,106,l),
(710,170,o),
(737,254,o),
(737,350,cs),
(737,567,o),
(599,712,o),
(392,712,cs),
(179,712,o),
(47,557,o),
(47,350,cs),
(47,143,o),
(179,-12,o),
(392,-12,cs)
);
},
{
closed = 1;
nodes = (
(236,62,o),
(133,175,o),
(133,350,cs),
(133,524,o),
(234,637,o),
(392,637,cs),
(556,637,o),
(651,524,o),
(651,350,cs),
(651,274,o),
(634,211,o),
(601,162,c),
(494,267,l),
(443,215,l),
(552,110,l),
(510,78,o),
(457,62,o),
(392,62,cs)
);
}
);
userData = {
assembly = "NPUSHB[ ]	/* 44 values pushed */
28 27 26 25 16 5 2 3 19 18 17 3 0 2 2 76 0 3 3 1 97 0 1 1 39 77 0 2 2 0 97 0 0 0 40 0 78 41 44 38 32 4 8 26
CALL[ ]	/* CallFunction */";
};
width = 789;
},
{
layerId = "59E4F189-9048-43B1-80D4-C98F20AC972F";
shapes = (
{
closed = 1;
nodes = (
(477,-12,o),
(552,12,o),
(613,56,c),
(683,-12,l),
(767,76,l),
(696,143,l),
(736,202,o),
(756,271,o),
(756,350,cs),
(756,572,o),
(590,712,o),
(398,712,cs),
(206,712,o),
(41,570,o),
(41,350,cs),
(41,130,o),
(206,-12,o),
(398,-12,cs)
);
},
{
closed = 1;
nodes = (
(260,104,o),
(173,212,o),
(173,350,cs),
(173,512,o),
(280,597,o),
(398,597,cs),
(529,597,o),
(624,499,o),
(624,350,cs),
(624,302,o),
(617,263,o),
(604,232,c),
(503,331,l),
(419,243,l),
(527,139,l),
(492,116,o),
(449,104,o),
(398,104,cs)
);
}
);
userData = {
assembly = "NPUSHB[ ]	/* 47 values pushed */
28 27 26 25 16 5 2 3 19 17 2 0 2 2 76 18 1 0 73 0 3 3 1 97 0 1 1 39 77 0 2 2 0 97 0 0 0 40 0 78 41 43 38 33 4 8 26
CALL[ ]	/* CallFunction */";
};
width = 802;
}
);
note = Q;
unicode = 81;
},
{
glyphname = R;
kernRight = R;
lastChange = "2025-07-25 13:40:37 +0000";
layers = (
{
anchors = (
{
name = bottom;
pos = (302,0);
},
{
name = top;
pos = (283,700);
}
);
layerId = "BF20E584-FC8B-4684-8793-6BFBAEEB9F40";
shapes = (
{
closed = 1;
nodes = (
(158,0,l),
(158,310,l),
(274,310,l),
(454,0,l),
(558,0,l),
(357,326,l),
(462,345,o),
(515,404,o),
(515,505,cs),
(515,634,o),
(430,700,o),
(281,700,cs),
(74,700,l),
(74,0,l)
);
},
{
closed = 1;
nodes = (
(158,630,l),
(279,630,ls),
(388,630,o),
(429,592,o),
(429,505,cs),
(429,420,o),
(388,381,o),
(279,381,cs),
(158,381,l)
);
}
);
userData = {
assembly = "NPUSHB[ ]	/* 46 values pushed */
6 1 2 5 1 76 6 1 5 0 2 1 5 2 103 0 4 4 0 95 0 0 0 33 77 3 1 1 1 34 1 78 13 13 13 21 13 20 37 17 17 21 32 7 8 27
CALL[ ]	/* CallFunction */";
};
width = 593;
},
{
anchors = (
{
name = bottom;
pos = (311,0);
},
{
name = top;
pos = (305,700);
}
);
layerId = "59E4F189-9048-43B1-80D4-C98F20AC972F";
shapes = (
{
closed = 1;
nodes = (
(192,0,l),
(192,295,l),
(270,295,l),
(442,0,l),
(593,0,l),
(398,316,l),
(493,339,o),
(547,401,o),
(547,498,cs),
(547,626,o),
(454,700,o),
(307,700,cs),
(64,700,l),
(64,0,l)
);
},
{
closed = 1;
nodes = (
(192,591,l),
(304,591,ls),
(387,591,o),
(417,557,o),
(417,498,cs),
(417,438,o),
(388,404,o),
(304,404,cs),
(192,404,l)
);
}
);
userData = {
assembly = "NPUSHB[ ]	/* 46 values pushed */
7 1 2 5 1 76 6 1 5 0 2 1 5 2 103 0 4 4 0 95 0 0 0 33 77 3 1 1 1 34 1 78 14 14 14 22 14 21 37 17 17 22 32 7 8 27
CALL[ ]	/* CallFunction */";
};
width = 615;
}
);
note = R;
unicode = 82;
},
{
glyphname = S;
kernLeft = S;
kernRight = S;
lastChange = "2025-07-25 14:50:55 +0000";
layers = (
{
anchors = (
{
name = bottom;
pos = (289,0);
},
{
name = top;
pos = (289,700);
}
);
layerId = "BF20E584-FC8B-4684-8793-6BFBAEEB9F40";
shapes = (
{
closed = 1;
nodes = (
(436,-12,o),
(533,65,o),
(533,183,cs),
(533,315,o),
(444,354,o),
(329,393,cs),
(243,422,o),
(155,437,o),
(155,528,cs),
(155,600,o),
(210,643,o),
(285,640,cs),
(365,640,o),
(422,589,o),
(422,518,c),
(510,518,l),
(507,639,o),
(416,712,o),
(288,712,cs),
(160,712,o),
(66,641,o),
(68,520,cs),
(68,421,o),
(111,382,o),
(278,325,cs),
(372,293,o),
(446,278,o),
(446,178,cs),
(446,103,o),
(385,59,o),
(297,59,cs),
(198,59,o),
(132,118,o),
(132,210,c),
(44,210,l),
(44,75,o),
(145,-12,o),
(297,-12,cs)
);
}
);
userData = {
assembly = "NPUSHB[ ]	/* 51 values pushed */
0 3 4 0 4 3 0 128 0 0 1 4 0 1 126 0 4 4 2 97 0 2 2 39 77 0 1 1 5 97 6 1 5 5 40 5 78 0 0 0 44 0 43 34 18 45 34 19 7 8 27
CALL[ ]	/* CallFunction */";
};
width = 578;
},
{
anchors = (
{
name = bottom;
pos = (295,0);
},
{
name = top;
pos = (295,700);
}
);
layerId = "59E4F189-9048-43B1-80D4-C98F20AC972F";
shapes = (
{
closed = 1;
nodes = (
(451,-12,o),
(549,72,o),
(549,194,cs),
(549,315,o),
(463,366,o),
(359,401,cs),
(294,423,o),
(190,452,o),
(190,521,cs),
(190,573,o),
(230,604,o),
(286,604,cs),
(350,604,o),
(393,562,o),
(394,510,c),
(531,510,l),
(529,634,o),
(429,712,o),
(291,712,cs),
(151,712,o),
(56,637,o),
(56,512,cs),
(56,420,o),
(111,354,o),
(246,310,cs),
(322,285,o),
(413,265,o),
(413,185,cs),
(413,130,o),
(370,96,o),
(302,96,cs),
(225,96,o),
(177,144,o),
(174,211,c),
(39,211,l),
(41,71,o),
(147,-12,o),
(303,-12,cs)
);
}
);
userData = {
assembly = "NPUSHB[ ]	/* 51 values pushed */
0 3 4 0 4 3 0 128 0 0 1 4 0 1 126 0 4 4 2 97 0 2 2 39 77 0 1 1 5 97 6 1 5 5 40 5 78 0 0 0 44 0 43 34 19 44 34 19 7 8 27
CALL[ ]	/* CallFunction */";
};
width = 589;
}
);
note = S;
unicode = 83;
},
{
glyphname = Scedilla;
kernLeft = S;
kernRight = S;
lastChange = "2025-07-25 14:51:00 +0000";
layers = (
{
anchors = (
{
name = bottom;
pos = (289,-259);
},
{
name = top;
pos = (289,700);
}
);
layerId = "BF20E584-FC8B-4684-8793-6BFBAEEB9F40";
shapes = (
{
closed = 1;
nodes = (
(324,-259,ls),
(396,-259,o),
(445,-220,o),
(445,-159,cs),
(445,-96,o),
(395,-62,o),
(316,-63,c),
(316,-11,l),
(441,-4,o),
(533,67,o),
(533,183,cs),
(533,315,o),
(444,354,o),
(329,393,cs),
(243,422,o),
(155,437,o),
(155,528,cs),
(155,600,o),
(210,643,o),
(285,640,cs),
(365,640,o),
(422,589,o),
(422,518,c),
(510,518,l),
(507,639,o),
(416,712,o),
(288,712,cs),
(160,712,o),
(66,641,o),
(68,520,cs),
(68,413,o),
(124,377,o),
(278,325,cs),
(372,293,o),
(446,278,o),
(446,178,cs),
(446,103,o),
(385,59,o),
(297,59,cs),
(198,59,o),
(132,118,o),
(132,210,c),
(44,210,l),
(44,85,o),
(131,3,o),
(260,-10,c),
(260,-113,l),
(309,-113,ls),
(354,-113,o),
(377,-128,o),
(377,-158,cs),
(377,-190,o),
(354,-206,o),
(309,-206,cs),
(217,-206,l),
(217,-259,l)
);
}
);
userData = {
assembly = "NPUSHB[ ]	/* 71 values pushed */
7 1 8 7 1 76 0 5 6 2 6 5 2 128 0 2 3 6 2 3 126 0 8 0 1 0 8 1 105 0 0 0 9 0 9 99 0 6 6 4 97 0 4 4 39 77 0 3 3 7 97 0 7 7 40 7 78 58 56 17 28 34 18 45 34 20 34 32 10 8 31
CALL[ ]	/* CallFunction */";
};
width = 578;
},
{
anchors = (
{
name = bottom;
pos = (295,-263);
},
{
name = top;
pos = (295,700);
}
);
layerId = "59E4F189-9048-43B1-80D4-C98F20AC972F";
shapes = (
{
closed = 1;
nodes = (
(334,-263,ls),
(407,-263,o),
(464,-224,o),
(464,-155,cs),
(464,-86,o),
(409,-47,o),
(334,-50,c),
(334,-11,l),
(461,0,o),
(549,78,o),
(549,194,cs),
(549,315,o),
(463,366,o),
(359,401,cs),
(294,423,o),
(190,452,o),
(190,521,cs),
(190,573,o),
(230,604,o),
(286,604,cs),
(350,604,o),
(393,562,o),
(394,510,c),
(531,510,l),
(529,634,o),
(429,712,o),
(291,712,cs),
(151,712,o),
(56,637,o),
(56,512,cs),
(56,420,o),
(111,354,o),
(246,310,cs),
(322,285,o),
(413,265,o),
(413,185,cs),
(413,130,o),
(370,96,o),
(302,96,cs),
(225,96,o),
(177,144,o),
(174,211,c),
(39,211,l),
(42,84,o),
(127,7,o),
(254,-9,c),
(254,-118,l),
(315,-118,ls),
(350,-118,o),
(368,-130,o),
(368,-153,cs),
(368,-177,o),
(350,-189,o),
(315,-189,cs),
(203,-189,l),
(203,-263,l)
);
}
);
userData = {
assembly = "PUSHB[ ]	/* 7 values pushed */
50 7 2 7 3 1 76
MPPEM[ ]	/* MeasurePixelPerEm */
PUSHB[ ]	/* 1 value pushed */
9
LT[ ]	/* LessThan */
IF[ ]	/* If */
NPUSHB[ ]	/* 47 values pushed */
0 5 6 2 6 5 2 128 0 2 3 6 2 3 126 0 3 7 7 3 112 0 7 0 1 0 7 1 106 0 0 0 8 0 8 99 0 6 6 4 97 0 4 4 39 6 78
ELSE[ ]	/* Else */
NPUSHB[ ]	/* 48 values pushed */
0 5 6 2 6 5 2 128 0 2 3 6 2 3 126 0 3 7 6 3 7 126 0 7 0 1 0 7 1 106 0 0 0 8 0 8 99 0 6 6 4 97 0 4 4 39 6 78
EIF[ ]	/* EndIf */
NPUSHB[ ]	/* 12 values pushed */
36 30 34 19 44 34 20 34 32 9 8 31
CALL[ ]	/* CallFunction */";
};
width = 589;
}
);
note = Scedilla;
unicode = 350;
},
{
glyphname = Germandbls;
lastChange = "2025-07-25 14:43:36 +0000";
layers = (
{
layerId = "BF20E584-FC8B-4684-8793-6BFBAEEB9F40";
shapes = (
{
closed = 1;
nodes = (
(549,-10,o),
(626,49,o),
(626,150,cs),
(626,233,o),
(580,275,o),
(489,307,cs),
(418,331,o),
(375,347,o),
(375,386,cs),
(375,411,o),
(390,422,o),
(425,445,cs),
(481,477,o),
(516,508,o),
(516,569,cs),
(516,670,o),
(423,732,o),
(302,732,cs),
(162,732,o),
(71,655,o),
(71,520,cs),
(71,0,l),
(154,0,l),
(154,512,ls),
(154,603,o),
(197,661,o),
(300,661,cs),
(377,661,o),
(432,629,o),
(432,562,cs),
(432,529,o),
(415,506,o),
(383,486,cs),
(340,458,ls),
(309,438,o),
(290,414,o),
(290,375,cs),
(290,310,o),
(346,278,o),
(438,246,cs),
(506,225,o),
(541,200,o),
(541,144,cs),
(541,87,o),
(501,56,o),
(440,56,cs),
(368,56,o),
(326,104,o),
(321,169,c),
(238,169,l),
(247,57,o),
(328,-10,o),
(441,-10,cs)
);
}
);
userData = {
assembly = "MPPEM[ ]	/* MeasurePixelPerEm */
PUSHB[ ]	/* 1 value pushed */
25
LT[ ]	/* LessThan */
IF[ ]	/* If */
NPUSHB[ ]	/* 31 values pushed */
0 0 2 1 2 0 1 128 0 2 2 4 97 0 4 4 41 77 0 1 1 3 97 6 5 2 3 3 34 3 78
ELSE[ ]	/* Else */
MPPEM[ ]	/* MeasurePixelPerEm */
PUSHB[ ]	/* 1 value pushed */
39
LT[ ]	/* LessThan */
IF[ ]	/* If */
NPUSHB[ ]	/* 35 values pushed */
0 0 2 1 2 0 1 128 0 2 2 4 97 0 4 4 41 77 0 3 3 34 77 0 1 1 5 97 6 1 5 5 40 5 78
ELSE[ ]	/* Else */
NPUSHB[ ]	/* 33 values pushed */
0 0 2 1 2 0 1 128 0 4 0 2 0 4 2 105 0 3 3 34 77 0 1 1 5 97 6 1 5 5 40 5 78
EIF[ ]	/* EndIf */
EIF[ ]	/* EndIf */
NPUSHB[ ]	/* 17 values pushed */
0 0 0 52 0 51 35 33 30 29 26 24 34 18 7 8 24
CALL[ ]	/* CallFunction */";
};
width = 664;
},
{
layerId = "59E4F189-9048-43B1-80D4-C98F20AC972F";
shapes = (
{
closed = 1;
nodes = (
(574,-10,o),
(656,54,o),
(656,159,cs),
(656,243,o),
(607,286,o),
(515,321,cs),
(480,334,o),
(413,351,o),
(413,390,cs),
(413,411,o),
(430,425,o),
(457,442,cs),
(509,477,o),
(538,503,o),
(538,556,cs),
(538,665,o),
(439,732,o),
(304,732,cs),
(149,732,o),
(46,647,o),
(46,509,cs),
(46,0,l),
(174,0,l),
(174,499,ls),
(174,583,o),
(216,625,o),
(299,625,cs),
(363,625,o),
(411,598,o),
(411,543,cs),
(411,515,o),
(395,497,o),
(367,476,cs),
(329,450,ls),
(299,429,o),
(284,403,o),
(284,370,cs),
(284,289,o),
(381,257,o),
(438,238,cs),
(502,215,o),
(531,199,o),
(531,151,cs),
(531,107,o),
(500,85,o),
(452,85,cs),
(399,85,o),
(364,119,o),
(357,175,c),
(236,175,l),
(251,54,o),
(335,-10,o),
(454,-10,cs)
);
}
);
userData = {
assembly = "MPPEM[ ]	/* MeasurePixelPerEm */
PUSHB[ ]	/* 1 value pushed */
25
LT[ ]	/* LessThan */
IF[ ]	/* If */
NPUSHB[ ]	/* 31 values pushed */
0 0 2 1 2 0 1 128 0 2 2 4 97 0 4 4 41 77 0 1 1 3 97 6 5 2 3 3 34 3 78
ELSE[ ]	/* Else */
MPPEM[ ]	/* MeasurePixelPerEm */
PUSHB[ ]	/* 1 value pushed */
29
LT[ ]	/* LessThan */
IF[ ]	/* If */
NPUSHB[ ]	/* 35 values pushed */
0 0 2 1 2 0 1 128 0 2 2 4 97 0 4 4 41 77 0 3 3 34 77 0 1 1 5 97 6 1 5 5 40 5 78
ELSE[ ]	/* Else */
NPUSHB[ ]	/* 33 values pushed */
0 0 2 1 2 0 1 128 0 4 0 2 0 4 2 105 0 3 3 34 77 0 1 1 5 97 6 1 5 5 40 5 78
EIF[ ]	/* EndIf */
EIF[ ]	/* EndIf */
NPUSHB[ ]	/* 17 values pushed */
0 0 0 53 0 52 35 33 29 28 26 24 34 18 7 8 24
CALL[ ]	/* CallFunction */";
};
width = 667;
}
);
note = uni1E9E;
unicode = 7838;
},
{
glyphname = T;
kernLeft = T;
kernRight = T;
lastChange = "2025-07-25 13:40:37 +0000";
layers = (
{
anchors = (
{
name = bottom;
pos = (280,0);
},
{
name = top;
pos = (280,700);
}
);
layerId = "BF20E584-FC8B-4684-8793-6BFBAEEB9F40";
shapes = (
{
closed = 1;
nodes = (
(322,0,l),
(322,631,l),
(531,631,l),
(531,700,l),
(29,700,l),
(29,631,l),
(238,631,l),
(238,0,l)
);
}
);
userData = {
assembly = "NPUSHB[ ]	/* 24 values pushed */
2 1 0 0 1 95 0 1 1 33 77 0 3 3 34 3 78 17 17 17 16 4 8 26
CALL[ ]	/* CallFunction */";
};
width = 560;
},
{
anchors = (
{
name = bottom;
pos = (292,0);
},
{
name = top;
pos = (292,700);
}
);
layerId = "59E4F189-9048-43B1-80D4-C98F20AC972F";
shapes = (
{
closed = 1;
nodes = (
(355,0,l),
(355,591,l),
(560,591,l),
(560,700,l),
(23,700,l),
(23,591,l),
(227,591,l),
(227,0,l)
);
}
);
userData = {
assembly = "NPUSHB[ ]	/* 24 values pushed */
2 1 0 0 1 95 0 1 1 33 77 0 3 3 34 3 78 17 17 17 16 4 8 26
CALL[ ]	/* CallFunction */";
};
width = 582;
}
);
note = T;
unicode = 84;
},
{
glyphname = Tcedilla;
kernLeft = T;
kernRight = T;
lastChange = "2025-07-25 14:43:36 +0000";
layers = (
{
anchors = (
{
name = bottom;
pos = (280,-259);
},
{
name = top;
pos = (280,700);
}
);
layerId = "BF20E584-FC8B-4684-8793-6BFBAEEB9F40";
shapes = (
{
closed = 1;
nodes = (
(315,-259,ls),
(387,-259,o),
(436,-220,o),
(436,-159,cs),
(436,-96,o),
(386,-62,o),
(307,-63,c),
(307,0,l),
(322,0,l),
(322,631,l),
(531,631,l),
(531,700,l),
(29,700,l),
(29,631,l),
(238,631,l),
(238,0,l),
(251,0,l),
(251,-113,l),
(300,-113,ls),
(345,-113,o),
(368,-128,o),
(368,-158,cs),
(368,-190,o),
(345,-206,o),
(300,-206,cs),
(208,-206,l),
(208,-259,l)
);
}
);
userData = {
assembly = "NPUSHB[ ]	/* 45 values pushed */
0 4 0 7 6 4 7 105 0 6 0 5 6 5 99 2 1 0 0 1 95 0 1 1 33 77 8 1 3 3 34 3 78 17 34 33 36 17 17 17 17 16 9 8 31
CALL[ ]	/* CallFunction */";
};
width = 560;
},
{
anchors = (
{
name = bottom;
pos = (292,-263);
},
{
name = top;
pos = (292,700);
}
);
layerId = "59E4F189-9048-43B1-80D4-C98F20AC972F";
shapes = (
{
closed = 1;
nodes = (
(331,-263,ls),
(404,-263,o),
(461,-224,o),
(461,-155,cs),
(461,-86,o),
(406,-47,o),
(331,-50,c),
(331,0,l),
(355,0,l),
(355,591,l),
(560,591,l),
(560,700,l),
(23,700,l),
(23,591,l),
(227,591,l),
(227,0,l),
(251,0,l),
(251,-118,l),
(312,-118,ls),
(347,-118,o),
(365,-130,o),
(365,-153,cs),
(365,-177,o),
(347,-189,o),
(312,-189,cs),
(200,-189,l),
(200,-263,l)
);
}
);
userData = {
assembly = "NPUSHB[ ]	/* 45 values pushed */
0 4 0 7 6 4 7 105 0 6 0 5 6 5 99 2 1 0 0 1 95 0 1 1 33 77 8 1 3 3 34 3 78 17 34 33 36 17 17 17 17 16 9 8 31
CALL[ ]	/* CallFunction */";
};
width = 582;
}
);
note = uni0162;
unicode = 354;
},
{
glyphname = U;
kernLeft = U;
kernRight = U;
lastChange = "2025-07-25 13:38:07 +0000";
layers = (
{
anchors = (
{
name = bottom;
pos = (328,0);
},
{
name = ogonek;
pos = (403,10);
},
{
name = top;
pos = (328,700);
},
{
name = topright;
pos = (636,700);
}
);
layerId = "BF20E584-FC8B-4684-8793-6BFBAEEB9F40";
shapes = (
{
closed = 1;
nodes = (
(417.667,-12,o),
(499.333,19.833,o),
(550,100.5,cs),
(575.333,140.833,o),
(588,193.333,o),
(588,258,cs),
(588,700,l),
(504,700,l),
(504,257,ls),
(504,126.333,o),
(438.333,63,o),
(329,63,cs),
(219.667,63,o),
(152,126.333,o),
(152,257,cs),
(152,700,l),
(68,700,l),
(68,258,ls),
(68,158,o),
(103.667,73.167,o),
(181,24.5,cs),
(219.667,0.167,o),
(268.333,-12,o),
(327,-12,cs)
);
}
);
userData = {
assembly = "NPUSHB[ ]	/* 30 values pushed */
2 1 0 0 33 77 0 1 1 3 97 4 1 3 3 40 3 78 0 0 0 19 0 18 19 35 20 5 8 25
CALL[ ]	/* CallFunction */";
};
width = 656;
},
{
anchors = (
{
name = bottom;
pos = (337,0);
},
{
name = ogonek;
pos = (418,10);
},
{
name = top;
pos = (337,700);
},
{
name = topright;
pos = (653,700);
}
);
layerId = "59E4F189-9048-43B1-80D4-C98F20AC972F";
shapes = (
{
closed = 1;
nodes = (
(428.667,-12,o),
(518.333,22,o),
(573,106,cs),
(600.333,148,o),
(614,202,o),
(614,268,cs),
(614,700,l),
(486,700,l),
(486,267,ls),
(486,160.333,o),
(431.667,105,o),
(337,105,cs),
(242.333,105,o),
(188,160.333,o),
(188,267,cs),
(188,700,l),
(60,700,l),
(60,268,ls),
(60,164,o),
(98.5,75.5,o),
(180.5,25.5,cs),
(221.5,0.5,o),
(272.667,-12,o),
(334,-12,cs)
);
}
);
userData = {
assembly = "NPUSHB[ ]	/* 30 values pushed */
2 1 0 0 33 77 0 1 1 3 97 4 1 3 3 40 3 78 0 0 0 19 0 18 19 35 20 5 8 25
CALL[ ]	/* CallFunction */";
};
width = 673;
}
);
note = U;
unicode = 85;
},
{
glyphname = Uogonek;
kernLeft = U;
kernRight = U;
lastChange = "2025-07-25 13:38:07 +0000";
layers = (
{
anchors = (
{
name = bottom;
pos = (328,0);
},
{
name = ogonek;
pos = (403,10);
},
{
name = top;
pos = (328,700);
},
{
name = topright;
pos = (636,700);
}
);
layerId = "BF20E584-FC8B-4684-8793-6BFBAEEB9F40";
shapes = (
{
closed = 1;
nodes = (
(357,-193,o),
(382,-188.667,o),
(406,-180,c),
(406,-124,l),
(383.333,-134,o),
(361.667,-139,o),
(341,-139,cs),
(305,-139,o),
(281,-120.667,o),
(281,-90,cs),
(281,-62.667,o),
(302.333,-38.667,o),
(345,-18,cs),
(361,-10,l),
(490.333,2,o),
(588,84.667,o),
(588,258,cs),
(588,700,l),
(504,700,l),
(504,257,ls),
(504,126.333,o),
(438.333,63,o),
(329,63,cs),
(219.667,63,o),
(152,126.333,o),
(152,257,cs),
(152,700,l),
(68,700,l),
(68,258,ls),
(68,123.333,o),
(133.333,18.333,o),
(264,-7,c),
(230,-33,o),
(213,-63.333,o),
(213,-98,cs),
(213,-160.667,o),
(264.333,-193,o),
(331,-193,cs)
);
}
);
userData = {
assembly = "NPUSHB[ ]	/* 47 values pushed */
30 4 2 3 1 31 1 4 3 2 76 0 1 0 3 0 1 3 128 0 3 5 1 4 3 4 102 2 1 0 0 33 0 78 0 0 0 33 0 32 41 19 35 24 6 8 26
CALL[ ]	/* CallFunction */";
};
width = 656;
},
{
anchors = (
{
name = bottom;
pos = (337,0);
},
{
name = ogonek;
pos = (418,10);
},
{
name = top;
pos = (337,700);
},
{
name = topright;
pos = (653,700);
}
);
layerId = "59E4F189-9048-43B1-80D4-C98F20AC972F";
shapes = (
{
closed = 1;
nodes = (
(364.667,-200,o),
(393.667,-195.333,o),
(423,-186,c),
(423,-110,l),
(397,-120,o),
(373.333,-125,o),
(352,-125,cs),
(320,-125,o),
(300,-109.333,o),
(300,-84,cs),
(300,-60,o),
(319.333,-40,o),
(366,-16,cs),
(380,-9,l),
(512,8.333,o),
(614,96,o),
(614,268,cs),
(614,700,l),
(486,700,l),
(486,267,ls),
(486,160.333,o),
(431.667,105,o),
(337,105,cs),
(242.333,105,o),
(188,160.333,o),
(188,267,cs),
(188,700,l),
(60,700,l),
(60,268,ls),
(60,133.333,o),
(125.333,27.667,o),
(252,-3,c),
(219.333,-29,o),
(203,-60,o),
(203,-96,cs),
(203,-164,o),
(258.667,-200,o),
(336,-200,cs)
);
}
);
userData = {
assembly = "NPUSHB[ ]	/* 11 values pushed */
31 4 2 3 1 32 1 4 3 2 76
MPPEM[ ]	/* MeasurePixelPerEm */
PUSHB[ ]	/* 1 value pushed */
25
LT[ ]	/* LessThan */
IF[ ]	/* If */
NPUSHB[ ]	/* 26 values pushed */
0 1 0 3 0 1 3 128 2 1 0 0 33 77 0 3 3 4 98 5 1 4 4 38 4 78
ELSE[ ]	/* Else */
NPUSHB[ ]	/* 23 values pushed */
0 1 0 3 0 1 3 128 0 3 5 1 4 3 4 102 2 1 0 0 33 0 78
EIF[ ]	/* EndIf */
NPUSHB[ ]	/* 13 values pushed */
0 0 0 34 0 33 42 19 35 24 6 8 26
CALL[ ]	/* CallFunction */";
};
width = 673;
}
);
note = Uogonek;
unicode = 370;
},
{
glyphname = V;
kernLeft = V;
kernRight = V;
lastChange = "2025-07-25 13:40:37 +0000";
layers = (
{
layerId = "BF20E584-FC8B-4684-8793-6BFBAEEB9F40";
shapes = (
{
closed = 1;
nodes = (
(383,0,l),
(646,700,l),
(557,700,l),
(334,89,l),
(113,700,l),
(22,700,l),
(285,0,l)
);
}
);
userData = {
assembly = "NPUSHB[ ]	/* 24 values pushed */
2 1 2 0 1 76 1 1 0 0 33 77 0 2 2 34 2 78 17 18 16 3 8 25
CALL[ ]	/* CallFunction */";
};
width = 668;
},
{
layerId = "59E4F189-9048-43B1-80D4-C98F20AC972F";
shapes = (
{
closed = 1;
nodes = (
(424,0,l),
(680,700,l),
(545,700,l),
(346,131,l),
(148,700,l),
(11,700,l),
(267,0,l)
);
}
);
userData = {
assembly = "NPUSHB[ ]	/* 24 values pushed */
2 1 2 0 1 76 1 1 0 0 33 77 0 2 2 34 2 78 17 18 16 3 8 25
CALL[ ]	/* CallFunction */";
};
width = 691;
}
);
note = V;
unicode = 86;
},
{
glyphname = W;
kernLeft = W;
kernRight = W;
lastChange = "2025-07-25 13:40:37 +0000";
layers = (
{
anchors = (
{
name = bottom;
pos = (493,0);
},
{
name = top;
pos = (493,700);
}
);
layerId = "BF20E584-FC8B-4684-8793-6BFBAEEB9F40";
shapes = (
{
closed = 1;
nodes = (
(320,0,l),
(491,586,l),
(658,0,l),
(755,0,l),
(950,700,l),
(860,700,l),
(707,97,l),
(542,700,l),
(445,700,l),
(275,102,l),
(124,700,l),
(34,700,l),
(224,0,l)
);
}
);
userData = {
assembly = "NPUSHB[ ]	/* 36 values pushed */
11 6 3 3 3 0 1 76 2 1 2 0 0 33 77 5 4 2 3 3 34 3 78 0 0 0 12 0 12 17 18 18 17 6 8 26
CALL[ ]	/* CallFunction */";
};
width = 985;
},
{
anchors = (
{
name = bottom;
pos = (519,0);
},
{
name = top;
pos = (519,700);
}
);
layerId = "59E4F189-9048-43B1-80D4-C98F20AC972F";
shapes = (
{
closed = 1;
nodes = (
(378,0,l),
(520,531,l),
(657,0,l),
(818,0,l),
(1012,700,l),
(872,700,l),
(737,153,l),
(596,700,l),
(447,700,l),
(302,153,l),
(168,700,l),
(29,700,l),
(218,0,l)
);
}
);
userData = {
assembly = "NPUSHB[ ]	/* 36 values pushed */
11 6 3 3 3 0 1 76 2 1 2 0 0 33 77 5 4 2 3 3 34 3 78 0 0 0 12 0 12 17 18 18 17 6 8 26
CALL[ ]	/* CallFunction */";
};
width = 1041;
}
);
note = W;
unicode = 87;
},
{
glyphname = X;
kernLeft = X;
kernRight = X;
lastChange = "2025-07-25 13:40:37 +0000";
layers = (
{
layerId = "BF20E584-FC8B-4684-8793-6BFBAEEB9F40";
shapes = (
{
closed = 1;
nodes = (
(127,0,l),
(297,300,l),
(477,0,l),
(571,0,l),
(346,377,l),
(537,700,l),
(442,700,l),
(301,451,l),
(152,700,l),
(58,700,l),
(252,376,l),
(31,0,l)
);
}
);
userData = {
assembly = "NPUSHB[ ]	/* 28 values pushed */
9 6 3 3 2 0 1 76 1 1 0 0 33 77 3 1 2 2 34 2 78 18 18 18 17 4 8 26
CALL[ ]	/* CallFunction */";
};
width = 602;
},
{
layerId = "59E4F189-9048-43B1-80D4-C98F20AC972F";
shapes = (
{
closed = 1;
nodes = (
(174,0,l),
(323,264,l),
(480,0,l),
(625,0,l),
(398,381,l),
(585,700,l),
(440,700,l),
(327,497,l),
(206,700,l),
(61,700,l),
(251,381,l),
(29,0,l)
);
}
);
userData = {
assembly = "NPUSHB[ ]	/* 28 values pushed */
9 6 3 3 2 0 1 76 1 1 0 0 33 77 3 1 2 2 34 2 78 18 18 18 17 4 8 26
CALL[ ]	/* CallFunction */";
};
width = 651;
}
);
note = X;
unicode = 88;
},
{
glyphname = Y;
kernLeft = Y;
kernRight = Y;
lastChange = "2025-07-25 13:40:37 +0000";
layers = (
{
anchors = (
{
name = bottom;
pos = (290,0);
},
{
name = top;
pos = (290,700);
}
);
layerId = "BF20E584-FC8B-4684-8793-6BFBAEEB9F40";
shapes = (
{
closed = 1;
nodes = (
(332,0,l),
(332,266,l),
(559,700,l),
(465,700,l),
(290,346,l),
(115,700,l),
(20,700,l),
(248,266,l),
(248,0,l)
);
}
);
userData = {
assembly = "NPUSHB[ ]	/* 26 values pushed */
6 3 0 3 2 0 1 76 1 1 0 0 33 77 0 2 2 34 2 78 18 18 17 3 8 25
CALL[ ]	/* CallFunction */";
};
width = 579;
},
{
anchors = (
{
name = bottom;
pos = (309,0);
},
{
name = top;
pos = (309,700);
}
);
layerId = "59E4F189-9048-43B1-80D4-C98F20AC972F";
shapes = (
{
closed = 1;
nodes = (
(373,0,l),
(373,281,l),
(607,700,l),
(464,700,l),
(310,409,l),
(155,700,l),
(10,700,l),
(245,281,l),
(245,0,l)
);
}
);
userData = {
assembly = "NPUSHB[ ]	/* 26 values pushed */
6 3 0 3 2 0 1 76 1 1 0 0 33 77 0 2 2 34 2 78 18 18 17 3 8 25
CALL[ ]	/* CallFunction */";
};
width = 617;
}
);
note = Y;
unicode = 89;
},
{
glyphname = Z;
kernRight = Z;
lastChange = "2025-07-25 13:40:37 +0000";
layers = (
{
anchors = (
{
name = bottom;
pos = (268,0);
},
{
name = top;
pos = (268,700);
}
);
layerId = "BF20E584-FC8B-4684-8793-6BFBAEEB9F40";
shapes = (
{
closed = 1;
nodes = (
(491,0,l),
(491,73,l),
(141,73,l),
(487,634,l),
(487,700,l),
(49,700,l),
(49,627,l),
(389,627,l),
(44,66,l),
(44,0,l)
);
}
);
userData = {
assembly = "NPUSHB[ ]	/* 38 values pushed */
5 1 0 1 0 1 3 2 2 76 0 0 0 1 95 0 1 1 33 77 0 2 2 3 95 0 3 3 34 3 78 17 18 17 17 4 8 26
CALL[ ]	/* CallFunction */";
};
width = 535;
},
{
anchors = (
{
name = bottom;
pos = (279,0);
},
{
name = top;
pos = (279,700);
}
);
layerId = "59E4F189-9048-43B1-80D4-C98F20AC972F";
shapes = (
{
closed = 1;
nodes = (
(515,0,l),
(515,109,l),
(190,109,l),
(513,602,l),
(513,700,l),
(46,700,l),
(46,592,l),
(364,592,l),
(43,98,l),
(43,0,l)
);
}
);
userData = {
assembly = "NPUSHB[ ]	/* 38 values pushed */
5 1 0 1 0 1 3 2 2 76 0 0 0 1 95 0 1 1 33 77 0 2 2 3 95 0 3 3 34 3 78 17 18 17 17 4 8 26
CALL[ ]	/* CallFunction */";
};
width = 558;
}
);
note = Z;
unicode = 90;
},
{
glyphname = Saltillo;
lastChange = "2025-07-25 14:43:36 +0000";
layers = (
{
layerId = "BF20E584-FC8B-4684-8793-6BFBAEEB9F40";
shapes = (
{
closed = 1;
nodes = (
(146,229,l),
(156,700,l),
(65,700,l),
(75,229,l)
);
}
);
userData = {
assembly = "NPUSHB[ ]	/* 16 values pushed */
0 1 1 0 95 0 0 0 33 1 78 17 16 2 8 24
CALL[ ]	/* CallFunction */";
};
width = 221;
},
{
layerId = "59E4F189-9048-43B1-80D4-C98F20AC972F";
shapes = (
{
closed = 1;
nodes = (
(182,210,l),
(197,700,l),
(60,700,l),
(74,210,l)
);
}
);
userData = {
assembly = "NPUSHB[ ]	/* 16 values pushed */
0 1 1 0 95 0 0 0 33 1 78 17 16 2 8 24
CALL[ ]	/* CallFunction */";
};
width = 257;
}
);
note = uniA78B;
unicode = 42891;
},
{
glyphname = a;
kernLeft = a;
kernRight = a;
lastChange = "2025-07-31 12:05:58 +0000";
layers = (
{
anchors = (
{
name = bottom;
pos = (247,0);
},
{
name = ogonek;
pos = (539,0);
},
{
name = top;
pos = (275,496);
}
);
layerId = "BF20E584-FC8B-4684-8793-6BFBAEEB9F40";
shapes = (
{
closed = 1;
nodes = (
(309.333,-12,o),
(370.667,26.667,o),
(404,84,c),
(408,0,l),
(484,0,l),
(484,305,ls),
(484,426.333,o),
(417.667,508,o),
(275,508,cs),
(159.691,508,o),
(67.662,440.612,o),
(60,341,c),
(146,341,l),
(158,403.667,o),
(207,437,o),
(275,437,cs),
(348.333,437,o),
(400,395,o),
(400,299,c),
(266,299,ls),
(140.667,299,o),
(50,249,o),
(50,141,cs),
(50,43.667,o),
(125.333,-12,o),
(232,-12,cs)
);
},
{
closed = 1;
nodes = (
(183,59,o),
(138,87.667,o),
(138,145,cs),
(138,209,o),
(193,234,o),
(273,234,cs),
(400,234,l),
(400,233,ls),
(400,136.889,o),
(338.041,59,o),
(247,59,cs)
);
}
);
userData = {
assembly = "PUSHB[ ]	/* 6 values pushed */
23 1 7 6 1 76
MPPEM[ ]	/* MeasurePixelPerEm */
PUSHB[ ]	/* 1 value pushed */
21
LT[ ]	/* LessThan */
IF[ ]	/* If */
NPUSHB[ ]	/* 40 values pushed */
0 2 1 0 1 2 0 128 0 0 0 6 7 0 6 103 0 1 1 3 97 0 3 3 42 77 9 1 7 7 4 97 8 5 2 4 4 34 4 78
ELSE[ ]	/* Else */
NPUSHB[ ]	/* 44 values pushed */
0 2 1 0 1 2 0 128 0 0 0 6 7 0 6 103 0 1 1 3 97 0 3 3 42 77 0 4 4 34 77 9 1 7 7 5 97 8 1 5 5 40 5 78
EIF[ ]	/* EndIf */
NPUSHB[ ]	/* 22 values pushed */
27 27 0 0 27 38 27 37 33 30 0 26 0 25 19 35 18 34 36 10 8 27
CALL[ ]	/* CallFunction */";
};
width = 543;
},
{
anchors = (
{
name = bottom;
pos = (238,0);
},
{
name = ogonek;
pos = (538,0);
},
{
name = top;
pos = (266,496);
}
);
layerId = "59E4F189-9048-43B1-80D4-C98F20AC972F";
shapes = (
{
closed = 1;
nodes = (
(273.333,-12,o),
(332.667,21,o),
(366,69,c),
(368,0,l),
(485,0,l),
(485,296,ls),
(485,425.333,o),
(404,508,o),
(268,508,cs),
(144.713,508,o),
(47.745,436.616,o),
(40,334,c),
(168,334,l),
(176,379.333,o),
(213.333,401,o),
(264,401,cs),
(322.667,401,o),
(356,362.667,o),
(356,296,c),
(238,296,ls),
(112.667,296,o),
(30,242.333,o),
(30,137,cs),
(30,48.581,o),
(102.083,-12,o),
(200,-12,cs)
);
},
{
closed = 1;
nodes = (
(190,91,o),
(160,112.333,o),
(160,151,cs),
(160,193.667,o),
(196.667,214,o),
(246,214,cs),
(356,214,l),
(356,210,ls),
(356,140.667,o),
(302,91,o),
(234,91,cs)
);
}
);
userData = {
assembly = "PUSHB[ ]	/* 6 values pushed */
24 1 4 7 1 76
MPPEM[ ]	/* MeasurePixelPerEm */
PUSHB[ ]	/* 1 value pushed */
21
LT[ ]	/* LessThan */
IF[ ]	/* If */
NPUSHB[ ]	/* 40 values pushed */
0 2 1 0 1 2 0 128 0 0 0 6 7 0 6 103 0 1 1 3 97 0 3 3 42 77 9 1 7 7 4 97 8 5 2 4 4 34 4 78
ELSE[ ]	/* Else */
NPUSHB[ ]	/* 44 values pushed */
0 2 1 0 1 2 0 128 0 0 0 6 7 0 6 103 0 1 1 3 97 0 3 3 42 77 0 4 4 34 77 9 1 7 7 5 97 8 1 5 5 40 5 78
EIF[ ]	/* EndIf */
NPUSHB[ ]	/* 22 values pushed */
28 28 0 0 28 38 28 37 33 30 0 27 0 26 19 35 18 34 37 10 8 27
CALL[ ]	/* CallFunction */";
};
width = 522;
},
{
anchors = (
{
name = bottom;
pos = (247,0);
},
{
name = ogonek;
pos = (539,0);
},
{
name = top;
pos = (275,496);
}
);
associatedMasterId = "BF20E584-FC8B-4684-8793-6BFBAEEB9F40";
layerId = "B5186D86-E53D-4337-A161-C5C5F2A35DC8";
name = "31 Jul 25 at 14:05";
shapes = (
{
closed = 1;
nodes = (
(309.333,-12,o),
(370.667,26.667,o),
(404,84,c),
(408,0,l),
(484,0,l),
(484,305,ls),
(484,426.333,o),
(417.667,508,o),
(275,508,cs),
(159.691,508,o),
(67.662,440.612,o),
(60,341,c),
(146,341,l),
(158,403.667,o),
(207,437,o),
(275,437,cs),
(348.333,437,o),
(400,395,o),
(400,299,c),
(266,299,ls),
(140.667,299,o),
(50,249,o),
(50,141,cs),
(50,43.667,o),
(125.333,-12,o),
(232,-12,cs)
);
},
{
closed = 1;
nodes = (
(183,59,o),
(138,87.667,o),
(138,145,cs),
(138,209,o),
(193,234,o),
(273,234,cs),
(400,234,l),
(400,233,ls),
(400,136.889,o),
(338.041,59,o),
(247,59,cs)
);
}
);
userData = {
assembly = "PUSHB[ ]	/* 6 values pushed */
23 1 7 6 1 76
MPPEM[ ]	/* MeasurePixelPerEm */
PUSHB[ ]	/* 1 value pushed */
21
LT[ ]	/* LessThan */
IF[ ]	/* If */
NPUSHB[ ]	/* 40 values pushed */
0 2 1 0 1 2 0 128 0 0 0 6 7 0 6 103 0 1 1 3 97 0 3 3 42 77 9 1 7 7 4 97 8 5 2 4 4 34 4 78
ELSE[ ]	/* Else */
NPUSHB[ ]	/* 44 values pushed */
0 2 1 0 1 2 0 128 0 0 0 6 7 0 6 103 0 1 1 3 97 0 3 3 42 77 0 4 4 34 77 9 1 7 7 5 97 8 1 5 5 40 5 78
EIF[ ]	/* EndIf */
NPUSHB[ ]	/* 22 values pushed */
27 27 0 0 27 38 27 37 33 30 0 26 0 25 19 35 18 34 36 10 8 27
CALL[ ]	/* CallFunction */";
};
width = 543;
}
);
note = a;
unicode = 97;
},
{
glyphname = aogonek;
kernLeft = a;
kernRight = aacute;
lastChange = "2025-07-25 13:38:07 +0000";
layers = (
{
anchors = (
{
name = bottom;
pos = (247,0);
},
{
name = ogonek;
pos = (539,0);
},
{
name = top;
pos = (275,496);
}
);
layerId = "BF20E584-FC8B-4684-8793-6BFBAEEB9F40";
shapes = (
{
closed = 1;
nodes = (
(493,-203,o),
(518,-198.667,o),
(542,-190,c),
(542,-134,l),
(519.333,-144,o),
(497.667,-149,o),
(477,-149,cs),
(441,-149,o),
(417,-130.667,o),
(417,-100,cs),
(417,-72.667,o),
(438.333,-48.667,o),
(481,-28,cs),
(539,0,l),
(518,43,l),
(484,28,l),
(484,305,ls),
(484,426.333,o),
(417.667,508,o),
(275,508,cs),
(159.691,508,o),
(67.662,440.612,o),
(60,341,c),
(146,341,l),
(158,403.667,o),
(207,437,o),
(275,437,cs),
(348.333,437,o),
(400,395,o),
(400,299,c),
(266,299,ls),
(140.667,299,o),
(50,249,o),
(50,141,cs),
(50,43.667,o),
(125.333,-12,o),
(232,-12,cs),
(309.333,-12,o),
(370.667,26.667,o),
(404,84,c),
(408,0,l),
(425,0,l),
(374.333,-30,o),
(349,-66,o),
(349,-108,cs),
(349,-170.667,o),
(400.333,-203,o),
(467,-203,cs)
);
},
{
closed = 1;
nodes = (
(183,59,o),
(138,87.667,o),
(138,145,cs),
(138,209,o),
(193,234,o),
(273,234,cs),
(400,234,l),
(400,233,ls),
(400,136.889,o),
(338.041,59,o),
(247,59,cs)
);
}
);
userData = {
assembly = "MPPEM[ ]	/* MeasurePixelPerEm */
PUSHB[ ]	/* 1 value pushed */
21
LT[ ]	/* LessThan */
IF[ ]	/* If */
NPUSHB[ ]	/* 24 values pushed */
41 1 9 8 22 21 2 6 9 31 1 4 6 32 1 5 4 4 76 23 1 6 1 75
ELSE[ ]	/* Else */
NPUSHB[ ]	/* 24 values pushed */
41 1 9 8 22 21 2 6 9 31 1 4 7 32 1 5 4 4 76 23 1 6 1 75
EIF[ ]	/* EndIf */
MPPEM[ ]	/* MeasurePixelPerEm */
PUSHB[ ]	/* 1 value pushed */
21
LT[ ]	/* LessThan */
IF[ ]	/* If */
NPUSHB[ ]	/* 50 values pushed */
0 2 1 0 1 2 0 128 0 0 0 8 9 0 8 103 0 1 1 3 97 0 3 3 42 77 11 1 9 9 6 97 10 7 2 6 6 34 77 0 4 4 5 97 0 5 5 38 5 78
ELSE[ ]	/* Else */
MPPEM[ ]	/* MeasurePixelPerEm */
PUSHB[ ]	/* 1 value pushed */
29
LT[ ]	/* LessThan */
IF[ ]	/* If */
NPUSHB[ ]	/* 54 values pushed */
0 2 1 0 1 2 0 128 0 0 0 8 9 0 8 103 0 1 1 3 97 0 3 3 42 77 0 6 6 34 77 11 1 9 9 7 97 10 1 7 7 40 77 0 4 4 5 97 0 5 5 38 5 78
ELSE[ ]	/* Else */
NPUSHB[ ]	/* 51 values pushed */
0 2 1 0 1 2 0 128 0 0 0 8 9 0 8 103 0 4 0 5 4 5 101 0 1 1 3 97 0 3 3 42 77 0 6 6 34 77 11 1 9 9 7 97 10 1 7 7 40 7 78
EIF[ ]	/* EndIf */
EIF[ ]	/* EndIf */
NPUSHB[ ]	/* 24 values pushed */
45 45 0 0 45 56 45 55 51 48 0 44 0 43 20 35 42 35 18 34 36 12 8 29
CALL[ ]	/* CallFunction */";
};
width = 543;
},
{
anchors = (
{
name = bottom;
pos = (238,0);
},
{
name = ogonek;
pos = (538,0);
},
{
name = top;
pos = (266,496);
}
);
layerId = "59E4F189-9048-43B1-80D4-C98F20AC972F";
shapes = (
{
closed = 1;
nodes = (
(484.667,-210,o),
(513.667,-205.333,o),
(543,-196,c),
(543,-120,l),
(517,-130,o),
(493.333,-135,o),
(472,-135,cs),
(440,-135,o),
(420,-119.333,o),
(420,-94,cs),
(420,-70,o),
(439.333,-50,o),
(486,-26,cs),
(538,0,l),
(509,60,l),
(485,50,l),
(485,296,ls),
(485,425.333,o),
(404,508,o),
(268,508,cs),
(144.713,508,o),
(47.745,436.616,o),
(40,334,c),
(168,334,l),
(176,379.333,o),
(213.333,401,o),
(264,401,cs),
(322.667,401,o),
(356,362.667,o),
(356,296,c),
(238,296,ls),
(112.667,296,o),
(30,242.333,o),
(30,137,cs),
(30,48.581,o),
(102.083,-12,o),
(200,-12,cs),
(273.333,-12,o),
(332.667,21,o),
(366,69,c),
(368,0,l),
(389,0,l),
(345,-29.333,o),
(323,-64.667,o),
(323,-106,cs),
(323,-174,o),
(378.667,-210,o),
(456,-210,cs)
);
},
{
closed = 1;
nodes = (
(190,91,o),
(160,112.333,o),
(160,151,cs),
(160,193.667,o),
(196.667,214,o),
(246,214,cs),
(356,214,l),
(356,210,ls),
(356,140.667,o),
(302,91,o),
(234,91,cs)
);
}
);
userData = {
assembly = "MPPEM[ ]	/* MeasurePixelPerEm */
PUSHB[ ]	/* 1 value pushed */
21
LT[ ]	/* LessThan */
IF[ ]	/* If */
NPUSHB[ ]	/* 21 values pushed */
43 23 22 3 6 9 33 1 4 6 34 1 5 4 3 76 24 1 6 1 75
ELSE[ ]	/* Else */
NPUSHB[ ]	/* 21 values pushed */
43 23 22 3 6 9 33 1 4 7 34 1 5 4 3 76 24 1 6 1 75
EIF[ ]	/* EndIf */
MPPEM[ ]	/* MeasurePixelPerEm */
PUSHB[ ]	/* 1 value pushed */
21
LT[ ]	/* LessThan */
IF[ ]	/* If */
NPUSHB[ ]	/* 50 values pushed */
0 2 1 0 1 2 0 128 0 0 0 8 9 0 8 103 0 1 1 3 97 0 3 3 42 77 11 1 9 9 6 97 10 7 2 6 6 34 77 0 4 4 5 97 0 5 5 38 5 78
ELSE[ ]	/* Else */
MPPEM[ ]	/* MeasurePixelPerEm */
PUSHB[ ]	/* 1 value pushed */
50
LT[ ]	/* LessThan */
IF[ ]	/* If */
NPUSHB[ ]	/* 54 values pushed */
0 2 1 0 1 2 0 128 0 0 0 8 9 0 8 103 0 1 1 3 97 0 3 3 42 77 0 6 6 34 77 11 1 9 9 7 97 10 1 7 7 40 77 0 4 4 5 97 0 5 5 38 5 78
ELSE[ ]	/* Else */
NPUSHB[ ]	/* 51 values pushed */
0 2 1 0 1 2 0 128 0 0 0 8 9 0 8 103 0 4 0 5 4 5 101 0 1 1 3 97 0 3 3 42 77 0 6 6 34 77 11 1 9 9 7 97 10 1 7 7 40 7 78
EIF[ ]	/* EndIf */
EIF[ ]	/* EndIf */
NPUSHB[ ]	/* 24 values pushed */
47 47 0 0 47 57 47 56 52 49 0 46 0 45 20 35 43 35 18 34 37 12 8 29
CALL[ ]	/* CallFunction */";
};
width = 522;
}
);
note = aogonek;
unicode = 261;
},
{
glyphname = ae;
kernLeft = a;
kernRight = ae;
lastChange = "2025-07-25 13:38:07 +0000";
layers = (
{
anchors = (
{
name = bottom;
pos = (457,0);
},
{
name = top;
pos = (457,496);
}
);
layerId = "BF20E584-FC8B-4684-8793-6BFBAEEB9F40";
shapes = (
{
closed = 1;
nodes = (
(327.667,-12,o),
(394.667,34,o),
(436,106,c),
(477.333,32.667,o),
(553,-12,o),
(641,-12,cs),
(749,-12,o),
(829.667,53.333,o),
(859,148,c),
(776,148,l),
(751.333,88.667,o),
(706,59,o),
(640,59,cs),
(557.896,59,o),
(488.198,124.94,o),
(484,232,c),
(869,232,l),
(871,278,ls),
(871,407.764,o),
(777.462,508,o),
(642,508,cs),
(564.667,508,o),
(497.667,475.667,o),
(455,417,c),
(423,474.333,o),
(359.667,508,o),
(277,508,cs),
(169.396,508,o),
(79.632,443.745,o),
(68,341,c),
(155,341,l),
(165.667,402.333,o),
(214.333,437,o),
(277,437,cs),
(350.333,437,o),
(399,389,o),
(399,297,c),
(261,297,ls),
(130.333,297,o),
(50,241,o),
(50,141,cs),
(50,46.333,o),
(125,-12,o),
(237,-12,cs)
);
},
{
closed = 1;
nodes = (
(179,59,o),
(138,94,o),
(138,146,cs),
(138,203.333,o),
(181.667,232,o),
(269,232,cs),
(398,232,l),
(398,212,l),
(389.566,125.547,o),
(318.787,59,o),
(243,59,cs)
);
},
{
closed = 1;
nodes = (
(485,297,l),
(495.667,385,o),
(562,437,o),
(642,437,cs),
(722,437,o),
(782.667,382.333,o),
(788,297,c),
(485,297,l)
);
}
);
userData = {
assembly = "NPUSHB[ ]	/* 97 values pushed */
20 1 2 1 49 1 7 5 42 1 6 7 3 76 0 2 1 0 1 2 0 128 0 7 5 6 5 7 6 128 13 1 0 10 1 5 7 0 5 103 12 1 1 1 3 97 4 1 3 3 42 77 15 11 2 6 6 8 97 14 9 2 8 8 40 8 78 46 46 0 0 63 62 60 58 46 56 46 55 52 50 0 45 0 44 34 17 35 20 36 35 18 34 36 16 8 31
CALL[ ]	/* CallFunction */";
};
width = 913;
},
{
anchors = (
{
name = bottom;
pos = (451,0);
},
{
name = top;
pos = (451,496);
}
);
layerId = "59E4F189-9048-43B1-80D4-C98F20AC972F";
shapes = (
{
closed = 1;
nodes = (
(313,-12,o),
(380,22,o),
(426,90,c),
(471.333,26,o),
(545.333,-12,o),
(632,-12,cs),
(748,-12,o),
(834.667,58,o),
(864,154,c),
(735,154,l),
(715,116.667,o),
(679,93,o),
(631,93,cs),
(564.333,93,o),
(512.667,138.667,o),
(506,216,c),
(876,216,l),
(878,264,ls),
(878,409.67,o),
(773.354,508,o),
(632,508,cs),
(564,508,o),
(500,481.333,o),
(456,436,c),
(418.667,482.667,o),
(355.667,508,o),
(277,508,cs),
(156.768,508,o),
(61.662,441.215,o),
(52,333,c),
(177,333,l),
(186.333,378.333,o),
(226.333,404,o),
(277,404,cs),
(335.667,404,o),
(375,369.333,o),
(375,296,c),
(242,296,ls),
(103.333,296,o),
(30,235,o),
(30,139,cs),
(30,47,o),
(113,-12,o),
(225,-12,cs)
);
},
{
closed = 1;
nodes = (
(196.333,88,o),
(165,113.333,o),
(165,152,cs),
(165,190.667,o),
(195.333,216,o),
(258,216,cs),
(370,216,l),
(370,207,l),
(358,139,o),
(308.333,88,o),
(243,88,cs)
);
},
{
closed = 1;
nodes = (
(508,296,l),
(520,365.333,o),
(570.333,404,o),
(633,404,cs),
(697,404,o),
(743.667,362.667,o),
(749,296,c),
(508,296,l)
);
}
);
userData = {
assembly = "MPPEM[ ]	/* MeasurePixelPerEm */
PUSHB[ ]	/* 1 value pushed */
46
LT[ ]	/* LessThan */
IF[ ]	/* If */
NPUSHB[ ]	/* 14 values pushed */
20 1 1 3 47 1 7 5 42 1 8 6 3 76
ELSE[ ]	/* Else */
NPUSHB[ ]	/* 14 values pushed */
20 1 1 3 47 1 7 5 42 1 11 6 3 76
EIF[ ]	/* EndIf */
MPPEM[ ]	/* MeasurePixelPerEm */
PUSHB[ ]	/* 1 value pushed */
46
LT[ ]	/* LessThan */
IF[ ]	/* If */
NPUSHB[ ]	/* 53 values pushed */
0 2 1 0 1 2 0 128 0 7 5 6 5 7 6 128 13 1 0 10 1 5 7 0 5 103 12 1 1 1 3 97 4 1 3 3 42 77 15 11 2 6 6 8 97 14 9 2 8 8 40 8 78
ELSE[ ]	/* Else */
NPUSHB[ ]	/* 64 values pushed */
0 2 1 0 1 2 0 128 0 7 5 6 5 7 6 128 13 1 0 10 1 5 7 0 5 103 12 1 1 1 3 97 4 1 3 3 42 77 0 6 6 8 97 14 9 2 8 8 40 77 15 1 11 11 8 97 14 9 2 8 8 40 8 78
EIF[ ]	/* EndIf */
NPUSHB[ ]	/* 30 values pushed */
45 45 0 0 62 61 59 57 45 55 45 54 50 48 0 44 0 43 34 18 34 20 36 35 18 34 36 16 8 31
CALL[ ]	/* CallFunction */";
};
width = 901;
}
);
note = ae;
unicode = 230;
},
{
glyphname = b;
kernLeft = b;
kernRight = b;
lastChange = "2025-07-25 13:38:07 +0000";
layers = (
{
layerId = "BF20E584-FC8B-4684-8793-6BFBAEEB9F40";
shapes = (
{
closed = 1;
nodes = (
(483.526,-12,o),
(580,97.958,o),
(580,247,cs),
(580,400.735,o),
(483.134,508,o),
(335,508,cs),
(249.667,508,o),
(189,468.667,o),
(153,414,c),
(153,700,l),
(69,700,l),
(69,0,l),
(145,0,l),
(153,83,l),
(186.333,23,o),
(252.667,-12,o),
(334,-12,cs)
);
},
{
closed = 1;
nodes = (
(226.01,61,o),
(155,136.46,o),
(155,248,cs),
(155,358.667,o),
(223.667,435,o),
(325,435,cs),
(429,435,o),
(495,356,o),
(495,248,cs),
(495,137.333,o),
(426.333,61,o),
(325,61,cs)
);
}
);
userData = {
assembly = "PUSHB[ ]	/* 7 values pushed */
7 2 2 5 4 1 76
MPPEM[ ]	/* MeasurePixelPerEm */
PUSHB[ ]	/* 1 value pushed */
21
LT[ ]	/* LessThan */
IF[ ]	/* If */
NPUSHB[ ]	/* 29 values pushed */
0 1 1 33 77 0 4 4 2 97 0 2 2 42 77 7 1 5 5 0 97 6 3 2 0 0 34 0 78
ELSE[ ]	/* Else */
NPUSHB[ ]	/* 33 values pushed */
0 1 1 33 77 0 4 4 2 97 0 2 2 42 77 0 0 0 34 77 7 1 5 5 3 97 6 1 3 3 40 3 78
EIF[ ]	/* EndIf */
NPUSHB[ ]	/* 20 values pushed */
19 19 0 0 19 31 19 30 25 23 0 18 0 17 35 17 19 8 8 25
CALL[ ]	/* CallFunction */";
};
width = 628;
},
{
layerId = "59E4F189-9048-43B1-80D4-C98F20AC972F";
shapes = (
{
closed = 1;
nodes = (
(473.326,-12,o),
(569,97.053,o),
(569,250,cs),
(569,401.245,o),
(475.625,508,o),
(339,508,cs),
(269.667,508,o),
(208,479.333,o),
(172,426,c),
(172,700,l),
(45,700,l),
(45,0,l),
(173,0,l),
(173,68,l),
(210.333,14.667,o),
(269.667,-12,o),
(339,-12,cs)
);
},
{
closed = 1;
nodes = (
(230.333,100,o),
(173,161.333,o),
(173,248,cs),
(173,334.667,o),
(227.667,396,o),
(305,396,cs),
(379.667,396,o),
(439,339.333,o),
(439,250,cs),
(439,166,o),
(383.667,100,o),
(305,100,cs)
);
}
);
userData = {
assembly = "NPUSHB[ ]	/* 10 values pushed */
7 1 4 2 2 1 0 5 2 76
MPPEM[ ]	/* MeasurePixelPerEm */
PUSHB[ ]	/* 1 value pushed */
21
LT[ ]	/* LessThan */
IF[ ]	/* If */
NPUSHB[ ]	/* 29 values pushed */
0 1 1 33 77 0 4 4 2 97 0 2 2 42 77 7 1 5 5 0 97 6 3 2 0 0 34 0 78
ELSE[ ]	/* Else */
NPUSHB[ ]	/* 33 values pushed */
0 1 1 33 77 0 4 4 2 97 0 2 2 42 77 0 0 0 34 77 7 1 5 5 3 97 6 1 3 3 40 3 78
EIF[ ]	/* EndIf */
NPUSHB[ ]	/* 20 values pushed */
19 19 0 0 19 30 19 29 25 23 0 18 0 17 35 17 19 8 8 25
CALL[ ]	/* CallFunction */";
};
width = 598;
}
);
note = b;
unicode = 98;
},
{
glyphname = c;
kernLeft = c;
kernRight = c;
lastChange = "2025-07-25 13:38:07 +0000";
layers = (
{
anchors = (
{
name = bottom;
pos = (296,0);
},
{
name = top;
pos = (293,496);
}
);
layerId = "BF20E584-FC8B-4684-8793-6BFBAEEB9F40";
shapes = (
{
closed = 1;
nodes = (
(413,-12,o),
(502,55.667,o),
(522,157,c),
(436,157,l),
(422.667,95.667,o),
(366.667,59,o),
(296,59,cs),
(201.399,59,o),
(134,137.561,o),
(134,248,cs),
(134,357.523,o),
(197.503,436,o),
(296,436,cs),
(366.667,436,o),
(422.667,399,o),
(436,339,c),
(522,339,l),
(500.667,441.667,o),
(414.333,508,o),
(297,508,cs),
(155.652,508,o),
(48,406.947,o),
(48,248,cs),
(48,92.892,o),
(153.95,-12,o),
(297,-12,cs)
);
}
);
userData = {
assembly = "NPUSHB[ ]	/* 51 values pushed */
0 1 2 4 2 1 4 128 0 4 3 2 4 3 126 0 2 2 0 97 0 0 0 42 77 0 3 3 5 97 6 1 5 5 40 5 78 0 0 0 29 0 28 18 38 34 18 38 7 8 27
CALL[ ]	/* CallFunction */";
};
width = 570;
},
{
anchors = (
{
name = bottom;
pos = (278,0);
},
{
name = top;
pos = (276,496);
}
);
layerId = "59E4F189-9048-43B1-80D4-C98F20AC972F";
shapes = (
{
closed = 1;
nodes = (
(398,-12,o),
(488.333,54,o),
(515,166,c),
(378,166,l),
(362,120,o),
(328.333,97,o),
(277,97,cs),
(199.667,97,o),
(159,160,o),
(159,248,cs),
(159,336,o),
(199.667,400,o),
(277,400,cs),
(329,400,o),
(364.667,371.333,o),
(378,330,c),
(515,330,l),
(487,446,o),
(399.333,508,o),
(278,508,cs),
(131.329,508,o),
(29,405.045,o),
(29,248,cs),
(29,89.079,o),
(133.29,-12,o),
(278,-12,cs)
);
}
);
userData = {
assembly = "NPUSHB[ ]	/* 51 values pushed */
0 1 2 4 2 1 4 128 0 4 3 2 4 3 126 0 2 2 0 97 0 0 0 42 77 0 3 3 5 97 6 1 5 5 40 5 78 0 0 0 26 0 25 17 36 34 18 38 7 8 27
CALL[ ]	/* CallFunction */";
};
width = 544;
}
);
note = c;
unicode = 99;
},
{
glyphname = ccedilla;
lastChange = "2025-07-25 13:40:37 +0000";
layers = (
{
anchors = (
{
name = bottom;
pos = (296,-259);
},
{
name = top;
pos = (293,496);
}
);
layerId = "BF20E584-FC8B-4684-8793-6BFBAEEB9F40";
shapes = (
{
closed = 1;
nodes = (
(329,-259,ls),
(401,-259,o),
(450,-220,o),
(450,-159,cs),
(450,-96,o),
(400,-62,o),
(321,-63,c),
(321,-11,l),
(425,-2,o),
(503,64,o),
(522,157,c),
(436,157,l),
(423,96,o),
(367,59,o),
(296,59,cs),
(201,59,o),
(134,138,o),
(134,248,cs),
(134,358,o),
(198,436,o),
(296,436,cs),
(367,436,o),
(423,399,o),
(436,339,c),
(522,339,l),
(501,442,o),
(414,508,o),
(297,508,cs),
(156,508,o),
(48,407,o),
(48,248,cs),
(48,105,o),
(139,4,o),
(265,-10,c),
(265,-113,l),
(314,-113,ls),
(359,-113,o),
(382,-128,o),
(382,-158,cs),
(382,-190,o),
(359,-206,o),
(314,-206,cs),
(222,-206,l),
(222,-259,l)
);
}
);
userData = {
assembly = "PUSHB[ ]	/* 7 values pushed */
37 7 2 7 5 1 76
MPPEM[ ]	/* MeasurePixelPerEm */
PUSHB[ ]	/* 1 value pushed */
11
LT[ ]	/* LessThan */
IF[ ]	/* If */
NPUSHB[ ]	/* 47 values pushed */
0 3 4 6 4 3 6 128 0 6 5 4 6 5 126 0 5 7 7 5 112 0 7 0 1 0 7 1 106 0 0 0 8 0 8 99 0 4 4 2 97 0 2 2 42 4 78
ELSE[ ]	/* Else */
NPUSHB[ ]	/* 48 values pushed */
0 3 4 6 4 3 6 128 0 6 5 4 6 5 126 0 5 7 4 5 7 126 0 7 0 1 0 7 1 106 0 0 0 8 0 8 99 0 4 4 2 97 0 2 2 42 4 78
EIF[ ]	/* EndIf */
NPUSHB[ ]	/* 12 values pushed */
36 20 18 38 34 18 40 34 32 9 8 31
CALL[ ]	/* CallFunction */";
};
width = 570;
},
{
anchors = (
{
name = bottom;
pos = (278,-263);
},
{
name = top;
pos = (276,496);
}
);
layerId = "59E4F189-9048-43B1-80D4-C98F20AC972F";
shapes = (
{
closed = 1;
nodes = (
(315,-263,ls),
(388,-263,o),
(445,-224,o),
(445,-155,cs),
(445,-86,o),
(390,-47,o),
(315,-50,c),
(315,-10,l),
(416,2,o),
(491,66,o),
(515,166,c),
(378,166,l),
(362,120,o),
(328,97,o),
(277,97,cs),
(200,97,o),
(159,160,o),
(159,248,cs),
(159,336,o),
(200,400,o),
(277,400,cs),
(329,400,o),
(365,371,o),
(378,330,c),
(515,330,l),
(487,446,o),
(399,508,o),
(278,508,cs),
(131,508,o),
(29,405,o),
(29,248,cs),
(29,111,o),
(110,10,o),
(235,-9,c),
(235,-118,l),
(296,-118,ls),
(331,-118,o),
(349,-130,o),
(349,-153,cs),
(349,-177,o),
(331,-189,o),
(296,-189,cs),
(184,-189,l),
(184,-263,l)
);
}
);
userData = {
assembly = "PUSHB[ ]	/* 7 values pushed */
33 7 2 7 5 1 76
MPPEM[ ]	/* MeasurePixelPerEm */
PUSHB[ ]	/* 1 value pushed */
9
LT[ ]	/* LessThan */
IF[ ]	/* If */
NPUSHB[ ]	/* 47 values pushed */
0 3 4 6 4 3 6 128 0 6 5 4 6 5 126 0 5 7 7 5 112 0 7 0 1 0 7 1 106 0 0 0 8 0 8 99 0 4 4 2 97 0 2 2 42 4 78
ELSE[ ]	/* Else */
NPUSHB[ ]	/* 48 values pushed */
0 3 4 6 4 3 6 128 0 6 5 4 6 5 126 0 5 7 4 5 7 126 0 7 0 1 0 7 1 106 0 0 0 8 0 8 99 0 4 4 2 97 0 2 2 42 4 78
EIF[ ]	/* EndIf */
NPUSHB[ ]	/* 12 values pushed */
36 20 17 36 34 18 39 34 32 9 8 31
CALL[ ]	/* CallFunction */";
};
width = 544;
}
);
note = ccedilla;
unicode = 231;
},
{
glyphname = d;
kernLeft = c;
lastChange = "2025-07-25 13:47:15 +0000";
layers = (
{
anchors = (
{
name = bottom;
pos = (314,0);
},
{
name = top;
pos = (314,992);
},
{
name = topright;
pos = (608,992);
}
);
layerId = "BF20E584-FC8B-4684-8793-6BFBAEEB9F40";
shapes = (
{
closed = 1;
nodes = (
(378,-12,o),
(440,27,o),
(476,82,c),
(484,0,l),
(560,0,l),
(560,700,l),
(476,700,l),
(476,413,l),
(441,473,o),
(375,508,o),
(295,508,cs),
(144,508,o),
(48,401,o),
(48,249,cs),
(48,96,o),
(148,-12,o),
(294,-12,cs)
);
},
{
closed = 1;
nodes = (
(210,61,o),
(134,130,o),
(134,248,cs),
(134,361,o),
(205,435,o),
(303,435,cs),
(408,435,o),
(473,357,o),
(473,248,cs),
(473,140,o),
(410,61,o),
(303,61,cs)
);
}
);
userData = {
assembly = "PUSHB[ ]	/* 7 values pushed */
15 10 2 5 4 1 76
MPPEM[ ]	/* MeasurePixelPerEm */
PUSHB[ ]	/* 1 value pushed */
21
LT[ ]	/* LessThan */
IF[ ]	/* If */
NPUSHB[ ]	/* 29 values pushed */
0 1 1 33 77 0 4 4 0 97 0 0 0 42 77 7 1 5 5 2 97 6 3 2 2 2 34 2 78
ELSE[ ]	/* Else */
NPUSHB[ ]	/* 33 values pushed */
0 1 1 33 77 0 4 4 0 97 0 0 0 42 77 0 2 2 34 77 7 1 5 5 3 97 6 1 3 3 40 3 78
EIF[ ]	/* EndIf */
NPUSHB[ ]	/* 20 values pushed */
19 19 0 0 19 32 19 31 25 23 0 18 0 17 17 19 38 8 8 25
CALL[ ]	/* CallFunction */";
};
width = 628;
},
{
anchors = (
{
name = bottom;
pos = (299,0);
},
{
name = top;
pos = (299,992);
},
{
name = topright;
pos = (578,992);
}
);
layerId = "59E4F189-9048-43B1-80D4-C98F20AC972F";
shapes = (
{
closed = 1;
nodes = (
(327,-12,o),
(392,18,o),
(424,71,c),
(424,0,l),
(553,0,l),
(553,700,l),
(424,700,l),
(424,430,l),
(384,479,o),
(323,508,o),
(259,508,cs),
(124,508,o),
(29,399,o),
(29,250,cs),
(29,97,o),
(122,-12,o),
(259,-12,cs)
);
},
{
closed = 1;
nodes = (
(216,100,o),
(159,165,o),
(159,250,cs),
(159,335,o),
(214,396,o),
(291,396,cs),
(369,396,o),
(425,337,o),
(425,248,cs),
(425,161,o),
(371,100,o),
(292,100,cs)
);
}
);
userData = {
assembly = "NPUSHB[ ]	/* 10 values pushed */
10 1 4 0 15 1 2 5 2 76
MPPEM[ ]	/* MeasurePixelPerEm */
PUSHB[ ]	/* 1 value pushed */
21
LT[ ]	/* LessThan */
IF[ ]	/* If */
NPUSHB[ ]	/* 29 values pushed */
0 1 1 33 77 0 4 4 0 97 0 0 0 42 77 7 1 5 5 2 97 6 3 2 2 2 34 2 78
ELSE[ ]	/* Else */
NPUSHB[ ]	/* 33 values pushed */
0 1 1 33 77 0 4 4 0 97 0 0 0 42 77 0 2 2 34 77 7 1 5 5 3 97 6 1 3 3 40 3 78
EIF[ ]	/* EndIf */
NPUSHB[ ]	/* 20 values pushed */
19 19 0 0 19 31 19 30 26 24 0 18 0 17 17 19 38 8 8 25
CALL[ ]	/* CallFunction */";
};
width = 598;
}
);
note = d;
unicode = 100;
},
{
glyphname = dcroat;
kernLeft = c;
lastChange = "2025-07-25 13:47:17 +0000";
layers = (
{
layerId = "BF20E584-FC8B-4684-8793-6BFBAEEB9F40";
shapes = (
{
closed = 1;
nodes = (
(378,-12,o),
(440,27,o),
(476,82,c),
(484,0,l),
(560,0,l),
(560,571,l),
(607,571,l),
(607,634,l),
(560,634,l),
(560,700,l),
(476,700,l),
(476,634,l),
(305,634,l),
(305,571,l),
(476,571,l),
(476,413,l),
(441,473,o),
(375,508,o),
(295,508,cs),
(144,508,o),
(48,401,o),
(48,249,cs),
(48,96,o),
(148,-12,o),
(294,-12,cs)
);
},
{
closed = 1;
nodes = (
(210,61,o),
(134,130,o),
(134,248,cs),
(134,361,o),
(205,435,o),
(303,435,cs),
(408,435,o),
(473,357,o),
(473,248,cs),
(473,140,o),
(410,61,o),
(303,61,cs)
);
}
);
userData = {
assembly = "PUSHB[ ]	/* 7 values pushed */
23 10 2 8 9 1 76
MPPEM[ ]	/* MeasurePixelPerEm */
PUSHB[ ]	/* 1 value pushed */
21
LT[ ]	/* LessThan */
IF[ ]	/* If */
NPUSHB[ ]	/* 38 values pushed */
4 1 2 5 1 1 0 2 1 103 0 3 3 33 77 0 9 9 0 97 0 0 0 42 77 0 8 8 6 97 10 7 2 6 6 34 6 78
ELSE[ ]	/* Else */
NPUSHB[ ]	/* 42 values pushed */
4 1 2 5 1 1 0 2 1 103 0 3 3 33 77 0 9 9 0 97 0 0 0 42 77 0 6 6 34 77 0 8 8 7 97 10 1 7 7 40 7 78
EIF[ ]	/* EndIf */
NPUSHB[ ]	/* 20 values pushed */
0 0 37 35 31 29 0 26 0 25 17 17 17 17 17 19 38 11 8 29
CALL[ ]	/* CallFunction */";
};
width = 629;
},
{
layerId = "59E4F189-9048-43B1-80D4-C98F20AC972F";
shapes = (
{
closed = 1;
nodes = (
(327,-12,o),
(392,18,o),
(424,71,c),
(424,0,l),
(553,0,l),
(553,558,l),
(592,558,l),
(592,648,l),
(553,648,l),
(553,700,l),
(424,700,l),
(424,648,l),
(269,648,l),
(269,558,l),
(424,558,l),
(424,430,l),
(384,479,o),
(323,508,o),
(259,508,cs),
(124,508,o),
(29,399,o),
(29,250,cs),
(29,97,o),
(122,-12,o),
(259,-12,cs)
);
},
{
closed = 1;
nodes = (
(216,100,o),
(159,165,o),
(159,250,cs),
(159,335,o),
(214,396,o),
(291,396,cs),
(369,396,o),
(425,337,o),
(425,248,cs),
(425,161,o),
(371,100,o),
(292,100,cs)
);
}
);
userData = {
assembly = "NPUSHB[ ]	/* 10 values pushed */
10 1 9 0 23 1 6 8 2 76
MPPEM[ ]	/* MeasurePixelPerEm */
PUSHB[ ]	/* 1 value pushed */
21
LT[ ]	/* LessThan */
IF[ ]	/* If */
NPUSHB[ ]	/* 38 values pushed */
4 1 2 5 1 1 0 2 1 103 0 3 3 33 77 0 9 9 0 97 0 0 0 42 77 0 8 8 6 97 10 7 2 6 6 34 6 78
ELSE[ ]	/* Else */
NPUSHB[ ]	/* 42 values pushed */
4 1 2 5 1 1 0 2 1 103 0 3 3 33 77 0 9 9 0 97 0 0 0 42 77 0 6 6 34 77 0 8 8 7 97 10 1 7 7 40 7 78
EIF[ ]	/* EndIf */
NPUSHB[ ]	/* 20 values pushed */
0 0 37 35 30 28 0 26 0 25 17 17 17 17 17 19 38 11 8 29
CALL[ ]	/* CallFunction */";
};
width = 598;
}
);
note = dcroat;
unicode = 273;
},
{
glyphname = eth;
kernLeft = c;
lastChange = "2025-07-25 13:47:23 +0000";
layers = (
{
layerId = "BF20E584-FC8B-4684-8793-6BFBAEEB9F40";
shapes = (
{
closed = 1;
nodes = (
(361,-12,o),
(406,0,o),
(447,24,cs),
(528,73,o),
(578,163,o),
(578,272,cs),
(578,403,o),
(535,518,o),
(449,619,c),
(539,651,l),
(539,708,l),
(408,663,l),
(394,677,o),
(380,689,o),
(367,700,c),
(283,700,l),
(308,679,o),
(329,660,o),
(347,641,c),
(252,608,l),
(252,551,l),
(386,598,l),
(429,545,o),
(462,488,o),
(483,429,c),
(440,482,o),
(374,507,o),
(305,507,cs),
(258,507,o),
(214,496,o),
(175,474,cs),
(96,429,o),
(48,346,o),
(48,247,cs),
(48,199,o),
(59,156,o),
(82,117,cs),
(129,37,o),
(210,-12,o),
(311,-12,cs)
);
},
{
closed = 1;
nodes = (
(215,59,o),
(134,135,o),
(134,248,cs),
(134,352,o),
(207,436,o),
(313,436,cs),
(407,436,o),
(492,365,o),
(492,248,cs),
(492,143,o),
(418,59,o),
(313,59,cs)
);
}
);
userData = {
assembly = "NPUSHB[ ]	/* 67 values pushed */
25 24 22 17 16 15 14 7 0 1 12 1 4 3 2 76 23 1 1 74 0 1 1 33 77 0 3 3 0 97 0 0 0 42 77 6 1 4 4 2 97 5 1 2 2 40 2 78 33 33 0 0 33 48 33 47 41 39 0 32 0 31 25 40 7 8 24
CALL[ ]	/* CallFunction */";
};
width = 626;
},
{
layerId = "59E4F189-9048-43B1-80D4-C98F20AC972F";
shapes = (
{
closed = 1;
nodes = (
(351,-12,o),
(398,0,o),
(439,25,cs),
(524,76,o),
(576,169,o),
(576,289,cs),
(576,397,o),
(538,512,o),
(465,609,c),
(535,632,l),
(535,709,l),
(413,669,l),
(402,679,o),
(391,690,o),
(380,700,c),
(259,700,l),
(284,679,o),
(304,658,o),
(321,639,c),
(244,614,l),
(244,537,l),
(370,578,l),
(398,536,o),
(419,495,o),
(434,456,c),
(392,487,o),
(344,503,o),
(290,503,cs),
(241,503,o),
(196,492,o),
(157,470,cs),
(77,425,o),
(29,343,o),
(29,246,cs),
(29,198,o),
(41,154,o),
(64,115,cs),
(111,36,o),
(196,-12,o),
(299,-12,cs)
);
},
{
closed = 1;
nodes = (
(222,99,o),
(161,164,o),
(161,249,cs),
(161,334,o),
(219,395,o),
(302,395,cs),
(388,395,o),
(446,335,o),
(446,247,cs),
(446,160,o),
(388,99,o),
(303,99,cs)
);
}
);
userData = {
assembly = "NPUSHB[ ]	/* 67 values pushed */
23 22 20 16 15 14 13 7 0 1 11 1 3 0 2 76 21 1 1 74 0 1 1 33 77 0 3 3 0 97 0 0 0 42 77 6 1 4 4 2 97 5 1 2 2 40 2 78 32 32 0 0 32 44 32 43 39 37 0 31 0 30 24 40 7 8 24
CALL[ ]	/* CallFunction */";
};
width = 605;
}
);
note = eth;
unicode = 240;
},
{
glyphname = e;
kernLeft = c;
kernRight = ae;
lastChange = "2025-07-25 13:47:30 +0000";
layers = (
{
anchors = (
{
name = bottom;
pos = (292,0);
},
{
name = ogonek;
pos = (397,10);
},
{
name = top;
pos = (289,496);
}
);
layerId = "BF20E584-FC8B-4684-8793-6BFBAEEB9F40";
shapes = (
{
closed = 1;
nodes = (
(405,-12,o),
(485,52,o),
(513,148,c),
(430,148,l),
(409,92,o),
(360,59,o),
(292,59,cs),
(201,59,o),
(136,130,o),
(131,229,c),
(526,229,l),
(526,245,o),
(527,260,o),
(527,276,cs),
(527,411,o),
(429,508,o),
(294,508,cs),
(146,508,o),
(48,404,o),
(48,248,cs),
(48,94,o),
(149,-12,o),
(292,-12,cs)
);
},
{
closed = 1;
nodes = (
(141,383,o),
(208,437,o),
(292,437,cs),
(377,437,o),
(440,382,o),
(444,294,c),
(132,294,l)
);
}
);
userData = {
assembly = "NPUSHB[ ]	/* 55 values pushed */
0 3 1 2 1 3 2 128 0 6 0 1 3 6 1 103 0 5 5 0 97 0 0 0 42 77 0 2 2 4 97 7 1 4 4 40 4 78 0 0 30 29 27 25 0 23 0 22 18 34 20 38 8 8 26
CALL[ ]	/* CallFunction */";
};
width = 569;
},
{
anchors = (
{
name = bottom;
pos = (277,0);
},
{
name = ogonek;
pos = (388,10);
},
{
name = top;
pos = (277,496);
}
);
layerId = "59E4F189-9048-43B1-80D4-C98F20AC972F";
shapes = (
{
closed = 1;
nodes = (
(403,-12,o),
(486,58,o),
(517,154,c),
(380,154,l),
(360,113,o),
(326,93,o),
(279,93,cs),
(211,93,o),
(165,139,o),
(158,210,c),
(526,210,l),
(529,223,o),
(530,240,o),
(530,259,cs),
(530,400,o),
(434,508,o),
(282,508,cs),
(134,508,o),
(29,409,o),
(29,248,cs),
(29,91,o),
(134,-12,o),
(282,-12,cs)
);
},
{
closed = 1;
nodes = (
(170,367,o),
(218,403,o),
(278,403,cs),
(345,403,o),
(397,360,o),
(398,295,c),
(159,295,l)
);
}
);
userData = {
assembly = "NPUSHB[ ]	/* 55 values pushed */
0 3 1 2 1 3 2 128 0 6 0 1 3 6 1 103 0 5 5 0 97 0 0 0 42 77 0 2 2 4 97 7 1 4 4 40 4 78 0 0 30 29 27 25 0 23 0 22 17 34 21 38 8 8 26
CALL[ ]	/* CallFunction */";
};
width = 553;
}
);
note = e;
unicode = 101;
},
{
glyphname = eogonek;
kernLeft = c;
kernRight = ae;
lastChange = "2025-07-25 13:47:32 +0000";
layers = (
{
anchors = (
{
name = bottom;
pos = (292,0);
},
{
name = ogonek;
pos = (397,10);
},
{
name = top;
pos = (289,496);
}
);
layerId = "BF20E584-FC8B-4684-8793-6BFBAEEB9F40";
shapes = (
{
closed = 1;
nodes = (
(351,-193,o),
(376,-189,o),
(400,-180,c),
(400,-124,l),
(377,-134,o),
(356,-139,o),
(335,-139,cs),
(299,-139,o),
(275,-121,o),
(275,-90,cs),
(275,-63,o),
(296,-39,o),
(339,-18,cs),
(392,7,ls),
(452,34,o),
(494,84,o),
(513,148,c),
(430,148,l),
(409,92,o),
(360,59,o),
(292,59,cs),
(201,59,o),
(136,130,o),
(131,229,c),
(526,229,l),
(526,245,o),
(527,260,o),
(527,276,cs),
(527,411,o),
(429,508,o),
(294,508,cs),
(146,508,o),
(48,404,o),
(48,248,cs),
(48,105,o),
(134,7,o),
(255,-9,c),
(223,-34,o),
(207,-64,o),
(207,-98,cs),
(207,-161,o),
(258,-193,o),
(325,-193,cs)
);
},
{
closed = 1;
nodes = (
(141,383,o),
(208,437,o),
(292,437,cs),
(377,437,o),
(440,382,o),
(444,294,c),
(132,294,l)
);
}
);
userData = {
assembly = "NPUSHB[ ]	/* 69 values pushed */
43 11 2 6 4 44 1 7 6 2 76 0 5 3 4 3 5 4 128 0 4 6 3 4 6 126 0 1 0 3 5 1 3 103 0 6 8 1 7 6 7 102 0 0 0 2 97 0 2 2 42 0 78 7 7 7 46 7 45 40 18 34 20 44 18 33 9 8 29
CALL[ ]	/* CallFunction */";
};
width = 569;
},
{
anchors = (
{
name = bottom;
pos = (277,0);
},
{
name = ogonek;
pos = (388,10);
},
{
name = top;
pos = (277,496);
}
);
layerId = "59E4F189-9048-43B1-80D4-C98F20AC972F";
shapes = (
{
closed = 1;
nodes = (
(335,-200,o),
(364,-195,o),
(393,-186,c),
(393,-110,l),
(367,-120,o),
(343,-125,o),
(322,-125,cs),
(290,-125,o),
(270,-109,o),
(270,-84,cs),
(270,-60,o),
(289,-40,o),
(336,-16,cs),
(377,4,l),
(448,31,o),
(496,87,o),
(517,154,c),
(380,154,l),
(360,113,o),
(326,93,o),
(279,93,cs),
(211,93,o),
(165,139,o),
(158,210,c),
(526,210,l),
(529,223,o),
(530,240,o),
(530,259,cs),
(530,400,o),
(434,508,o),
(282,508,cs),
(134,508,o),
(29,409,o),
(29,248,cs),
(29,119,o),
(100,20,o),
(219,-5,c),
(188,-31,o),
(173,-61,o),
(173,-96,cs),
(173,-164,o),
(229,-200,o),
(306,-200,cs)
);
},
{
closed = 1;
nodes = (
(170,367,o),
(218,403,o),
(278,403,cs),
(345,403,o),
(397,360,o),
(398,295,c),
(159,295,l)
);
}
);
userData = {
assembly = "NPUSHB[ ]	/* 11 values pushed */
43 11 2 6 4 44 1 7 6 2 76
MPPEM[ ]	/* MeasurePixelPerEm */
PUSHB[ ]	/* 1 value pushed */
25
LT[ ]	/* LessThan */
IF[ ]	/* If */
NPUSHB[ ]	/* 45 values pushed */
0 5 3 4 3 5 4 128 0 4 6 3 4 6 126 0 1 0 3 5 1 3 103 0 0 0 2 97 0 2 2 42 77 0 6 6 7 98 8 1 7 7 38 7 78
ELSE[ ]	/* Else */
NPUSHB[ ]	/* 42 values pushed */
0 5 3 4 3 5 4 128 0 4 6 3 4 6 126 0 1 0 3 5 1 3 103 0 6 8 1 7 6 7 102 0 0 0 2 97 0 2 2 42 0 78
EIF[ ]	/* EndIf */
NPUSHB[ ]	/* 16 values pushed */
7 7 7 46 7 45 41 17 34 21 43 18 33 9 8 29
CALL[ ]	/* CallFunction */";
};
width = 553;
}
);
note = eogonek;
unicode = 281;
},
{
glyphname = schwa;
kernLeft = c;
kernRight = b;
lastChange = "2025-07-25 14:43:36 +0000";
layers = (
{
layerId = "BF20E584-FC8B-4684-8793-6BFBAEEB9F40";
shapes = (
{
closed = 1;
nodes = (
(416,-12,o),
(521,89,o),
(521,248,cs),
(521,405,o),
(420,508,o),
(277,508,cs),
(164,508,o),
(84,444,o),
(56,348,c),
(139,348,l),
(160,404,o),
(209,437,o),
(277,437,cs),
(368,437,o),
(433,368,o),
(438,267,c),
(43,267,l),
(43,251,o),
(42,236,o),
(42,220,cs),
(42,85,o),
(140,-12,o),
(275,-12,cs)
);
},
{
closed = 1;
nodes = (
(192,59,o),
(129,114,o),
(125,202,c),
(437,202,l),
(428,113,o),
(361,59,o),
(277,59,cs)
);
}
);
userData = {
assembly = "NPUSHB[ ]	/* 60 values pushed */
0 2 1 0 1 2 0 128 0 0 0 5 6 0 5 103 0 1 1 3 97 0 3 3 42 77 8 1 6 6 4 97 7 1 4 4 40 4 78 24 24 0 0 24 30 24 29 27 26 0 23 0 22 34 18 34 20 9 8 26
CALL[ ]	/* CallFunction */";
};
width = 569;
},
{
layerId = "59E4F189-9048-43B1-80D4-C98F20AC972F";
shapes = (
{
closed = 1;
nodes = (
(419,-12,o),
(524,87,o),
(524,248,cs),
(524,405,o),
(419,508,o),
(271,508,cs),
(150,508,o),
(67,438,o),
(36,342,c),
(173,342,l),
(193,383,o),
(227,403,o),
(274,403,cs),
(342,403,o),
(388,357,o),
(395,286,c),
(27,286,l),
(24,273,o),
(23,256,o),
(23,237,cs),
(23,96,o),
(119,-12,o),
(271,-12,cs)
);
},
{
closed = 1;
nodes = (
(208,93,o),
(156,136,o),
(155,201,c),
(394,201,l),
(383,129,o),
(335,93,o),
(275,93,cs)
);
}
);
userData = {
assembly = "NPUSHB[ ]	/* 60 values pushed */
0 2 1 0 1 2 0 128 0 0 0 5 6 0 5 103 0 1 1 3 97 0 3 3 42 77 8 1 6 6 4 97 7 1 4 4 40 4 78 24 24 0 0 24 30 24 29 27 26 0 23 0 22 34 17 34 21 9 8 26
CALL[ ]	/* CallFunction */";
};
width = 553;
}
);
note = uni0259;
unicode = 601;
},
{
glyphname = f;
kernLeft = f;
kernRight = f;
lastChange = "2025-07-25 13:40:37 +0000";
layers = (
{
layerId = "BF20E584-FC8B-4684-8793-6BFBAEEB9F40";
shapes = (
{
closed = 1;
nodes = (
(180,0,l),
(180,425,l),
(302,425,l),
(302,496,l),
(180,496,l),
(180,560,ls),
(180,609,o),
(199,628,o),
(250,628,cs),
(287,628,l),
(287,700,l),
(237,700,ls),
(144,700,o),
(96,657,o),
(96,562,cs),
(96,496,l),
(21,496,l),
(21,425,l),
(96,425,l),
(96,0,l)
);
}
);
userData = {
assembly = "NPUSHB[ ]	/* 38 values pushed */
0 3 3 2 97 0 2 2 33 77 5 1 0 0 1 95 4 1 1 1 36 77 0 6 6 34 6 78 17 17 19 33 35 17 16 7 8 29
CALL[ ]	/* CallFunction */";
};
width = 333;
},
{
layerId = "59E4F189-9048-43B1-80D4-C98F20AC972F";
shapes = (
{
closed = 1;
nodes = (
(186,0,l),
(186,389,l),
(275,389,l),
(275,496,l),
(186,496,l),
(186,534,ls),
(186,575,o),
(203,591,o),
(247,591,cs),
(269,591,l),
(269,700,l),
(227,700,ls),
(114,700,o),
(58,645,o),
(58,534,cs),
(58,496,l),
(0,496,l),
(0,389,l),
(58,389,l),
(58,0,l)
);
}
);
userData = {
assembly = "NPUSHB[ ]	/* 38 values pushed */
0 3 3 2 97 0 2 2 33 77 5 1 0 0 1 95 4 1 1 1 36 77 0 6 6 34 6 78 17 17 19 33 34 17 16 7 8 29
CALL[ ]	/* CallFunction */";
};
width = 309;
}
);
note = f;
unicode = 102;
},
{
glyphname = g;
kernLeft = g;
kernRight = g;
lastChange = "2025-07-25 13:38:07 +0000";
layers = (
{
anchors = (
{
name = bottom;
pos = (264,-310);
},
{
name = top;
pos = (254,496);
}
);
layerId = "BF20E584-FC8B-4684-8793-6BFBAEEB9F40";
shapes = (
{
closed = 1;
nodes = (
(393.061,-232,o),
(490,-167.778,o),
(490,-61,cs),
(490,39,o),
(426.333,89,o),
(299,89,cs),
(216,89,ls),
(160,89,o),
(132,105.667,o),
(132,139,cs),
(132,156.333,o),
(142,171,o),
(158,179,c),
(188.667,163.667,o),
(221,156,o),
(255,156,cs),
(368.333,156,o),
(452,221.333,o),
(452,332,cs),
(452,366.667,o),
(443.333,397.667,o),
(426,425,c),
(503,425,l),
(503,496,l),
(334,496,l),
(309.333,504,o),
(283,508,o),
(255,508,cs),
(139,508,o),
(58,440,o),
(58,332,cs),
(58,287.333,o),
(72.333,249,o),
(101,217,c),
(65,192.333,o),
(47,160,o),
(47,120,cs),
(47,85.333,o),
(67.667,55.667,o),
(101,37,c),
(55,16.333,o),
(32,-20,o),
(32,-72,cs),
(32,-182.667,o),
(132.667,-232,o),
(266,-232,cs)
);
},
{
closed = 1;
nodes = (
(176,-162,o),
(114,-133.667,o),
(114,-71,cs),
(114,-15,o),
(152.333,15,o),
(219,15,cs),
(304,15,ls),
(373.333,15,o),
(408,-13.667,o),
(408,-71,cs),
(408,-129.667,o),
(348,-162,o),
(264,-162,cs)
);
},
{
closed = 1;
nodes = (
(182.333,226,o),
(138,269.333,o),
(138,332,cs),
(138,393.333,o),
(183.667,438,o),
(253,438,cs),
(322.333,438,o),
(371,393.333,o),
(371,332,cs),
(371,270.667,o),
(322.333,226,o),
(253,226,cs)
);
}
);
userData = {
assembly = "NPUSHB[ ]	/* 11 values pushed */
26 9 2 3 9 4 1 6 4 2 76
MPPEM[ ]	/* MeasurePixelPerEm */
PUSHB[ ]	/* 1 value pushed */
19
LT[ ]	/* LessThan */
IF[ ]	/* If */
NPUSHB[ ]	/* 44 values pushed */
12 1 9 0 3 4 9 3 105 8 1 2 2 0 97 1 1 0 0 42 77 0 4 4 6 95 0 6 6 34 77 11 1 7 7 5 97 10 1 5 5 38 5 78
ELSE[ ]	/* Else */
MPPEM[ ]	/* MeasurePixelPerEm */
PUSHB[ ]	/* 1 value pushed */
21
LT[ ]	/* LessThan */
IF[ ]	/* If */
NPUSHB[ ]	/* 54 values pushed */
12 1 9 0 3 4 9 3 105 0 8 8 0 97 1 1 0 0 42 77 0 2 2 0 97 1 1 0 0 42 77 0 4 4 6 95 0 6 6 34 77 11 1 7 7 5 97 10 1 5 5 38 5 78
ELSE[ ]	/* Else */
MPPEM[ ]	/* MeasurePixelPerEm */
PUSHB[ ]	/* 1 value pushed */
33
LT[ ]	/* LessThan */
IF[ ]	/* If */
NPUSHB[ ]	/* 52 values pushed */
12 1 9 0 3 4 9 3 105 0 8 8 0 97 0 0 0 42 77 0 2 2 1 95 0 1 1 36 77 0 4 4 6 95 0 6 6 34 77 11 1 7 7 5 97 10 1 5 5 38 5 78
ELSE[ ]	/* Else */
MPPEM[ ]	/* MeasurePixelPerEm */
PUSHB[ ]	/* 1 value pushed */
41
LT[ ]	/* LessThan */
IF[ ]	/* If */
NPUSHB[ ]	/* 50 values pushed */
12 1 9 0 3 4 9 3 105 0 4 0 6 7 4 6 103 0 8 8 0 97 0 0 0 42 77 0 2 2 1 95 0 1 1 36 77 11 1 7 7 5 97 10 1 5 5 38 5 78
ELSE[ ]	/* Else */
NPUSHB[ ]	/* 47 values pushed */
12 1 9 0 3 4 9 3 105 0 4 0 6 7 4 6 103 11 1 7 10 1 5 7 5 101 0 8 8 0 97 0 0 0 42 77 0 2 2 1 95 0 1 1 36 2 78
EIF[ ]	/* EndIf */
EIF[ ]	/* EndIf */
EIF[ ]	/* EndIf */
EIF[ ]	/* EndIf */
NPUSHB[ ]	/* 30 values pushed */
51 51 39 39 0 0 51 62 51 61 57 55 39 50 39 49 45 42 0 38 0 37 53 36 17 17 45 13 8 27
CALL[ ]	/* CallFunction */";
};
width = 529;
},
{
anchors = (
{
name = bottom;
pos = (264,-310);
},
{
name = top;
pos = (253,496);
}
);
layerId = "59E4F189-9048-43B1-80D4-C98F20AC972F";
shapes = (
{
closed = 1;
nodes = (
(400.257,-232,o),
(497,-164.25,o),
(497,-63,cs),
(497,42.333,o),
(430.667,94,o),
(308,94,cs),
(217,94,ls),
(167.667,94,o),
(144,107.333,o),
(144,138,cs),
(144,152.667,o),
(152.667,166.333,o),
(166,173,c),
(189.333,160.333,o),
(218.333,154,o),
(253,154,cs),
(369.289,154,o),
(456,226.926,o),
(456,331,cs),
(456,348.333,o),
(451,371.333,o),
(441,400,c),
(510,400,l),
(510,496,l),
(332,496,l),
(308,504,o),
(281.667,508,o),
(253,508,cs),
(133,508,o),
(50,437.667,o),
(50,331,cs),
(50,288.333,o),
(66.667,247.667,o),
(96,217,c),
(56,194.333,o),
(34,157.667,o),
(34,115,cs),
(34,74.333,o),
(51.333,44,o),
(86,24,c),
(44.667,-2.667,o),
(25,-34.333,o),
(25,-81,cs),
(25,-185,o),
(118.667,-232,o),
(264,-232,cs)
);
},
{
closed = 1;
nodes = (
(192,-132,o),
(142,-112.667,o),
(142,-70,cs),
(142,-31.333,o),
(171.667,-11,o),
(225,-11,cs),
(297,-11,ls),
(351.667,-11,o),
(379,-30.667,o),
(379,-70,cs),
(379,-110,o),
(332,-132,o),
(264,-132,cs)
);
},
{
closed = 1;
nodes = (
(200,254,o),
(167,284.333,o),
(167,331,cs),
(167,375,o),
(201.333,408,o),
(252,408,cs),
(302.667,408,o),
(339,375,o),
(339,331,cs),
(339,285.667,o),
(302.667,254,o),
(252,254,cs)
);
}
);
userData = {
assembly = "NPUSHB[ ]	/* 11 values pushed */
29 10 2 3 9 5 1 6 4 2 76
MPPEM[ ]	/* MeasurePixelPerEm */
PUSHB[ ]	/* 1 value pushed */
21
LT[ ]	/* LessThan */
IF[ ]	/* If */
NPUSHB[ ]	/* 44 values pushed */
12 1 9 0 3 4 9 3 105 8 1 2 2 0 97 1 1 0 0 42 77 0 4 4 6 95 0 6 6 34 77 11 1 7 7 5 97 10 1 5 5 38 5 78
ELSE[ ]	/* Else */
MPPEM[ ]	/* MeasurePixelPerEm */
PUSHB[ ]	/* 1 value pushed */
29
LT[ ]	/* LessThan */
IF[ ]	/* If */
NPUSHB[ ]	/* 54 values pushed */
12 1 9 0 3 4 9 3 105 8 1 2 2 0 97 0 0 0 42 77 8 1 2 2 1 95 0 1 1 36 77 0 4 4 6 95 0 6 6 34 77 11 1 7 7 5 97 10 1 5 5 38 5 78
ELSE[ ]	/* Else */
MPPEM[ ]	/* MeasurePixelPerEm */
PUSHB[ ]	/* 1 value pushed */
41
LT[ ]	/* LessThan */
IF[ ]	/* If */
NPUSHB[ ]	/* 52 values pushed */
12 1 9 0 3 4 9 3 105 0 8 8 0 97 0 0 0 42 77 0 2 2 1 95 0 1 1 36 77 0 4 4 6 95 0 6 6 34 77 11 1 7 7 5 97 10 1 5 5 38 5 78
ELSE[ ]	/* Else */
MPPEM[ ]	/* MeasurePixelPerEm */
PUSHB[ ]	/* 1 value pushed */
45
LT[ ]	/* LessThan */
IF[ ]	/* If */
NPUSHB[ ]	/* 49 values pushed */
12 1 9 0 3 4 9 3 105 11 1 7 10 1 5 7 5 101 0 8 8 0 97 0 0 0 42 77 0 2 2 1 95 0 1 1 36 77 0 4 4 6 95 0 6 6 34 6 78
ELSE[ ]	/* Else */
NPUSHB[ ]	/* 47 values pushed */
12 1 9 0 3 4 9 3 105 0 4 0 6 7 4 6 103 11 1 7 10 1 5 7 5 101 0 8 8 0 97 0 0 0 42 77 0 2 2 1 95 0 1 1 36 2 78
EIF[ ]	/* EndIf */
EIF[ ]	/* EndIf */
EIF[ ]	/* EndIf */
EIF[ ]	/* EndIf */
NPUSHB[ ]	/* 30 values pushed */
56 56 44 44 0 0 56 67 56 66 62 60 44 55 44 54 50 47 0 43 0 42 54 37 17 17 47 13 8 27
CALL[ ]	/* CallFunction */";
};
width = 527;
}
);
note = g;
unicode = 103;
},
{
glyphname = h;
kernLeft = b;
kernRight = a;
lastChange = "2025-07-25 13:40:37 +0000";
layers = (
{
layerId = "BF20E584-FC8B-4684-8793-6BFBAEEB9F40";
shapes = (
{
closed = 1;
nodes = (
(153,0,l),
(153,257,ls),
(153,369,o),
(217,436,o),
(306,436,cs),
(389,436,o),
(431,384,o),
(431,281,cs),
(431,0,l),
(514,0,l),
(514,290,ls),
(514,434,o),
(443,508,o),
(324,508,cs),
(252,508,o),
(186,471,o),
(153,411,c),
(153,700,l),
(69,700,l),
(69,0,l)
);
}
);
userData = {
assembly = "NPUSHB[ ]	/* 36 values pushed */
2 1 2 3 1 76 0 0 0 33 77 0 3 3 1 97 0 1 1 42 77 4 1 2 2 34 2 78 19 34 19 35 16 5 8 27
CALL[ ]	/* CallFunction */";
};
width = 572;
},
{
layerId = "59E4F189-9048-43B1-80D4-C98F20AC972F";
shapes = (
{
closed = 1;
nodes = (
(172,0,l),
(172,275,ls),
(172,351,o),
(214,400,o),
(286,400,cs),
(358,400,o),
(398,351,o),
(398,275,cs),
(398,0,l),
(525,0,l),
(525,292,ls),
(525,428,o),
(446,508,o),
(329,508,cs),
(266,508,o),
(204,483,o),
(172,438,c),
(172,700,l),
(45,700,l),
(45,0,l)
);
}
);
userData = {
assembly = "NPUSHB[ ]	/* 36 values pushed */
2 1 3 1 1 76 0 0 0 33 77 0 3 3 1 97 0 1 1 42 77 4 1 2 2 34 2 78 19 35 19 35 16 5 8 27
CALL[ ]	/* CallFunction */";
};
width = 562;
}
);
note = h;
unicode = 104;
},
{
glyphname = hbar;
lastChange = "2025-07-25 13:40:37 +0000";
layers = (
{
layerId = "BF20E584-FC8B-4684-8793-6BFBAEEB9F40";
shapes = (
{
closed = 1;
nodes = (
(153,0,l),
(153,257,ls),
(153,369,o),
(217,436,o),
(306,436,cs),
(389,436,o),
(431,384,o),
(431,281,cs),
(431,0,l),
(514,0,l),
(514,290,ls),
(514,434,o),
(443,508,o),
(324,508,cs),
(252,508,o),
(186,471,o),
(153,411,c),
(153,571,l),
(324,571,l),
(324,634,l),
(153,634,l),
(153,700,l),
(69,700,l),
(69,634,l),
(22,634,l),
(22,571,l),
(69,571,l),
(69,0,l)
);
}
);
userData = {
assembly = "NPUSHB[ ]	/* 50 values pushed */
10 1 6 7 1 76 3 1 1 4 1 0 5 1 0 103 0 2 2 33 77 0 7 7 5 97 0 5 5 42 77 8 1 6 6 34 6 78 19 34 19 35 17 17 17 17 16 9 8 31
CALL[ ]	/* CallFunction */";
};
width = 572;
},
{
layerId = "59E4F189-9048-43B1-80D4-C98F20AC972F";
shapes = (
{
closed = 1;
nodes = (
(172,0,l),
(172,275,ls),
(172,351,o),
(214,400,o),
(286,400,cs),
(358,400,o),
(398,351,o),
(398,275,cs),
(398,0,l),
(525,0,l),
(525,292,ls),
(525,428,o),
(446,508,o),
(329,508,cs),
(266,508,o),
(204,483,o),
(172,438,c),
(172,558,l),
(329,558,l),
(329,648,l),
(172,648,l),
(172,700,l),
(45,700,l),
(45,648,l),
(6,648,l),
(6,558,l),
(45,558,l),
(45,0,l)
);
}
);
userData = {
assembly = "NPUSHB[ ]	/* 50 values pushed */
10 1 7 5 1 76 3 1 1 4 1 0 5 1 0 103 0 2 2 33 77 0 7 7 5 97 0 5 5 42 77 8 1 6 6 34 6 78 19 35 19 35 17 17 17 17 16 9 8 31
CALL[ ]	/* CallFunction */";
};
width = 562;
}
);
note = hbar;
unicode = 295;
},
{
glyphname = i;
kernLeft = i;
kernRight = i;
lastChange = "2025-07-25 13:40:37 +0000";
layers = (
{
anchors = (
{
name = bottom;
pos = (120,0);
}
);
layerId = "BF20E584-FC8B-4684-8793-6BFBAEEB9F40";
shapes = (
{
closed = 1;
nodes = (
(162,0,l),
(162,496,l),
(78,496,l),
(78,0,l)
);
},
{
closed = 1;
nodes = (
(152,606,o),
(178,631,o),
(178,664,cs),
(178,696,o),
(152,720,o),
(120,720,cs),
(87,720,o),
(62,696,o),
(62,664,cs),
(62,631,o),
(87,606,o),
(120,606,cs)
);
}
);
userData = {
assembly = "MPPEM[ ]	/* MeasurePixelPerEm */
PUSHB[ ]	/* 1 value pushed */
39
LT[ ]	/* LessThan */
IF[ ]	/* If */
NPUSHB[ ]	/* 22 values pushed */
4 1 1 1 0 97 0 0 0 41 77 0 2 2 36 77 0 3 3 34 3 78
ELSE[ ]	/* Else */
NPUSHB[ ]	/* 22 values pushed */
4 1 1 1 0 97 0 0 0 39 77 0 2 2 36 77 0 3 3 34 3 78
EIF[ ]	/* EndIf */
NPUSHB[ ]	/* 14 values pushed */
0 0 15 14 13 12 0 11 0 10 36 5 8 23
CALL[ ]	/* CallFunction */";
};
width = 239;
},
{
anchors = (
{
name = bottom;
pos = (114,0);
}
);
layerId = "59E4F189-9048-43B1-80D4-C98F20AC972F";
shapes = (
{
closed = 1;
nodes = (
(178,0,l),
(178,496,l),
(50,496,l),
(50,0,l)
);
},
{
closed = 1;
nodes = (
(161,560,o),
(197,596,o),
(197,643,cs),
(197,690,o),
(161,726,o),
(114,726,cs),
(69,726,o),
(31,690,o),
(31,643,cs),
(31,598,o),
(69,560,o),
(114,560,cs)
);
}
);
userData = {
assembly = "MPPEM[ ]	/* MeasurePixelPerEm */
PUSHB[ ]	/* 1 value pushed */
29
LT[ ]	/* LessThan */
IF[ ]	/* If */
NPUSHB[ ]	/* 22 values pushed */
4 1 1 1 0 97 0 0 0 41 77 0 2 2 36 77 0 3 3 34 3 78
ELSE[ ]	/* Else */
MPPEM[ ]	/* MeasurePixelPerEm */
PUSHB[ ]	/* 1 value pushed */
35
LT[ ]	/* LessThan */
IF[ ]	/* If */
NPUSHB[ ]	/* 22 values pushed */
4 1 1 1 0 97 0 0 0 39 77 0 2 2 36 77 0 3 3 34 3 78
ELSE[ ]	/* Else */
NPUSHB[ ]	/* 20 values pushed */
0 0 4 1 1 2 0 1 105 0 2 2 36 77 0 3 3 34 3 78
EIF[ ]	/* EndIf */
EIF[ ]	/* EndIf */
NPUSHB[ ]	/* 14 values pushed */
0 0 15 14 13 12 0 11 0 10 36 5 8 23
CALL[ ]	/* CallFunction */";
};
width = 227;
}
);
note = i;
unicode = 105;
},
{
glyphname = idotless;
kernLeft = dotlessi;
lastChange = "2025-07-25 14:43:36 +0000";
layers = (
{
anchors = (
{
name = bottom;
pos = (111,0);
},
{
name = ogonek;
pos = (153,0);
},
{
name = top;
pos = (111,496);
}
);
layerId = "BF20E584-FC8B-4684-8793-6BFBAEEB9F40";
shapes = (
{
closed = 1;
nodes = (
(153,0,l),
(153,496,l),
(69,496,l),
(69,0,l)
);
}
);
userData = {
assembly = "NPUSHB[ ]	/* 16 values pushed */
0 0 0 36 77 0 1 1 34 1 78 17 16 2 8 24
CALL[ ]	/* CallFunction */";
};
width = 222;
},
{
anchors = (
{
name = bottom;
pos = (110,0);
},
{
name = ogonek;
pos = (173,0);
},
{
name = top;
pos = (110,496);
}
);
layerId = "59E4F189-9048-43B1-80D4-C98F20AC972F";
shapes = (
{
closed = 1;
nodes = (
(173,0,l),
(173,496,l),
(45,496,l),
(45,0,l)
);
}
);
userData = {
assembly = "NPUSHB[ ]	/* 16 values pushed */
0 0 0 36 77 0 1 1 34 1 78 17 16 2 8 24
CALL[ ]	/* CallFunction */";
};
width = 219;
}
);
note = dotlessi;
unicode = 305;
},
{
glyphname = iogonek;
kernLeft = dotlessi;
lastChange = "2025-07-25 13:38:07 +0000";
layers = (
{
anchors = (
{
name = bottom;
pos = (111,0);
},
{
name = ogonek;
pos = (153,0);
},
{
name = top;
pos = (111,720);
}
);
layerId = "BF20E584-FC8B-4684-8793-6BFBAEEB9F40";
shapes = (
{
closed = 1;
nodes = (
(107,-203,o),
(132,-198.667,o),
(156,-190,c),
(156,-134,l),
(133.333,-144,o),
(111.667,-149,o),
(91,-149,cs),
(55,-149,o),
(31,-130.667,o),
(31,-100,cs),
(31,-72.667,o),
(52.333,-48.667,o),
(95,-28,cs),
(153,0,l),
(153,496,l),
(69,496,l),
(69,15,l),
(-1.667,-17,o),
(-37,-58,o),
(-37,-108,cs),
(-37,-170.667,o),
(14.333,-203,o),
(81,-203,cs)
);
},
{
closed = 1;
nodes = (
(143,606,o),
(169,630.667,o),
(169,664,cs),
(169,696,o),
(143,720,o),
(111,720,cs),
(77.667,720,o),
(53,696,o),
(53,664,cs),
(53,630.667,o),
(77.667,606,o),
(111,606,cs)
);
}
);
userData = {
assembly = "NPUSHB[ ]	/* 12 values pushed */
27 19 16 3 3 2 28 1 4 3 2 76
MPPEM[ ]	/* MeasurePixelPerEm */
PUSHB[ ]	/* 1 value pushed */
29
LT[ ]	/* LessThan */
IF[ ]	/* If */
NPUSHB[ ]	/* 28 values pushed */
5 1 1 1 0 97 0 0 0 41 77 0 2 2 36 77 0 3 3 4 98 6 1 4 4 38 4 78
ELSE[ ]	/* Else */
MPPEM[ ]	/* MeasurePixelPerEm */
PUSHB[ ]	/* 1 value pushed */
39
LT[ ]	/* LessThan */
IF[ ]	/* If */
NPUSHB[ ]	/* 25 values pushed */
0 3 6 1 4 3 4 102 5 1 1 1 0 97 0 0 0 41 77 0 2 2 36 2 78
ELSE[ ]	/* Else */
NPUSHB[ ]	/* 25 values pushed */
0 3 6 1 4 3 4 102 5 1 1 1 0 97 0 0 0 39 77 0 2 2 36 2 78
EIF[ ]	/* EndIf */
EIF[ ]	/* EndIf */
NPUSHB[ ]	/* 20 values pushed */
12 12 0 0 12 30 12 29 26 24 18 17 0 11 0 10 36 7 8 23
CALL[ ]	/* CallFunction */";
};
width = 222;
},
{
anchors = (
{
name = bottom;
pos = (110,0);
},
{
name = ogonek;
pos = (173,0);
},
{
name = top;
pos = (110,726);
}
);
layerId = "59E4F189-9048-43B1-80D4-C98F20AC972F";
shapes = (
{
closed = 1;
nodes = (
(119.667,-210,o),
(148.667,-205.333,o),
(178,-196,c),
(178,-120,l),
(152,-130,o),
(128.333,-135,o),
(107,-135,cs),
(75,-135,o),
(55,-119.333,o),
(55,-94,cs),
(55,-70,o),
(74.333,-50,o),
(121,-26,cs),
(173,0,l),
(173,496,l),
(45,496,l),
(45,14,l),
(-17.667,-22,o),
(-42,-60.667,o),
(-42,-106,cs),
(-42,-174,o),
(13.667,-210,o),
(91,-210,cs)
);
},
{
closed = 1;
nodes = (
(156.667,560,o),
(193,596.333,o),
(193,643,cs),
(193,689.667,o),
(156.667,726,o),
(110,726,cs),
(63.333,726,o),
(27,689.667,o),
(27,643,cs),
(27,596.333,o),
(63.333,560,o),
(110,560,cs)
);
}
);
userData = {
assembly = "NPUSHB[ ]	/* 12 values pushed */
29 20 17 3 3 2 30 1 4 3 2 76
MPPEM[ ]	/* MeasurePixelPerEm */
PUSHB[ ]	/* 1 value pushed */
29
LT[ ]	/* LessThan */
IF[ ]	/* If */
NPUSHB[ ]	/* 28 values pushed */
5 1 1 1 0 97 0 0 0 41 77 0 2 2 36 77 0 3 3 4 98 6 1 4 4 38 4 78
ELSE[ ]	/* Else */
MPPEM[ ]	/* MeasurePixelPerEm */
PUSHB[ ]	/* 1 value pushed */
35
LT[ ]	/* LessThan */
IF[ ]	/* If */
NPUSHB[ ]	/* 28 values pushed */
5 1 1 1 0 97 0 0 0 39 77 0 2 2 36 77 0 3 3 4 98 6 1 4 4 38 4 78
ELSE[ ]	/* Else */
MPPEM[ ]	/* MeasurePixelPerEm */
PUSHB[ ]	/* 1 value pushed */
50
LT[ ]	/* LessThan */
IF[ ]	/* If */
NPUSHB[ ]	/* 26 values pushed */
0 0 5 1 1 2 0 1 105 0 2 2 36 77 0 3 3 4 98 6 1 4 4 38 4 78
ELSE[ ]	/* Else */
NPUSHB[ ]	/* 23 values pushed */
0 0 5 1 1 2 0 1 105 0 3 6 1 4 3 4 102 0 2 2 36 2 78
EIF[ ]	/* EndIf */
EIF[ ]	/* EndIf */
EIF[ ]	/* EndIf */
NPUSHB[ ]	/* 20 values pushed */
12 12 0 0 12 32 12 31 28 26 19 18 0 11 0 10 36 7 8 23
CALL[ ]	/* CallFunction */";
};
width = 219;
}
);
note = iogonek;
unicode = 303;
},
{
glyphname = j;
kernLeft = j;
lastChange = "2025-07-25 13:40:37 +0000";
layers = (
{
layerId = "BF20E584-FC8B-4684-8793-6BFBAEEB9F40";
shapes = (
{
closed = 1;
nodes = (
(24,-220,ls),
(117,-220,o),
(165,-177,o),
(165,-82,cs),
(165,496,l),
(81,496,l),
(81,-80,ls),
(81,-128,o),
(60,-148,o),
(11,-148,cs),
(-28,-148,l),
(-28,-220,l)
);
},
{
closed = 1;
nodes = (
(156,606,o),
(181,631,o),
(181,664,cs),
(181,696,o),
(156,720,o),
(124,720,cs),
(92,720,o),
(66,696,o),
(66,664,cs),
(66,631,o),
(92,606,o),
(124,606,cs)
);
}
);
userData = {
assembly = "MPPEM[ ]	/* MeasurePixelPerEm */
PUSHB[ ]	/* 1 value pushed */
39
LT[ ]	/* LessThan */
IF[ ]	/* If */
NPUSHB[ ]	/* 27 values pushed */
5 1 4 4 3 97 0 3 3 41 77 0 1 1 36 77 0 0 0 2 98 0 2 2 38 2 78
ELSE[ ]	/* Else */
NPUSHB[ ]	/* 27 values pushed */
5 1 4 4 3 97 0 3 3 39 77 0 1 1 36 77 0 0 0 2 98 0 2 2 38 2 78
EIF[ ]	/* EndIf */
NPUSHB[ ]	/* 13 values pushed */
12 12 12 23 12 22 37 35 19 32 6 8 26
CALL[ ]	/* CallFunction */";
};
width = 242;
},
{
layerId = "59E4F189-9048-43B1-80D4-C98F20AC972F";
shapes = (
{
closed = 1;
nodes = (
(10,-220,ls),
(123,-220,o),
(179,-165,o),
(179,-54,cs),
(179,496,l),
(51,496,l),
(51,-54,ls),
(51,-95,o),
(33,-111,o),
(-10,-111,cs),
(-37,-111,l),
(-37,-220,l)
);
},
{
closed = 1;
nodes = (
(163,560,o),
(199,598,o),
(199,643,cs),
(199,690,o),
(163,726,o),
(116,726,cs),
(69,726,o),
(33,690,o),
(33,643,cs),
(33,596,o),
(69,560,o),
(116,560,cs)
);
}
);
userData = {
assembly = "MPPEM[ ]	/* MeasurePixelPerEm */
PUSHB[ ]	/* 1 value pushed */
29
LT[ ]	/* LessThan */
IF[ ]	/* If */
NPUSHB[ ]	/* 27 values pushed */
5 1 4 4 3 97 0 3 3 41 77 0 1 1 36 77 0 0 0 2 98 0 2 2 38 2 78
ELSE[ ]	/* Else */
MPPEM[ ]	/* MeasurePixelPerEm */
PUSHB[ ]	/* 1 value pushed */
35
LT[ ]	/* LessThan */
IF[ ]	/* If */
NPUSHB[ ]	/* 27 values pushed */
5 1 4 4 3 97 0 3 3 39 77 0 1 1 36 77 0 0 0 2 98 0 2 2 38 2 78
ELSE[ ]	/* Else */
NPUSHB[ ]	/* 25 values pushed */
0 3 5 1 4 1 3 4 105 0 1 1 36 77 0 0 0 2 98 0 2 2 38 2 78
EIF[ ]	/* EndIf */
EIF[ ]	/* EndIf */
NPUSHB[ ]	/* 13 values pushed */
11 11 11 22 11 21 37 34 19 32 6 8 26
CALL[ ]	/* CallFunction */";
};
width = 228;
}
);
note = j;
unicode = 106;
},
{
glyphname = jdotless;
lastChange = "2025-07-25 14:43:36 +0000";
layers = (
{
anchors = (
{
name = bottom;
pos = (121,-310);
},
{
name = top;
pos = (121,496);
}
);
layerId = "BF20E584-FC8B-4684-8793-6BFBAEEB9F40";
shapes = (
{
closed = 1;
nodes = (
(24,-220,ls),
(117,-220,o),
(165,-177,o),
(165,-82,cs),
(165,496,l),
(81,496,l),
(81,-80,ls),
(81,-128,o),
(60,-148,o),
(11,-148,cs),
(-28,-148,l),
(-28,-220,l)
);
}
);
userData = {
assembly = "NPUSHB[ ]	/* 22 values pushed */
0 1 1 36 77 0 0 0 2 98 0 2 2 38 2 78 35 19 32 3 8 25
CALL[ ]	/* CallFunction */";
};
width = 242;
},
{
anchors = (
{
name = bottom;
pos = (114,-310);
},
{
name = top;
pos = (114,496);
}
);
layerId = "59E4F189-9048-43B1-80D4-C98F20AC972F";
shapes = (
{
closed = 1;
nodes = (
(10,-220,ls),
(123,-220,o),
(179,-165,o),
(179,-54,cs),
(179,496,l),
(51,496,l),
(51,-54,ls),
(51,-95,o),
(33,-111,o),
(-10,-111,cs),
(-37,-111,l),
(-37,-220,l)
);
}
);
userData = {
assembly = "NPUSHB[ ]	/* 22 values pushed */
0 1 1 36 77 0 0 0 2 98 0 2 2 38 2 78 34 19 32 3 8 25
CALL[ ]	/* CallFunction */";
};
width = 228;
}
);
note = uni0237;
unicode = 567;
},
{
glyphname = k;
kernLeft = b;
kernRight = k;
lastChange = "2025-07-25 13:40:37 +0000";
layers = (
{
anchors = (
{
name = bottom;
pos = (252,0);
},
{
name = top;
pos = (252,992);
}
);
layerId = "BF20E584-FC8B-4684-8793-6BFBAEEB9F40";
shapes = (
{
closed = 1;
nodes = (
(153,0,l),
(153,257,l),
(380,0,l),
(487,0,l),
(239,272,l),
(459,496,l),
(356,496,l),
(153,287,l),
(153,700,l),
(69,700,l),
(69,0,l)
);
}
);
userData = {
assembly = "NPUSHB[ ]	/* 32 values pushed */
8 5 2 3 2 1 1 76 0 0 0 33 77 0 1 1 36 77 3 1 2 2 34 2 78 18 18 18 16 4 8 26
CALL[ ]	/* CallFunction */";
};
width = 504;
},
{
anchors = (
{
name = bottom;
pos = (262,0);
},
{
name = top;
pos = (262,992);
}
);
layerId = "59E4F189-9048-43B1-80D4-C98F20AC972F";
shapes = (
{
closed = 1;
nodes = (
(173,0,l),
(173,211,l),
(341,0,l),
(506,0,l),
(285,247,l),
(503,496,l),
(338,496,l),
(173,286,l),
(173,700,l),
(45,700,l),
(45,0,l)
);
}
);
userData = {
assembly = "NPUSHB[ ]	/* 32 values pushed */
8 5 2 3 2 1 1 76 0 0 0 33 77 0 1 1 36 77 3 1 2 2 34 2 78 18 18 18 16 4 8 26
CALL[ ]	/* CallFunction */";
};
width = 523;
}
);
note = k;
unicode = 107;
},
{
glyphname = l;
kernLeft = b;
kernRight = l;
lastChange = "2025-07-25 13:40:37 +0000";
layers = (
{
anchors = (
{
name = bottom;
pos = (111,0);
},
{
name = top;
pos = (111,700);
},
{
name = topright;
pos = (202,992);
}
);
layerId = "BF20E584-FC8B-4684-8793-6BFBAEEB9F40";
shapes = (
{
closed = 1;
nodes = (
(153,0,l),
(153,700,l),
(69,700,l),
(69,0,l)
);
}
);
userData = {
assembly = "NPUSHB[ ]	/* 16 values pushed */
0 0 0 33 77 0 1 1 34 1 78 17 16 2 8 24
CALL[ ]	/* CallFunction */";
};
width = 222;
},
{
anchors = (
{
name = bottom;
pos = (110,0);
},
{
name = top;
pos = (110,700);
},
{
name = topright;
pos = (202,992);
}
);
layerId = "59E4F189-9048-43B1-80D4-C98F20AC972F";
shapes = (
{
closed = 1;
nodes = (
(173,0,l),
(173,700,l),
(45,700,l),
(45,0,l)
);
}
);
userData = {
assembly = "NPUSHB[ ]	/* 16 values pushed */
0 0 0 33 77 0 1 1 34 1 78 17 16 2 8 24
CALL[ ]	/* CallFunction */";
};
width = 219;
}
);
note = l;
unicode = 108;
},
{
glyphname = ldot;
kernLeft = b;
lastChange = "2025-07-25 13:40:37 +0000";
layers = (
{
layerId = "BF20E584-FC8B-4684-8793-6BFBAEEB9F40";
shapes = (
{
closed = 1;
nodes = (
(162,0,l),
(162,700,l),
(78,700,l),
(78,0,l)
);
},
{
closed = 1;
nodes = (
(316,318,o),
(338,340,o),
(338,367,cs),
(338,395,o),
(316,417,o),
(288,417,cs),
(260,417,o),
(238,395,o),
(238,367,cs),
(238,340,o),
(260,318,o),
(288,318,cs)
);
}
);
userData = {
assembly = "NPUSHB[ ]	/* 32 values pushed */
0 2 4 1 3 1 2 3 105 0 0 0 33 77 0 1 1 34 1 78 4 4 4 15 4 14 37 17 16 5 8 25
CALL[ ]	/* CallFunction */";
};
width = 346;
},
{
layerId = "59E4F189-9048-43B1-80D4-C98F20AC972F";
shapes = (
{
closed = 1;
nodes = (
(178,0,l),
(178,700,l),
(50,700,l),
(50,0,l)
);
},
{
closed = 1;
nodes = (
(323,304,o),
(350,330,o),
(350,365,cs),
(350,400,o),
(323,428,o),
(288,428,cs),
(253,428,o),
(226,400,o),
(226,365,cs),
(226,330,o),
(253,304,o),
(288,304,cs)
);
}
);
userData = {
assembly = "NPUSHB[ ]	/* 32 values pushed */
0 2 4 1 3 1 2 3 105 0 0 0 33 77 0 1 1 34 1 78 4 4 4 15 4 14 37 17 16 5 8 25
CALL[ ]	/* CallFunction */";
};
width = 354;
}
);
note = ldot;
unicode = 320;
},
{
glyphname = lslash;
kernLeft = b;
kernRight = lslash;
lastChange = "2025-07-25 13:40:37 +0000";
layers = (
{
layerId = "BF20E584-FC8B-4684-8793-6BFBAEEB9F40";
shapes = (
{
closed = 1;
nodes = (
(160,0,l),
(160,396,l),
(235,426,l),
(235,494,l),
(160,463,l),
(160,700,l),
(76,700,l),
(76,429,l),
(2,398,l),
(2,331,l),
(76,361,l),
(76,0,l)
);
}
);
userData = {
assembly = "NPUSHB[ ]	/* 29 values pushed */
9 8 7 6 3 2 1 0 8 1 0 1 76 0 0 0 33 77 0 1 1 34 1 78 21 20 2 8 24
CALL[ ]	/* CallFunction */";
};
width = 251;
},
{
layerId = "59E4F189-9048-43B1-80D4-C98F20AC972F";
shapes = (
{
closed = 1;
nodes = (
(212,0,l),
(212,362,l),
(282,386,l),
(282,493,l),
(212,468,l),
(212,700,l),
(84,700,l),
(84,424,l),
(15,400,l),
(15,293,l),
(84,317,l),
(84,0,l)
);
}
);
userData = {
assembly = "NPUSHB[ ]	/* 29 values pushed */
9 8 7 6 3 2 1 0 8 1 0 1 76 0 0 0 33 77 0 1 1 34 1 78 21 20 2 8 24
CALL[ ]	/* CallFunction */";
};
width = 317;
}
);
note = lslash;
unicode = 322;
},
{
glyphname = m;
kernLeft = dotlessi;
kernRight = a;
lastChange = "2025-07-25 13:40:37 +0000";
layers = (
{
layerId = "BF20E584-FC8B-4684-8793-6BFBAEEB9F40";
shapes = (
{
closed = 1;
nodes = (
(153,0,l),
(153,257,ls),
(153,369,o),
(210,436,o),
(291,436,cs),
(368,436,o),
(411,384,o),
(411,281,cs),
(411,0,l),
(495,0,l),
(495,257,ls),
(495,369,o),
(551,436,o),
(634,436,cs),
(711,436,o),
(754,384,o),
(754,281,cs),
(754,0,l),
(837,0,l),
(837,290,ls),
(837,434,o),
(765,508,o),
(642,508,cs),
(571,508,o),
(507,471,o),
(472,411,c),
(441,476,o),
(386,508,o),
(305,508,cs),
(238,508,o),
(183,477,o),
(151,424,c),
(145,496,l),
(69,496,l),
(69,0,l)
);
}
);
userData = {
assembly = "PUSHB[ ]	/* 7 values pushed */
7 2 2 3 4 1 76
MPPEM[ ]	/* MeasurePixelPerEm */
PUSHB[ ]	/* 1 value pushed */
21
LT[ ]	/* LessThan */
IF[ ]	/* If */
NPUSHB[ ]	/* 21 values pushed */
6 1 4 4 0 97 2 1 2 0 0 36 77 7 5 2 3 3 34 3 78
ELSE[ ]	/* Else */
NPUSHB[ ]	/* 25 values pushed */
0 0 0 36 77 6 1 4 4 1 97 2 1 1 1 42 77 7 5 2 3 3 34 3 78
EIF[ ]	/* EndIf */
NPUSHB[ ]	/* 11 values pushed */
19 35 19 35 19 35 35 16 8 8 30
CALL[ ]	/* CallFunction */";
};
width = 895;
},
{
layerId = "59E4F189-9048-43B1-80D4-C98F20AC972F";
shapes = (
{
closed = 1;
nodes = (
(172,0,l),
(172,275,ls),
(172,358,o),
(219,397,o),
(284,397,cs),
(353,397,o),
(394,351,o),
(394,275,cs),
(394,0,l),
(521,0,l),
(521,275,ls),
(521,351,o),
(560,397,o),
(632,397,cs),
(704,397,o),
(742,351,o),
(742,275,cs),
(742,0,l),
(869,0,l),
(869,293,ls),
(869,432,o),
(785,508,o),
(665,508,cs),
(594,508,o),
(531,472,o),
(498,411,c),
(463,475,o),
(395,508,o),
(318,508,cs),
(258,508,o),
(204,484,o),
(172,439,c),
(172,496,l),
(45,496,l),
(45,0,l)
);
}
);
userData = {
assembly = "PUSHB[ ]	/* 7 values pushed */
8 2 2 4 0 1 76
MPPEM[ ]	/* MeasurePixelPerEm */
PUSHB[ ]	/* 1 value pushed */
21
LT[ ]	/* LessThan */
IF[ ]	/* If */
NPUSHB[ ]	/* 21 values pushed */
6 1 4 4 0 97 2 1 2 0 0 36 77 7 5 2 3 3 34 3 78
ELSE[ ]	/* Else */
NPUSHB[ ]	/* 25 values pushed */
0 0 0 36 77 6 1 4 4 1 97 2 1 1 1 42 77 7 5 2 3 3 34 3 78
EIF[ ]	/* EndIf */
NPUSHB[ ]	/* 11 values pushed */
19 35 19 35 19 36 35 16 8 8 30
CALL[ ]	/* CallFunction */";
};
width = 906;
}
);
note = m;
unicode = 109;
},
{
glyphname = n;
kernLeft = dotlessi;
kernRight = a;
lastChange = "2025-07-25 13:40:37 +0000";
layers = (
{
anchors = (
{
name = bottom;
pos = (300,0);
},
{
name = top;
pos = (306,496);
}
);
layerId = "BF20E584-FC8B-4684-8793-6BFBAEEB9F40";
shapes = (
{
closed = 1;
nodes = (
(153,0,l),
(153,257,ls),
(153,369,o),
(214,436,o),
(302,436,cs),
(387,436,o),
(430,384,o),
(430,281,cs),
(430,0,l),
(514,0,l),
(514,290,ls),
(514,434,o),
(441,508,o),
(321,508,cs),
(245,508,o),
(182,470,o),
(150,407,c),
(145,496,l),
(69,496,l),
(69,0,l)
);
}
);
userData = {
assembly = "PUSHB[ ]	/* 6 values pushed */
2 1 2 3 1 76
MPPEM[ ]	/* MeasurePixelPerEm */
PUSHB[ ]	/* 1 value pushed */
21
LT[ ]	/* LessThan */
IF[ ]	/* If */
NPUSHB[ ]	/* 18 values pushed */
0 3 3 0 97 1 1 0 0 36 77 4 1 2 2 34 2 78
ELSE[ ]	/* Else */
NPUSHB[ ]	/* 22 values pushed */
0 0 0 36 77 0 3 3 1 97 0 1 1 42 77 4 1 2 2 34 2 78
EIF[ ]	/* EndIf */
PUSHB[ ]	/* 8 values pushed */
19 34 19 35 16 5 8 27
CALL[ ]	/* CallFunction */";
};
width = 573;
},
{
anchors = (
{
name = bottom;
pos = (289,0);
},
{
name = top;
pos = (286,496);
}
);
layerId = "59E4F189-9048-43B1-80D4-C98F20AC972F";
shapes = (
{
closed = 1;
nodes = (
(172,0,l),
(172,275,ls),
(172,351,o),
(214,400,o),
(286,400,cs),
(358,400,o),
(398,351,o),
(398,275,cs),
(398,0,l),
(525,0,l),
(525,292,ls),
(525,428,o),
(446,508,o),
(329,508,cs),
(266,508,o),
(204,483,o),
(172,438,c),
(172,496,l),
(45,496,l),
(45,0,l)
);
}
);
userData = {
assembly = "PUSHB[ ]	/* 6 values pushed */
2 1 3 0 1 76
MPPEM[ ]	/* MeasurePixelPerEm */
PUSHB[ ]	/* 1 value pushed */
21
LT[ ]	/* LessThan */
IF[ ]	/* If */
NPUSHB[ ]	/* 18 values pushed */
0 3 3 0 97 1 1 0 0 36 77 4 1 2 2 34 2 78
ELSE[ ]	/* Else */
NPUSHB[ ]	/* 22 values pushed */
0 0 0 36 77 0 3 3 1 97 0 1 1 42 77 4 1 2 2 34 2 78
EIF[ ]	/* EndIf */
PUSHB[ ]	/* 8 values pushed */
19 35 19 35 16 5 8 27
CALL[ ]	/* CallFunction */";
};
width = 562;
}
);
note = n;
unicode = 110;
},
{
glyphname = eng;
kernLeft = dotlessi;
kernRight = a;
lastChange = "2025-07-25 13:40:37 +0000";
layers = (
{
layerId = "BF20E584-FC8B-4684-8793-6BFBAEEB9F40";
shapes = (
{
closed = 1;
nodes = (
(373,-220,ls),
(466,-220,o),
(514,-177,o),
(514,-82,cs),
(514,290,ls),
(514,434,o),
(441,508,o),
(321,508,cs),
(245,508,o),
(182,470,o),
(150,407,c),
(145,496,l),
(69,496,l),
(69,0,l),
(153,0,l),
(153,257,ls),
(153,369,o),
(214,436,o),
(302,436,cs),
(387,436,o),
(430,384,o),
(430,281,cs),
(430,-80,ls),
(430,-128,o),
(409,-148,o),
(360,-148,cs),
(321,-148,l),
(321,-220,l)
);
}
);
userData = {
assembly = "PUSHB[ ]	/* 6 values pushed */
15 1 2 1 1 76
MPPEM[ ]	/* MeasurePixelPerEm */
PUSHB[ ]	/* 1 value pushed */
21
LT[ ]	/* LessThan */
IF[ ]	/* If */
NPUSHB[ ]	/* 27 values pushed */
0 1 1 3 97 4 1 3 3 36 77 0 2 2 34 77 0 0 0 5 97 0 5 5 38 5 78
ELSE[ ]	/* Else */
NPUSHB[ ]	/* 31 values pushed */
0 3 3 36 77 0 1 1 4 97 0 4 4 42 77 0 2 2 34 77 0 0 0 5 97 0 5 5 38 5 78
EIF[ ]	/* EndIf */
NPUSHB[ ]	/* 9 values pushed */
37 35 17 19 36 32 6 8 28
CALL[ ]	/* CallFunction */";
};
width = 572;
},
{
layerId = "59E4F189-9048-43B1-80D4-C98F20AC972F";
shapes = (
{
closed = 1;
nodes = (
(356,-220,ls),
(469,-220,o),
(525,-165,o),
(525,-54,cs),
(525,292,ls),
(525,428,o),
(446,508,o),
(329,508,cs),
(266,508,o),
(204,483,o),
(172,438,c),
(172,496,l),
(45,496,l),
(45,0,l),
(172,0,l),
(172,275,ls),
(172,351,o),
(214,400,o),
(286,400,cs),
(358,400,o),
(398,351,o),
(398,275,cs),
(398,-54,ls),
(398,-95,o),
(380,-111,o),
(337,-111,cs),
(309,-111,l),
(309,-220,l)
);
}
);
userData = {
assembly = "PUSHB[ ]	/* 6 values pushed */
16 1 1 3 1 76
MPPEM[ ]	/* MeasurePixelPerEm */
PUSHB[ ]	/* 1 value pushed */
21
LT[ ]	/* LessThan */
IF[ ]	/* If */
NPUSHB[ ]	/* 27 values pushed */
0 1 1 3 97 4 1 3 3 36 77 0 2 2 34 77 0 0 0 5 97 0 5 5 38 5 78
ELSE[ ]	/* Else */
NPUSHB[ ]	/* 31 values pushed */
0 3 3 36 77 0 1 1 4 97 0 4 4 42 77 0 2 2 34 77 0 0 0 5 97 0 5 5 38 5 78
EIF[ ]	/* EndIf */
NPUSHB[ ]	/* 9 values pushed */
36 35 17 19 37 32 6 8 28
CALL[ ]	/* CallFunction */";
};
width = 562;
}
);
note = eng;
unicode = 331;
},
{
glyphname = o;
kernLeft = c;
kernRight = b;
lastChange = "2025-07-25 13:47:43 +0000";
layers = (
{
anchors = (
{
name = bottom;
pos = (302,0);
},
{
name = ogonek;
pos = (408,10);
},
{
name = top;
pos = (302,496);
},
{
name = topright;
pos = (584,496);
}
);
layerId = "BF20E584-FC8B-4684-8793-6BFBAEEB9F40";
shapes = (
{
closed = 1;
nodes = (
(442,-12,o),
(556,91,o),
(556,249,cs),
(556,408,o),
(448,508,o),
(302,508,cs),
(152,508,o),
(48,402,o),
(48,249,cs),
(48,86,o),
(157,-12,o),
(298,-12,cs)
);
},
{
closed = 1;
nodes = (
(190,61,o),
(133,148,o),
(133,249,cs),
(133,357,o),
(194,435,o),
(301,435,cs),
(406,435,o),
(471,358,o),
(471,249,cs),
(471,136,o),
(398,61,o),
(298,61,cs)
);
}
);
userData = {
assembly = "NPUSHB[ ]	/* 41 values pushed */
0 2 2 0 97 0 0 0 42 77 5 1 3 3 1 97 4 1 1 1 40 1 78 16 16 0 0 16 29 16 28 23 21 0 15 0 14 38 6 8 23
CALL[ ]	/* CallFunction */";
};
width = 604;
},
{
anchors = (
{
name = bottom;
pos = (291,0);
},
{
name = ogonek;
pos = (401,10);
},
{
name = top;
pos = (291,496);
},
{
name = topright;
pos = (559,496);
}
);
layerId = "59E4F189-9048-43B1-80D4-C98F20AC972F";
shapes = (
{
closed = 1;
nodes = (
(443,-12,o),
(553,96,o),
(553,248,cs),
(553,404,o),
(441,508,o),
(291,508,cs),
(139,508,o),
(29,403,o),
(29,248,cs),
(29,99,o),
(130,-12,o),
(287,-12,cs)
);
},
{
closed = 1;
nodes = (
(214,99,o),
(158,160,o),
(158,248,cs),
(158,335,o),
(212,397,o),
(289,397,cs),
(364,397,o),
(422,341,o),
(422,250,cs),
(422,166,o),
(366,99,o),
(289,99,cs)
);
}
);
userData = {
assembly = "NPUSHB[ ]	/* 41 values pushed */
0 2 2 0 97 0 0 0 42 77 5 1 3 3 1 97 4 1 1 1 40 1 78 16 16 0 0 16 27 16 26 22 20 0 15 0 14 38 6 8 23
CALL[ ]	/* CallFunction */";
};
width = 582;
}
);
note = o;
unicode = 111;
},
{
glyphname = oslash;
lastChange = "2025-07-25 13:38:07 +0000";
layers = (
{
layerId = "BF20E584-FC8B-4684-8793-6BFBAEEB9F40";
shapes = (
{
closed = 1;
nodes = (
(447.787,-12,o),
(551,94.858,o),
(551,248,cs),
(551,316.667,o),
(531.667,374.667,o),
(493,422,c),
(558,496,l),
(479,496,l),
(450,463,l),
(408,493,o),
(359.333,508,o),
(304,508,cs),
(160.95,508,o),
(55,403.108,o),
(55,248,cs),
(55,178.667,o),
(74,120.667,o),
(112,74,c),
(48,0,l),
(128,0,l),
(156,33,l),
(198,3,o),
(246.667,-12,o),
(302,-12,cs)
);
},
{
closed = 1;
nodes = (
(266,58,o),
(233.667,68.667,o),
(205,90,c),
(440,360,l),
(458,327.333,o),
(467,290,o),
(467,248,cs),
(467,138.667,o),
(403.333,58,o),
(302,58,cs)
);
},
{
closed = 1;
nodes = (
(166,136,l),
(148,166.667,o),
(139,204,o),
(139,248,cs),
(139,357.333,o),
(197.333,438,o),
(304,438,cs),
(340.667,438,o),
(372.667,427.333,o),
(400,406,c),
(166,136,l)
);
}
);
userData = {
assembly = "MPPEM[ ]	/* MeasurePixelPerEm */
PUSHB[ ]	/* 1 value pushed */
21
LT[ ]	/* LessThan */
IF[ ]	/* If */
NPUSHB[ ]	/* 19 values pushed */
12 1 5 1 37 36 27 26 15 4 6 4 5 1 1 0 4 3 76
ELSE[ ]	/* Else */
NPUSHB[ ]	/* 19 values pushed */
12 1 5 2 37 36 27 26 15 4 6 4 5 1 1 0 4 3 76
EIF[ ]	/* EndIf */
MPPEM[ ]	/* MeasurePixelPerEm */
PUSHB[ ]	/* 1 value pushed */
21
LT[ ]	/* LessThan */
IF[ ]	/* If */
NPUSHB[ ]	/* 25 values pushed */
0 5 5 1 97 2 1 1 1 42 77 7 1 4 4 0 97 6 3 2 0 0 34 0 78
ELSE[ ]	/* Else */
NPUSHB[ ]	/* 33 values pushed */
0 2 2 36 77 0 5 5 1 97 0 1 1 42 77 0 0 0 34 77 7 1 4 4 3 97 6 1 3 3 40 3 78
EIF[ ]	/* EndIf */
NPUSHB[ ]	/* 20 values pushed */
22 22 0 0 32 30 22 29 22 28 0 21 0 20 18 38 18 8 8 25
CALL[ ]	/* CallFunction */";
};
width = 601;
},
{
layerId = "59E4F189-9048-43B1-80D4-C98F20AC972F";
shapes = (
{
closed = 1;
nodes = (
(442.616,-12,o),
(553,96.267,o),
(553,248,cs),
(553,316,o),
(533.333,373.333,o),
(494,420,c),
(561,496,l),
(459,496,l),
(436,469,l),
(393.333,495,o),
(345,508,o),
(291,508,cs),
(138.997,508,o),
(29,403.135,o),
(29,248,cs),
(29,178.667,o),
(48.333,121,o),
(87,75,c),
(21,0,l),
(123,0,l),
(145,25,l),
(185,0.333,o),
(232.333,-12,o),
(287,-12,cs)
);
},
{
closed = 1;
nodes = (
(265.667,99,o),
(244.667,104.667,o),
(226,116,c),
(407,322,l),
(417,302,o),
(422,278,o),
(422,250,cs),
(422,166,o),
(366.333,99,o),
(289,99,cs)
);
},
{
closed = 1;
nodes = (
(174,173,l),
(163.333,196.333,o),
(158,221.333,o),
(158,248,cs),
(158,334.667,o),
(211.667,397,o),
(289,397,cs),
(313.667,397,o),
(336,391,o),
(356,379,c),
(174,173,l)
);
}
);
userData = {
assembly = "MPPEM[ ]	/* MeasurePixelPerEm */
PUSHB[ ]	/* 1 value pushed */
21
LT[ ]	/* LessThan */
IF[ ]	/* If */
NPUSHB[ ]	/* 19 values pushed */
15 12 2 5 1 37 36 27 26 4 4 5 4 1 2 0 4 3 76
ELSE[ ]	/* Else */
NPUSHB[ ]	/* 19 values pushed */
15 12 2 5 2 37 36 27 26 4 4 5 4 1 2 0 4 3 76
EIF[ ]	/* EndIf */
MPPEM[ ]	/* MeasurePixelPerEm */
PUSHB[ ]	/* 1 value pushed */
21
LT[ ]	/* LessThan */
IF[ ]	/* If */
NPUSHB[ ]	/* 25 values pushed */
0 5 5 1 97 2 1 1 1 42 77 7 1 4 4 0 97 6 3 2 0 0 34 0 78
ELSE[ ]	/* Else */
NPUSHB[ ]	/* 33 values pushed */
0 2 2 36 77 0 5 5 1 97 0 1 1 42 77 0 0 0 34 77 7 1 4 4 3 97 6 1 3 3 40 3 78
EIF[ ]	/* EndIf */
NPUSHB[ ]	/* 20 values pushed */
22 22 0 0 32 30 22 29 22 28 0 21 0 20 18 38 18 8 8 25
CALL[ ]	/* CallFunction */";
};
width = 582;
}
);
note = oslash;
unicode = 248;
},
{
glyphname = oe;
kernLeft = c;
kernRight = ae;
lastChange = "2025-07-25 13:38:07 +0000";
layers = (
{
layerId = "BF20E584-FC8B-4684-8793-6BFBAEEB9F40";
shapes = (
{
closed = 1;
nodes = (
(385.667,-12,o),
(457,28.667,o),
(497,102,c),
(538.333,30,o),
(611.333,-12,o),
(702,-12,cs),
(815.333,-12,o),
(895.667,52,o),
(925,148,c),
(842,148,l),
(818,92,o),
(770,59,o),
(702,59,cs),
(611.333,59,o),
(545.333,127.667,o),
(540,229,c),
(935,229,l),
(937,276,ls),
(937,317.333,o),
(927.667,355.333,o),
(909,390,cs),
(870.333,463.333,o),
(797.333,508,o),
(704,508,cs),
(612,508,o),
(537.333,466,o),
(496,394,c),
(457.333,467.333,o),
(386.333,508,o),
(297,508,cs),
(250.333,508,o),
(208.333,497.333,o),
(171,476,cs),
(93.667,432,o),
(48,350.667,o),
(48,248,cs),
(48,196,o),
(59,150.333,o),
(81,111,cs),
(123.667,32.333,o),
(201.667,-12,o),
(295,-12,cs)
);
},
{
closed = 1;
nodes = (
(202.449,60,o),
(134,134.929,o),
(134,248,cs),
(134,354.667,o),
(194.333,436,o),
(297,436,cs),
(388.867,436,o),
(458,363.779,o),
(458,248,cs),
(458,141.333,o),
(397.667,60,o),
(295,60,cs)
);
},
{
closed = 1;
nodes = (
(542,294,l),
(550,383.333,o),
(617,437,o),
(701,437,cs),
(787.667,437,o),
(850,382,o),
(854,294,c),
(542,294,l)
);
}
);
userData = {
assembly = "NPUSHB[ ]	/* 80 values pushed */
12 1 10 7 35 1 3 4 2 76 0 4 2 3 2 4 3 128 0 10 0 2 4 10 2 103 9 1 7 7 0 97 1 1 0 0 42 77 12 8 2 3 3 5 97 11 6 2 5 5 40 5 78 39 39 0 0 59 58 56 54 39 52 39 51 46 44 0 38 0 37 34 18 34 21 36 40 13 8 28
CALL[ ]	/* CallFunction */";
};
width = 979;
},
{
layerId = "59E4F189-9048-43B1-80D4-C98F20AC972F";
shapes = (
{
closed = 1;
nodes = (
(360.333,-12,o),
(425.667,19.667,o),
(467,77,c),
(511,19.667,o),
(581.333,-12,o),
(664,-12,cs),
(781.333,-12,o),
(867.333,58,o),
(898,154,c),
(769,154,l),
(747.667,116.667,o),
(711,93,o),
(663,93,cs),
(592.333,93,o),
(539.667,139.667,o),
(533,217,c),
(910,217,l),
(912,265,ls),
(912,311,o),
(901.667,352.333,o),
(881,389,cs),
(838.333,463.667,o),
(761.333,508,o),
(664,508,cs),
(581.333,508,o),
(512,475.333,o),
(468,418,c),
(426.667,475.333,o),
(362.667,508,o),
(284,508,cs),
(236,508,o),
(193,497,o),
(155,475,cs),
(76.333,429.667,o),
(29,349.333,o),
(29,248,cs),
(29,196.667,o),
(40.333,151.667,o),
(63,113,cs),
(107,34.333,o),
(187,-12,o),
(283,-12,cs)
);
},
{
closed = 1;
nodes = (
(212.333,99,o),
(160,153.333,o),
(160,248,cs),
(160,342.667,o),
(212,397,o),
(284,397,cs),
(353.333,397,o),
(407,342.667,o),
(407,248,cs),
(407,153.333,o),
(353.667,99,o),
(283,99,cs)
);
},
{
closed = 1;
nodes = (
(537,297,l),
(547.667,366.333,o),
(598.667,404,o),
(664,404,cs),
(729.333,404,o),
(779,361,o),
(783,297,c),
(537,297,l)
);
}
);
userData = {
assembly = "MPPEM[ ]	/* MeasurePixelPerEm */
PUSHB[ ]	/* 1 value pushed */
33
LT[ ]	/* LessThan */
IF[ ]	/* If */
NPUSHB[ ]	/* 10 values pushed */
12 1 7 0 35 1 5 3 2 76
ELSE[ ]	/* Else */
NPUSHB[ ]	/* 10 values pushed */
12 1 9 0 35 1 5 3 2 76
EIF[ ]	/* EndIf */
MPPEM[ ]	/* MeasurePixelPerEm */
PUSHB[ ]	/* 1 value pushed */
33
LT[ ]	/* LessThan */
IF[ ]	/* If */
NPUSHB[ ]	/* 43 values pushed */
0 4 2 3 2 4 3 128 0 10 0 2 4 10 2 103 9 1 7 7 0 97 1 1 0 0 42 77 12 8 2 3 3 5 97 11 6 2 5 5 40 5 78
ELSE[ ]	/* Else */
MPPEM[ ]	/* MeasurePixelPerEm */
PUSHB[ ]	/* 1 value pushed */
39
LT[ ]	/* LessThan */
IF[ ]	/* If */
NPUSHB[ ]	/* 53 values pushed */
0 4 2 3 2 4 3 128 0 10 0 2 4 10 2 103 0 9 9 0 97 1 1 0 0 42 77 0 7 7 0 97 1 1 0 0 42 77 12 8 2 3 3 5 97 11 6 2 5 5 40 5 78
ELSE[ ]	/* Else */
NPUSHB[ ]	/* 64 values pushed */
0 4 2 8 2 4 8 128 0 10 0 2 4 10 2 103 0 9 9 0 97 1 1 0 0 42 77 0 7 7 0 97 1 1 0 0 42 77 12 1 8 8 5 97 11 6 2 5 5 40 77 0 3 3 5 97 11 6 2 5 5 40 5 78
EIF[ ]	/* EndIf */
EIF[ ]	/* EndIf */
NPUSHB[ ]	/* 27 values pushed */
39 39 0 0 57 56 54 52 39 50 39 49 45 43 0 38 0 37 34 18 34 21 36 40 13 8 28
CALL[ ]	/* CallFunction */";
};
width = 935;
}
);
note = oe;
unicode = 339;
},
{
glyphname = p;
kernLeft = p;
kernRight = b;
lastChange = "2025-07-25 13:40:37 +0000";
layers = (
{
layerId = "BF20E584-FC8B-4684-8793-6BFBAEEB9F40";
shapes = (
{
closed = 1;
nodes = (
(153,-220,l),
(153,83,l),
(186,23,o),
(253,-12,o),
(334,-12,cs),
(484,-12,o),
(580,98,o),
(580,247,cs),
(580,401,o),
(483,508,o),
(335,508,cs),
(250,508,o),
(189,469,o),
(153,414,c),
(145,496,l),
(69,496,l),
(69,-220,l)
);
},
{
closed = 1;
nodes = (
(226,61,o),
(155,136,o),
(155,248,cs),
(155,359,o),
(224,435,o),
(325,435,cs),
(429,435,o),
(495,356,o),
(495,248,cs),
(495,137,o),
(426,61,o),
(325,61,cs)
);
}
);
userData = {
assembly = "PUSHB[ ]	/* 7 values pushed */
16 2 2 5 4 1 76
MPPEM[ ]	/* MeasurePixelPerEm */
PUSHB[ ]	/* 1 value pushed */
21
LT[ ]	/* LessThan */
IF[ ]	/* If */
NPUSHB[ ]	/* 28 values pushed */
0 4 4 0 97 1 1 0 0 36 77 6 1 5 5 2 97 0 2 2 40 77 0 3 3 38 3 78
ELSE[ ]	/* Else */
NPUSHB[ ]	/* 32 values pushed */
0 0 0 36 77 0 4 4 1 97 0 1 1 42 77 6 1 5 5 2 97 0 2 2 40 77 0 3 3 38 3 78
EIF[ ]	/* EndIf */
NPUSHB[ ]	/* 14 values pushed */
19 19 19 31 19 30 37 19 38 35 16 7 8 27
CALL[ ]	/* CallFunction */";
};
width = 628;
},
{
layerId = "59E4F189-9048-43B1-80D4-C98F20AC972F";
shapes = (
{
closed = 1;
nodes = (
(173,-220,l),
(173,68,l),
(205,24,o),
(263,-12,o),
(339,-12,cs),
(473,-12,o),
(569,97,o),
(569,250,cs),
(569,399,o),
(476,508,o),
(339,508,cs),
(271,508,o),
(211,479,o),
(172,427,c),
(172,496,l),
(45,496,l),
(45,-220,l)
);
},
{
closed = 1;
nodes = (
(228,100,o),
(172,164,o),
(172,248,cs),
(172,333,o),
(229,396,o),
(305,396,cs),
(380,396,o),
(439,339,o),
(439,250,cs),
(439,166,o),
(384,100,o),
(305,100,cs)
);
}
);
userData = {
assembly = "NPUSHB[ ]	/* 10 values pushed */
2 1 4 0 16 1 2 5 2 76
MPPEM[ ]	/* MeasurePixelPerEm */
PUSHB[ ]	/* 1 value pushed */
21
LT[ ]	/* LessThan */
IF[ ]	/* If */
NPUSHB[ ]	/* 28 values pushed */
0 4 4 0 97 1 1 0 0 36 77 6 1 5 5 2 97 0 2 2 40 77 0 3 3 38 3 78
ELSE[ ]	/* Else */
NPUSHB[ ]	/* 32 values pushed */
0 0 0 36 77 0 4 4 1 97 0 1 1 42 77 6 1 5 5 2 97 0 2 2 40 77 0 3 3 38 3 78
EIF[ ]	/* EndIf */
NPUSHB[ ]	/* 14 values pushed */
19 19 19 30 19 29 37 19 38 35 16 7 8 27
CALL[ ]	/* CallFunction */";
};
width = 598;
}
);
note = p;
unicode = 112;
},
{
glyphname = thorn;
kernRight = b;
lastChange = "2025-07-25 13:47:49 +0000";
layers = (
{
layerId = "BF20E584-FC8B-4684-8793-6BFBAEEB9F40";
shapes = (
{
closed = 1;
nodes = (
(153,-220,l),
(153,83,l),
(186,23,o),
(253,-12,o),
(334,-12,cs),
(484,-12,o),
(580,98,o),
(580,247,cs),
(580,401,o),
(483,508,o),
(335,508,cs),
(250,508,o),
(189,469,o),
(153,414,c),
(153,700,l),
(69,700,l),
(69,-220,l)
);
},
{
closed = 1;
nodes = (
(226,61,o),
(155,136,o),
(155,248,cs),
(155,359,o),
(224,435,o),
(325,435,cs),
(429,435,o),
(495,356,o),
(495,248,cs),
(495,137,o),
(426,61,o),
(325,61,cs)
);
}
);
userData = {
assembly = "NPUSHB[ ]	/* 53 values pushed */
16 2 2 5 4 1 76 0 0 0 33 77 0 4 4 1 97 0 1 1 42 77 6 1 5 5 2 97 0 2 2 40 77 0 3 3 38 3 78 19 19 19 31 19 30 37 19 38 35 16 7 8 27
CALL[ ]	/* CallFunction */";
};
width = 628;
},
{
layerId = "59E4F189-9048-43B1-80D4-C98F20AC972F";
shapes = (
{
closed = 1;
nodes = (
(173,-220,l),
(173,68,l),
(209,16,o),
(266,-12,o),
(339,-12,cs),
(478,-12,o),
(583,97,o),
(583,247,cs),
(583,396,o),
(482,508,o),
(339,508,cs),
(268,508,o),
(213,480,o),
(173,425,c),
(173,700,l),
(45,700,l),
(45,-220,l)
);
},
{
closed = 1;
nodes = (
(229,100,o),
(171,161,o),
(171,248,cs),
(171,335,o),
(229,396,o),
(312,396,cs),
(393,396,o),
(453,334,o),
(453,247,cs),
(453,160,o),
(393,100,o),
(312,100,cs)
);
}
);
userData = {
assembly = "NPUSHB[ ]	/* 56 values pushed */
2 1 4 1 15 1 2 5 2 76 0 0 0 33 77 0 4 4 1 97 0 1 1 42 77 6 1 5 5 2 97 0 2 2 40 77 0 3 3 38 3 78 18 18 18 29 18 28 37 19 38 34 16 7 8 27
CALL[ ]	/* CallFunction */";
};
width = 612;
}
);
note = thorn;
unicode = 254;
},
{
glyphname = q;
kernLeft = c;
lastChange = "2025-07-25 13:38:07 +0000";
layers = (
{
layerId = "BF20E584-FC8B-4684-8793-6BFBAEEB9F40";
shapes = (
{
closed = 1;
nodes = (
(476,-220,l),
(560,-220,l),
(560,496,l),
(484,496,l),
(476,413,l),
(441.333,473,o),
(375,508,o),
(295,508,cs),
(144.425,508,o),
(48,400.581,o),
(48,249,cs),
(48,96.037,o),
(148.363,-12,o),
(294,-12,cs),
(378,-12,o),
(440,27.333,o),
(476,82,c),
(476,-220,l)
);
},
{
closed = 1;
nodes = (
(210.119,61,o),
(134,130.32,o),
(134,248,cs),
(134,361.087,o),
(205.227,435,o),
(303,435,cs),
(408.333,435,o),
(473,357.333,o),
(473,248,cs),
(473,140,o),
(409.667,61,o),
(303,61,cs)
);
}
);
userData = {
assembly = "PUSHB[ ]	/* 7 values pushed */
18 13 2 5 4 1 76
MPPEM[ ]	/* MeasurePixelPerEm */
PUSHB[ ]	/* 1 value pushed */
21
LT[ ]	/* LessThan */
IF[ ]	/* If */
NPUSHB[ ]	/* 28 values pushed */
0 4 4 1 97 2 1 1 1 42 77 6 1 5 5 0 97 0 0 0 40 77 0 3 3 38 3 78
ELSE[ ]	/* Else */
NPUSHB[ ]	/* 32 values pushed */
0 2 2 36 77 0 4 4 1 97 0 1 1 42 77 6 1 5 5 0 97 0 0 0 40 77 0 3 3 38 3 78
EIF[ ]	/* EndIf */
NPUSHB[ ]	/* 14 values pushed */
19 19 19 32 19 31 38 17 19 38 33 7 8 27
CALL[ ]	/* CallFunction */";
};
width = 628;
},
{
layerId = "59E4F189-9048-43B1-80D4-C98F20AC972F";
shapes = (
{
closed = 1;
nodes = (
(426,-220,l),
(554,-220,l),
(554,496,l),
(426,496,l),
(426,434,l),
(390,480.667,o),
(329.333,507,o),
(264,507,cs),
(128.767,507,o),
(29,393.457,o),
(29,249,cs),
(31.013,100.035,o),
(128.93,-11,o),
(262,-11,cs),
(336.667,-11,o),
(394,25,o),
(426,65,c),
(426,-220,l)
);
},
{
closed = 1;
nodes = (
(216,100,o),
(160,163.667,o),
(160,249,cs),
(160,331.667,o),
(214.667,396,o),
(292,396,cs),
(369.333,396,o),
(426,333.333,o),
(426,248,cs),
(426,151.98,o),
(360.539,100,o),
(292,100,cs)
);
}
);
userData = {
assembly = "MPPEM[ ]	/* MeasurePixelPerEm */
PUSHB[ ]	/* 1 value pushed */
23
LT[ ]	/* LessThan */
IF[ ]	/* If */
NPUSHB[ ]	/* 10 values pushed */
13 1 4 1 18 1 0 5 2 76
ELSE[ ]	/* Else */
NPUSHB[ ]	/* 10 values pushed */
13 1 4 2 18 1 0 5 2 76
EIF[ ]	/* EndIf */
MPPEM[ ]	/* MeasurePixelPerEm */
PUSHB[ ]	/* 1 value pushed */
23
LT[ ]	/* LessThan */
IF[ ]	/* If */
NPUSHB[ ]	/* 28 values pushed */
0 4 4 1 97 2 1 1 1 42 77 6 1 5 5 0 97 0 0 0 40 77 0 3 3 38 3 78
ELSE[ ]	/* Else */
NPUSHB[ ]	/* 32 values pushed */
0 2 2 36 77 0 4 4 1 97 0 1 1 42 77 6 1 5 5 0 97 0 0 0 40 77 0 3 3 38 3 78
EIF[ ]	/* EndIf */
NPUSHB[ ]	/* 14 values pushed */
19 19 19 31 19 30 39 17 19 38 33 7 8 27
CALL[ ]	/* CallFunction */";
};
width = 599;
}
);
note = q;
unicode = 113;
},
{
glyphname = r;
kernLeft = dotlessi;
kernRight = r;
lastChange = "2025-07-25 13:40:37 +0000";
layers = (
{
anchors = (
{
name = bottom;
pos = (116,0);
},
{
name = top;
pos = (182,496);
}
);
layerId = "BF20E584-FC8B-4684-8793-6BFBAEEB9F40";
shapes = (
{
closed = 1;
nodes = (
(153,0,l),
(153,250,ls),
(153,361,o),
(207,420,o),
(315,420,cs),
(338,420,l),
(338,508,l),
(249,508,o),
(184,468,o),
(152,401,c),
(145,496,l),
(69,496,l),
(69,0,l)
);
}
);
userData = {
assembly = "PUSHB[ ]	/* 6 values pushed */
2 1 3 2 1 76
MPPEM[ ]	/* MeasurePixelPerEm */
PUSHB[ ]	/* 1 value pushed */
21
LT[ ]	/* LessThan */
IF[ ]	/* If */
NPUSHB[ ]	/* 17 values pushed */
0 2 2 0 97 1 1 0 0 36 77 0 3 3 34 3 78
ELSE[ ]	/* Else */
NPUSHB[ ]	/* 21 values pushed */
0 0 0 36 77 0 2 2 1 97 0 1 1 42 77 0 3 3 34 3 78
EIF[ ]	/* EndIf */
PUSHB[ ]	/* 7 values pushed */
19 33 19 16 4 8 26
CALL[ ]	/* CallFunction */";
};
width = 363;
},
{
anchors = (
{
name = bottom;
pos = (116,0);
},
{
name = top;
pos = (171,496);
}
);
layerId = "59E4F189-9048-43B1-80D4-C98F20AC972F";
shapes = (
{
closed = 1;
nodes = (
(172,0,l),
(172,248,ls),
(172,337,o),
(210,374,o),
(293,374,cs),
(327,374,l),
(327,508,l),
(262,508,o),
(207,478,o),
(172,422,c),
(172,496,l),
(45,496,l),
(45,0,l)
);
}
);
userData = {
assembly = "PUSHB[ ]	/* 6 values pushed */
2 1 2 0 1 76
MPPEM[ ]	/* MeasurePixelPerEm */
PUSHB[ ]	/* 1 value pushed */
21
LT[ ]	/* LessThan */
IF[ ]	/* If */
NPUSHB[ ]	/* 17 values pushed */
0 2 2 0 97 1 1 0 0 36 77 0 3 3 34 3 78
ELSE[ ]	/* Else */
NPUSHB[ ]	/* 21 values pushed */
0 0 0 36 77 0 2 2 1 97 0 1 1 42 77 0 3 3 34 3 78
EIF[ ]	/* EndIf */
PUSHB[ ]	/* 7 values pushed */
19 33 19 16 4 8 26
CALL[ ]	/* CallFunction */";
};
width = 342;
}
);
note = r;
unicode = 114;
},
{
glyphname = s;
kernLeft = s;
kernRight = s;
lastChange = "2025-07-25 13:48:22 +0000";
layers = (
{
anchors = (
{
name = bottom;
pos = (255,0);
},
{
name = top;
pos = (250,496);
}
);
layerId = "BF20E584-FC8B-4684-8793-6BFBAEEB9F40";
shapes = (
{
closed = 1;
nodes = (
(377,-12,o),
(449,54,o),
(449,140,cs),
(449,250,o),
(365,271,o),
(267,292,cs),
(190,309,o),
(150,331,o),
(150,368,cs),
(150,409,o),
(185,437,o),
(244,437,cs),
(305,437,o),
(343,407,o),
(350,356,c),
(433,356,l),
(422,452,o),
(350,508,o),
(245,508,cs),
(136,508,o),
(65,448,o),
(65,360,cs),
(65,280,o),
(135,245,o),
(239,222,cs),
(304,209,o),
(363,201,o),
(363,135,cs),
(363,91,o),
(328,59,o),
(260,59,cs),
(188,59,o),
(140,99,o),
(128,155,c),
(42,155,l),
(55,52,o),
(139,-12,o),
(259,-12,cs)
);
}
);
userData = {
assembly = "NPUSHB[ ]	/* 51 values pushed */
0 3 4 0 4 3 0 128 0 0 1 4 0 1 126 0 4 4 2 97 0 2 2 42 77 0 1 1 5 97 6 1 5 5 40 5 78 0 0 0 40 0 39 34 18 43 34 18 7 8 27
CALL[ ]	/* CallFunction */";
};
width = 500;
},
{
anchors = (
{
name = bottom;
pos = (246,0);
},
{
name = top;
pos = (237,496);
}
);
layerId = "59E4F189-9048-43B1-80D4-C98F20AC972F";
shapes = (
{
closed = 1;
nodes = (
(360,-12,o),
(446,45,o),
(446,140,cs),
(446,244,o),
(357,271,o),
(268,294,cs),
(204,310,o),
(163,324,o),
(163,359,cs),
(163,394,o),
(192,407,o),
(235,407,cs),
(283,407,o),
(316,383,o),
(320,342,c),
(441,342,l),
(434,447,o),
(352,508,o),
(239,508,cs),
(124,508,o),
(40,446,o),
(40,357,cs),
(40,255,o),
(132,224,o),
(220,204,cs),
(270,189,o),
(324,181,o),
(324,140,cs),
(324,107,o),
(288,88,o),
(247,88,cs),
(202,88,o),
(163,115,o),
(156,156,c),
(28,156,l),
(34,60,o),
(127,-12,o),
(248,-12,cs)
);
}
);
userData = {
assembly = "MPPEM[ ]	/* MeasurePixelPerEm */
PUSHB[ ]	/* 1 value pushed */
19
LT[ ]	/* LessThan */
IF[ ]	/* If */
NPUSHB[ ]	/* 36 values pushed */
0 3 4 0 4 3 114 0 0 1 4 0 1 126 0 4 4 2 97 0 2 2 42 77 0 1 1 5 97 6 1 5 5 40 5 78
ELSE[ ]	/* Else */
NPUSHB[ ]	/* 37 values pushed */
0 3 4 0 4 3 0 128 0 0 1 4 0 1 126 0 4 4 2 97 0 2 2 42 77 0 1 1 5 97 6 1 5 5 40 5 78
EIF[ ]	/* EndIf */
NPUSHB[ ]	/* 14 values pushed */
0 0 0 42 0 41 34 18 45 34 19 7 8 27
CALL[ ]	/* CallFunction */";
};
width = 474;
}
);
note = s;
unicode = 115;
},
{
glyphname = scedilla;
kernLeft = s;
kernRight = s;
lastChange = "2025-07-25 14:12:08 +0000";
layers = (
{
anchors = (
{
name = bottom;
pos = (255,-259);
},
{
name = top;
pos = (250,496);
}
);
layerId = "BF20E584-FC8B-4684-8793-6BFBAEEB9F40";
shapes = (
{
closed = 1;
nodes = (
(288,-259,ls),
(360,-259,o),
(409,-220,o),
(409,-159,cs),
(409,-96,o),
(359,-62,o),
(280,-63,c),
(280,-11,l),
(383,-4,o),
(449,56,o),
(449,140,cs),
(449,208,o),
(414,245,o),
(365,265,cs),
(340,274,o),
(308,283,o),
(267,292,cs),
(190,309,o),
(150,331,o),
(150,368,cs),
(150,409,o),
(185,437,o),
(244,437,cs),
(305,437,o),
(343,407,o),
(350,356,c),
(433,356,l),
(422,452,o),
(350,508,o),
(245,508,cs),
(136,508,o),
(65,448,o),
(65,360,cs),
(65,280,o),
(135,245,o),
(239,222,cs),
(302,209,o),
(330,201,o),
(349,180,cs),
(358,169,o),
(363,154,o),
(363,135,cs),
(363,91,o),
(328,59,o),
(260,59,cs),
(188,59,o),
(140,99,o),
(128,155,c),
(42,155,l),
(54,63,o),
(123,1,o),
(224,-10,c),
(224,-113,l),
(273,-113,ls),
(318,-113,o),
(341,-128,o),
(341,-158,cs),
(341,-190,o),
(318,-206,o),
(273,-206,cs),
(181,-206,l),
(181,-259,l)
);
}
);
userData = {
assembly = "NPUSHB[ ]	/* 71 values pushed */
7 1 8 7 1 76 0 5 6 2 6 5 2 128 0 2 3 6 2 3 126 0 8 0 1 0 8 1 105 0 0 0 9 0 9 99 0 6 6 4 97 0 4 4 42 77 0 3 3 7 97 0 7 7 40 7 78 55 53 17 27 34 18 43 34 20 34 32 10 8 31
CALL[ ]	/* CallFunction */";
};
width = 500;
},
{
anchors = (
{
name = bottom;
pos = (246,-263);
},
{
name = top;
pos = (237,496);
}
);
layerId = "59E4F189-9048-43B1-80D4-C98F20AC972F";
shapes = (
{
closed = 1;
nodes = (
(283,-263,ls),
(356,-263,o),
(413,-224,o),
(413,-155,cs),
(413,-86,o),
(358,-47,o),
(283,-50,c),
(283,-10,l),
(378,1,o),
(446,56,o),
(446,140,cs),
(445,203,o),
(413,239,o),
(364,262,cs),
(339,273,o),
(307,284,o),
(268,294,cs),
(204,310,o),
(163,324,o),
(163,359,cs),
(163,394,o),
(192,407,o),
(235,407,cs),
(283,407,o),
(316,383,o),
(320,342,c),
(441,342,l),
(434,447,o),
(352,508,o),
(239,508,cs),
(124,508,o),
(40,446,o),
(40,357,cs),
(40,294,o),
(73,257,o),
(124,235,cs),
(149,224,o),
(181,213,o),
(220,204,cs),
(270,189,o),
(324,181,o),
(324,140,cs),
(324,107,o),
(288,88,o),
(247,88,cs),
(202,88,o),
(163,115,o),
(156,156,c),
(28,156,l),
(33,69,o),
(107,7,o),
(203,-8,c),
(203,-118,l),
(264,-118,ls),
(299,-118,o),
(317,-130,o),
(317,-153,cs),
(317,-177,o),
(299,-189,o),
(264,-189,cs),
(152,-189,l),
(152,-263,l)
);
}
);
userData = {
assembly = "PUSHB[ ]	/* 7 values pushed */
49 7 2 7 3 1 76
MPPEM[ ]	/* MeasurePixelPerEm */
PUSHB[ ]	/* 1 value pushed */
9
LT[ ]	/* LessThan */
IF[ ]	/* If */
NPUSHB[ ]	/* 46 values pushed */
0 5 6 2 6 5 114 0 2 3 6 2 3 126 0 3 7 7 3 112 0 7 0 1 0 7 1 106 0 0 0 8 0 8 100 0 6 6 4 97 0 4 4 42 6 78
ELSE[ ]	/* Else */
MPPEM[ ]	/* MeasurePixelPerEm */
PUSHB[ ]	/* 1 value pushed */
19
LT[ ]	/* LessThan */
IF[ ]	/* If */
NPUSHB[ ]	/* 47 values pushed */
0 5 6 2 6 5 114 0 2 3 6 2 3 126 0 3 7 6 3 7 126 0 7 0 1 0 7 1 106 0 0 0 8 0 8 100 0 6 6 4 97 0 4 4 42 6 78
ELSE[ ]	/* Else */
NPUSHB[ ]	/* 48 values pushed */
0 5 6 2 6 5 2 128 0 2 3 6 2 3 126 0 3 7 6 3 7 126 0 7 0 1 0 7 1 106 0 0 0 8 0 8 100 0 6 6 4 97 0 4 4 42 6 78
EIF[ ]	/* EndIf */
EIF[ ]	/* EndIf */
NPUSHB[ ]	/* 12 values pushed */
36 29 34 18 45 34 20 34 32 9 8 31
CALL[ ]	/* CallFunction */";
};
width = 474;
}
);
note = scedilla;
unicode = 351;
},
{
glyphname = germandbls;
kernLeft = b;
kernRight = germandbls;
lastChange = "2025-07-25 14:41:21 +0000";
layers = (
{
layerId = "BF20E584-FC8B-4684-8793-6BFBAEEB9F40";
shapes = (
{
closed = 1;
nodes = (
(549,-10,o),
(626,49,o),
(626,150,cs),
(626,233,o),
(580,275,o),
(489,307,cs),
(418,331,o),
(375,347,o),
(375,386,cs),
(375,411,o),
(390,422,o),
(425,445,cs),
(481,477,o),
(516,508,o),
(516,569,cs),
(516,670,o),
(423,732,o),
(302,732,cs),
(162,732,o),
(71,655,o),
(71,520,cs),
(71,0,l),
(154,0,l),
(154,512,ls),
(154,603,o),
(197,661,o),
(300,661,cs),
(377,661,o),
(432,629,o),
(432,562,cs),
(432,529,o),
(415,506,o),
(383,486,cs),
(340,458,ls),
(309,438,o),
(290,414,o),
(290,375,cs),
(290,310,o),
(346,278,o),
(438,246,cs),
(506,225,o),
(541,200,o),
(541,144,cs),
(541,87,o),
(501,56,o),
(440,56,cs),
(368,56,o),
(326,104,o),
(321,169,c),
(238,169,l),
(247,57,o),
(328,-10,o),
(441,-10,cs)
);
}
);
userData = {
assembly = "MPPEM[ ]	/* MeasurePixelPerEm */
PUSHB[ ]	/* 1 value pushed */
25
LT[ ]	/* LessThan */
IF[ ]	/* If */
NPUSHB[ ]	/* 31 values pushed */
0 0 2 1 2 0 1 128 0 2 2 4 97 0 4 4 41 77 0 1 1 3 97 6 5 2 3 3 34 3 78
ELSE[ ]	/* Else */
MPPEM[ ]	/* MeasurePixelPerEm */
PUSHB[ ]	/* 1 value pushed */
39
LT[ ]	/* LessThan */
IF[ ]	/* If */
NPUSHB[ ]	/* 35 values pushed */
0 0 2 1 2 0 1 128 0 2 2 4 97 0 4 4 41 77 0 3 3 34 77 0 1 1 5 97 6 1 5 5 40 5 78
ELSE[ ]	/* Else */
NPUSHB[ ]	/* 33 values pushed */
0 0 2 1 2 0 1 128 0 4 0 2 0 4 2 105 0 3 3 34 77 0 1 1 5 97 6 1 5 5 40 5 78
EIF[ ]	/* EndIf */
EIF[ ]	/* EndIf */
NPUSHB[ ]	/* 17 values pushed */
0 0 0 52 0 51 35 33 30 29 26 24 34 18 7 8 24
CALL[ ]	/* CallFunction */";
};
width = 664;
},
{
layerId = "59E4F189-9048-43B1-80D4-C98F20AC972F";
shapes = (
{
closed = 1;
nodes = (
(574,-10,o),
(656,54,o),
(656,159,cs),
(656,243,o),
(607,286,o),
(515,321,cs),
(480,334,o),
(413,351,o),
(413,390,cs),
(413,411,o),
(430,425,o),
(457,442,cs),
(509,477,o),
(538,503,o),
(538,556,cs),
(538,665,o),
(439,732,o),
(304,732,cs),
(149,732,o),
(46,647,o),
(46,509,cs),
(46,0,l),
(174,0,l),
(174,499,ls),
(174,583,o),
(216,625,o),
(299,625,cs),
(363,625,o),
(411,598,o),
(411,543,cs),
(411,515,o),
(395,497,o),
(367,476,cs),
(329,450,ls),
(299,429,o),
(284,403,o),
(284,370,cs),
(284,289,o),
(381,257,o),
(438,238,cs),
(502,215,o),
(531,199,o),
(531,151,cs),
(531,107,o),
(500,85,o),
(452,85,cs),
(399,85,o),
(364,119,o),
(357,175,c),
(236,175,l),
(251,54,o),
(335,-10,o),
(454,-10,cs)
);
}
);
userData = {
assembly = "MPPEM[ ]	/* MeasurePixelPerEm */
PUSHB[ ]	/* 1 value pushed */
25
LT[ ]	/* LessThan */
IF[ ]	/* If */
NPUSHB[ ]	/* 31 values pushed */
0 0 2 1 2 0 1 128 0 2 2 4 97 0 4 4 41 77 0 1 1 3 97 6 5 2 3 3 34 3 78
ELSE[ ]	/* Else */
MPPEM[ ]	/* MeasurePixelPerEm */
PUSHB[ ]	/* 1 value pushed */
29
LT[ ]	/* LessThan */
IF[ ]	/* If */
NPUSHB[ ]	/* 35 values pushed */
0 0 2 1 2 0 1 128 0 2 2 4 97 0 4 4 41 77 0 3 3 34 77 0 1 1 5 97 6 1 5 5 40 5 78
ELSE[ ]	/* Else */
NPUSHB[ ]	/* 33 values pushed */
0 0 2 1 2 0 1 128 0 4 0 2 0 4 2 105 0 3 3 34 77 0 1 1 5 97 6 1 5 5 40 5 78
EIF[ ]	/* EndIf */
EIF[ ]	/* EndIf */
NPUSHB[ ]	/* 17 values pushed */
0 0 0 53 0 52 35 33 29 28 26 24 34 18 7 8 24
CALL[ ]	/* CallFunction */";
};
width = 667;
}
);
note = germandbls;
unicode = 223;
},
{
glyphname = t;
kernLeft = t;
kernRight = t;
lastChange = "2025-07-25 13:38:07 +0000";
layers = (
{
anchors = (
{
name = bottom;
pos = (238,0);
},
{
name = top;
pos = (194,496);
},
{
name = topright;
pos = (253,992);
}
);
layerId = "BF20E584-FC8B-4684-8793-6BFBAEEB9F40";
shapes = (
{
closed = 1;
nodes = (
(342,0,l),
(342,72,l),
(289,72,ls),
(223.667,72,o),
(203,89.333,o),
(203,152,cs),
(203,425,l),
(342,425,l),
(342,496,l),
(203,496,l),
(203,615,l),
(119,615,l),
(119,496,l),
(33,496,l),
(33,425,l),
(119,425,l),
(119,152,ls),
(119,41.333,o),
(169,0,o),
(265,0,cs)
);
}
);
userData = {
assembly = "NPUSHB[ ]	/* 44 values pushed */
0 2 1 2 133 4 1 0 0 1 95 3 1 1 1 36 77 0 5 5 6 96 7 1 6 6 34 6 78 0 0 0 19 0 18 35 17 17 17 17 19 8 8 28
CALL[ ]	/* CallFunction */";
};
width = 387;
},
{
anchors = (
{
name = bottom;
pos = (219,0);
},
{
name = top;
pos = (176,496);
},
{
name = topright;
pos = (253,992);
}
);
layerId = "59E4F189-9048-43B1-80D4-C98F20AC972F";
shapes = (
{
closed = 1;
nodes = (
(320,0,l),
(320,107,l),
(261,107,ls),
(226.333,107,o),
(207,120.333,o),
(207,155,cs),
(207,389,l),
(320,389,l),
(320,496,l),
(207,496,l),
(207,617,l),
(79,617,l),
(79,496,l),
(15,496,l),
(15,389,l),
(79,389,l),
(79,156,ls),
(79,52,o),
(132.667,0,o),
(240,0,cs)
);
}
);
userData = {
assembly = "NPUSHB[ ]	/* 44 values pushed */
0 2 1 2 133 4 1 0 0 1 95 3 1 1 1 36 77 0 5 5 6 96 7 1 6 6 34 6 78 0 0 0 18 0 17 35 17 17 17 17 18 8 8 28
CALL[ ]	/* CallFunction */";
};
width = 351;
}
);
note = t;
unicode = 116;
},
{
glyphname = tcedilla;
kernLeft = t;
kernRight = t;
lastChange = "2025-07-25 14:43:36 +0000";
layers = (
{
anchors = (
{
name = bottom;
pos = (238,-259);
},
{
name = top;
pos = (194,496);
},
{
name = topright;
pos = (253,992);
}
);
layerId = "BF20E584-FC8B-4684-8793-6BFBAEEB9F40";
shapes = (
{
closed = 1;
nodes = (
(271,-259,ls),
(343,-259,o),
(392,-220,o),
(392,-159,cs),
(392,-96,o),
(342,-62,o),
(263,-63,c),
(263,0,l),
(342,0,l),
(342,72,l),
(289,72,ls),
(224,72,o),
(203,89,o),
(203,152,cs),
(203,425,l),
(342,425,l),
(342,496,l),
(203,496,l),
(203,615,l),
(119,615,l),
(119,496,l),
(33,496,l),
(33,425,l),
(119,425,l),
(119,152,ls),
(119,67,o),
(148,23,o),
(207,7,c),
(207,-113,l),
(256,-113,ls),
(301,-113,o),
(324,-128,o),
(324,-158,cs),
(324,-190,o),
(301,-206,o),
(256,-206,cs),
(164,-206,l),
(164,-259,l)
);
}
);
userData = {
assembly = "NPUSHB[ ]	/* 65 values pushed */
16 1 10 9 1 76 0 6 5 6 133 0 0 0 3 2 0 3 105 0 2 0 1 2 1 99 8 1 4 4 5 95 7 1 5 5 36 77 0 9 9 10 95 0 10 10 34 10 78 36 35 34 32 17 17 17 17 21 34 33 36 17 11 8 31
CALL[ ]	/* CallFunction */";
};
width = 387;
},
{
anchors = (
{
name = bottom;
pos = (219,-263);
},
{
name = top;
pos = (176,496);
},
{
name = topright;
pos = (253,992);
}
);
layerId = "59E4F189-9048-43B1-80D4-C98F20AC972F";
shapes = (
{
closed = 1;
nodes = (
(256,-263,ls),
(329,-263,o),
(386,-224,o),
(386,-155,cs),
(386,-86,o),
(331,-47,o),
(256,-50,c),
(256,0,l),
(320,0,l),
(320,107,l),
(261,107,ls),
(226,107,o),
(207,120,o),
(207,155,cs),
(207,389,l),
(320,389,l),
(320,496,l),
(207,496,l),
(207,617,l),
(79,617,l),
(79,496,l),
(15,496,l),
(15,389,l),
(79,389,l),
(79,156,ls),
(79,75,o),
(111,26,o),
(176,8,c),
(176,-118,l),
(237,-118,ls),
(272,-118,o),
(290,-130,o),
(290,-153,cs),
(290,-177,o),
(272,-189,o),
(237,-189,cs),
(125,-189,l),
(125,-263,l)
);
}
);
userData = {
assembly = "NPUSHB[ ]	/* 65 values pushed */
7 1 8 7 1 76 0 4 3 4 133 0 9 0 1 0 9 1 106 0 0 0 10 0 10 99 6 1 2 2 3 95 5 1 3 3 36 77 0 7 7 8 95 0 8 8 34 8 78 34 32 28 27 17 35 17 17 17 17 20 34 32 11 8 31
CALL[ ]	/* CallFunction */";
};
width = 351;
}
);
note = uni0163;
unicode = 355;
},
{
glyphname = u;
kernLeft = u;
lastChange = "2025-07-25 13:38:07 +0000";
layers = (
{
anchors = (
{
name = bottom;
pos = (286,0);
},
{
name = ogonek;
pos = (503,0);
},
{
name = top;
pos = (284,496);
},
{
name = topright;
pos = (552,496);
}
);
layerId = "BF20E584-FC8B-4684-8793-6BFBAEEB9F40";
shapes = (
{
closed = 1;
nodes = (
(327,-12,o),
(390,26.333,o),
(422,89,c),
(427,0,l),
(503,0,l),
(503,496,l),
(419,496,l),
(419,239,ls),
(419,127,o),
(358,60,o),
(270,60,cs),
(184.667,60,o),
(142,111.667,o),
(142,215,cs),
(142,496,l),
(58,496,l),
(58,206,ls),
(58,62,o),
(131,-12,o),
(251,-12,cs)
);
}
);
userData = {
assembly = "PUSHB[ ]	/* 6 values pushed */
15 1 1 0 1 76
MPPEM[ ]	/* MeasurePixelPerEm */
PUSHB[ ]	/* 1 value pushed */
21
LT[ ]	/* LessThan */
IF[ ]	/* If */
NPUSHB[ ]	/* 19 values pushed */
2 1 0 0 36 77 0 1 1 3 97 5 4 2 3 3 34 3 78
ELSE[ ]	/* Else */
NPUSHB[ ]	/* 23 values pushed */
2 1 0 0 36 77 0 3 3 34 77 0 1 1 4 97 5 1 4 4 40 4 78
EIF[ ]	/* EndIf */
NPUSHB[ ]	/* 13 values pushed */
0 0 0 18 0 17 17 19 34 19 6 8 26
CALL[ ]	/* CallFunction */";
};
width = 572;
},
{
anchors = (
{
name = bottom;
pos = (281,0);
},
{
name = ogonek;
pos = (517,0);
},
{
name = top;
pos = (280,496);
},
{
name = topright;
pos = (542,496);
}
);
layerId = "59E4F189-9048-43B1-80D4-C98F20AC972F";
shapes = (
{
closed = 1;
nodes = (
(299,-12,o),
(357,14,o),
(389,58,c),
(389,0,l),
(517,0,l),
(517,496,l),
(389,496,l),
(389,221,ls),
(389,142.333,o),
(350.667,96,o),
(276,96,cs),
(205.333,96,o),
(164,146.333,o),
(164,221,cs),
(164,496,l),
(37,496,l),
(37,202,ls),
(37,74,o),
(113.667,-12,o),
(239,-12,cs)
);
}
);
userData = {
assembly = "PUSHB[ ]	/* 6 values pushed */
16 1 3 1 1 76
MPPEM[ ]	/* MeasurePixelPerEm */
PUSHB[ ]	/* 1 value pushed */
21
LT[ ]	/* LessThan */
IF[ ]	/* If */
NPUSHB[ ]	/* 19 values pushed */
2 1 0 0 36 77 0 1 1 3 98 5 4 2 3 3 34 3 78
ELSE[ ]	/* Else */
NPUSHB[ ]	/* 23 values pushed */
2 1 0 0 36 77 0 3 3 34 77 0 1 1 4 98 5 1 4 4 40 4 78
EIF[ ]	/* EndIf */
NPUSHB[ ]	/* 13 values pushed */
0 0 0 19 0 18 17 19 35 19 6 8 26
CALL[ ]	/* CallFunction */";
};
width = 562;
}
);
note = u;
unicode = 117;
},
{
glyphname = uogonek;
kernLeft = u;
lastChange = "2025-07-25 13:38:07 +0000";
layers = (
{
anchors = (
{
name = bottom;
pos = (286,0);
},
{
name = ogonek;
pos = (503,0);
},
{
name = top;
pos = (284,496);
},
{
name = topright;
pos = (552,496);
}
);
layerId = "BF20E584-FC8B-4684-8793-6BFBAEEB9F40";
shapes = (
{
closed = 1;
nodes = (
(457,-203,o),
(482,-198.667,o),
(506,-190,c),
(506,-134,l),
(483.333,-144,o),
(461.667,-149,o),
(441,-149,cs),
(405,-149,o),
(381,-130.667,o),
(381,-100,cs),
(381,-72.667,o),
(402.333,-48.667,o),
(445,-28,cs),
(503,0,l),
(503,496,l),
(419,496,l),
(419,239,ls),
(419,127,o),
(358,60,o),
(270,60,cs),
(184.667,60,o),
(142,111.667,o),
(142,215,cs),
(142,496,l),
(58,496,l),
(58,206,ls),
(58,62,o),
(131,-12,o),
(251,-12,cs),
(327,-12,o),
(390,26.333,o),
(422,89,c),
(426,19,l),
(344.667,-17,o),
(313,-58.667,o),
(313,-108,cs),
(313,-170.667,o),
(364.333,-203,o),
(431,-203,cs)
);
}
);
userData = {
assembly = "NPUSHB[ ]	/* 19 values pushed */
31 1 1 0 30 13 2 5 1 21 1 3 5 22 1 4 3 4 76
MPPEM[ ]	/* MeasurePixelPerEm */
PUSHB[ ]	/* 1 value pushed */
29
LT[ ]	/* LessThan */
IF[ ]	/* If */
NPUSHB[ ]	/* 28 values pushed */
2 1 0 0 36 77 0 1 1 5 97 6 1 5 5 40 77 0 3 3 4 98 0 4 4 38 4 78
ELSE[ ]	/* Else */
NPUSHB[ ]	/* 25 values pushed */
0 3 0 4 3 4 102 2 1 0 0 36 77 0 1 1 5 97 6 1 5 5 40 5 78
EIF[ ]	/* EndIf */
NPUSHB[ ]	/* 14 values pushed */
0 0 0 34 0 33 35 38 19 34 19 7 8 27
CALL[ ]	/* CallFunction */";
};
width = 572;
},
{
anchors = (
{
name = bottom;
pos = (281,0);
},
{
name = ogonek;
pos = (517,0);
},
{
name = top;
pos = (280,496);
},
{
name = topright;
pos = (542,496);
}
);
layerId = "59E4F189-9048-43B1-80D4-C98F20AC972F";
shapes = (
{
closed = 1;
nodes = (
(463.667,-210,o),
(492.667,-205.333,o),
(522,-196,c),
(522,-120,l),
(496,-130,o),
(472.333,-135,o),
(451,-135,cs),
(419,-135,o),
(399,-119.333,o),
(399,-94,cs),
(399,-70,o),
(418.333,-50,o),
(465,-26,cs),
(517,0,l),
(517,496,l),
(389,496,l),
(389,221,ls),
(389,142.333,o),
(350.667,96,o),
(276,96,cs),
(205.333,96,o),
(164,146.333,o),
(164,221,cs),
(164,496,l),
(37,496,l),
(37,202,ls),
(37,74,o),
(113.667,-12,o),
(239,-12,cs),
(299,-12,o),
(357,14,o),
(389,58,c),
(389,14,l),
(326.333,-22,o),
(302,-60.667,o),
(302,-106,cs),
(302,-174,o),
(357.667,-210,o),
(435,-210,cs)
);
}
);
userData = {
assembly = "NPUSHB[ ]	/* 16 values pushed */
33 32 14 3 5 1 23 1 3 5 24 1 4 3 3 76
MPPEM[ ]	/* MeasurePixelPerEm */
PUSHB[ ]	/* 1 value pushed */
50
LT[ ]	/* LessThan */
IF[ ]	/* If */
NPUSHB[ ]	/* 28 values pushed */
2 1 0 0 36 77 0 1 1 5 98 6 1 5 5 40 77 0 3 3 4 97 0 4 4 38 4 78
ELSE[ ]	/* Else */
NPUSHB[ ]	/* 25 values pushed */
0 3 0 4 3 4 101 2 1 0 0 36 77 0 1 1 5 98 6 1 5 5 40 5 78
EIF[ ]	/* EndIf */
NPUSHB[ ]	/* 14 values pushed */
0 0 0 36 0 35 35 39 19 35 19 7 8 27
CALL[ ]	/* CallFunction */";
};
width = 562;
}
);
note = uogonek;
unicode = 371;
},
{
glyphname = v;
kernLeft = v;
kernRight = v;
lastChange = "2025-07-25 13:40:37 +0000";
layers = (
{
layerId = "BF20E584-FC8B-4684-8793-6BFBAEEB9F40";
shapes = (
{
closed = 1;
nodes = (
(309,0,l),
(497,496,l),
(411,496,l),
(261,81,l),
(112,496,l),
(24,496,l),
(212,0,l)
);
}
);
userData = {
assembly = "NPUSHB[ ]	/* 24 values pushed */
2 1 2 0 1 76 1 1 0 0 36 77 0 2 2 34 2 78 17 18 16 3 8 25
CALL[ ]	/* CallFunction */";
};
width = 521;
},
{
layerId = "59E4F189-9048-43B1-80D4-C98F20AC972F";
shapes = (
{
closed = 1;
nodes = (
(339,0,l),
(525,496,l),
(390,496,l),
(263,115,l),
(135,496,l),
(-1,496,l),
(185,0,l)
);
}
);
userData = {
assembly = "NPUSHB[ ]	/* 24 values pushed */
2 1 2 0 1 76 1 1 0 0 36 77 0 2 2 34 2 78 17 18 16 3 8 25
CALL[ ]	/* CallFunction */";
};
width = 524;
}
);
note = v;
unicode = 118;
},
{
glyphname = w;
kernLeft = w;
kernRight = w;
lastChange = "2025-07-25 13:40:37 +0000";
layers = (
{
anchors = (
{
name = bottom;
pos = (377,0);
},
{
name = top;
pos = (377,496);
}
);
layerId = "BF20E584-FC8B-4684-8793-6BFBAEEB9F40";
shapes = (
{
closed = 1;
nodes = (
(255,0,l),
(377,409,l),
(499,0,l),
(585,0,l),
(730,496,l),
(645,496,l),
(541,107,l),
(424,496,l),
(329,496,l),
(213,107,l),
(108,496,l),
(24,496,l),
(169,0,l)
);
}
);
userData = {
assembly = "NPUSHB[ ]	/* 30 values pushed */
10 5 2 3 3 0 1 76 2 1 2 0 0 36 77 4 1 3 3 34 3 78 18 17 18 18 16 5 8 27
CALL[ ]	/* CallFunction */";
};
width = 754;
},
{
anchors = (
{
name = bottom;
pos = (374,0);
},
{
name = top;
pos = (375,496);
}
);
layerId = "59E4F189-9048-43B1-80D4-C98F20AC972F";
shapes = (
{
closed = 1;
nodes = (
(283,0,l),
(375,347,l),
(467,1,l),
(604,1,l),
(751,496,l),
(629,496,l),
(540,120,l),
(446,496,l),
(311,496,l),
(215,119,l),
(126,496,l),
(-3,496,l),
(145,0,l)
);
}
);
userData = {
assembly = "NPUSHB[ ]	/* 30 values pushed */
10 5 2 3 3 0 1 76 2 1 2 0 0 36 77 4 1 3 3 34 3 78 18 17 18 18 16 5 8 27
CALL[ ]	/* CallFunction */";
};
width = 747;
}
);
note = w;
unicode = 119;
},
{
glyphname = x;
kernLeft = x;
kernRight = x;
lastChange = "2025-07-25 13:40:37 +0000";
layers = (
{
layerId = "BF20E584-FC8B-4684-8793-6BFBAEEB9F40";
shapes = (
{
closed = 1;
nodes = (
(110,0,l),
(249,205,l),
(389,0,l),
(479,0,l),
(307,248,l),
(479,496,l),
(389,496,l),
(249,291,l),
(110,496,l),
(19,496,l),
(191,248,l),
(19,0,l)
);
}
);
userData = {
assembly = "NPUSHB[ ]	/* 28 values pushed */
9 6 3 3 2 0 1 76 1 1 0 0 36 77 3 1 2 2 34 2 78 18 18 18 17 4 8 26
CALL[ ]	/* CallFunction */";
};
width = 498;
},
{
layerId = "59E4F189-9048-43B1-80D4-C98F20AC972F";
shapes = (
{
closed = 1;
nodes = (
(136,0,l),
(228,154,l),
(332,0,l),
(475,0,l),
(308,249,l),
(473,496,l),
(337,496,l),
(244,343,l),
(142,496,l),
(-2,496,l),
(164,249,l),
(0,0,l)
);
}
);
userData = {
assembly = "NPUSHB[ ]	/* 28 values pushed */
9 6 3 3 2 0 1 76 1 1 0 0 36 77 3 1 2 2 34 2 78 18 18 18 17 4 8 26
CALL[ ]	/* CallFunction */";
};
width = 472;
}
);
note = x;
unicode = 120;
},
{
glyphname = y;
kernLeft = y;
kernRight = y;
lastChange = "2025-07-25 13:40:37 +0000";
layers = (
{
anchors = (
{
name = bottom;
pos = (278,0);
},
{
name = top;
pos = (278,496);
}
);
layerId = "BF20E584-FC8B-4684-8793-6BFBAEEB9F40";
shapes = (
{
closed = 1;
nodes = (
(211,-220,l),
(536,496,l),
(449,496,l),
(275,110,l),
(111,496,l),
(20,496,l),
(233,20,l),
(123,-220,l)
);
}
);
userData = {
assembly = "NPUSHB[ ]	/* 24 values pushed */
3 1 2 0 1 76 1 1 0 0 36 77 0 2 2 38 2 78 17 18 17 3 8 25
CALL[ ]	/* CallFunction */";
};
width = 556;
},
{
anchors = (
{
name = bottom;
pos = (268,0);
},
{
name = top;
pos = (268,496);
}
);
layerId = "59E4F189-9048-43B1-80D4-C98F20AC972F";
shapes = (
{
closed = 1;
nodes = (
(226,-220,l),
(536,496,l),
(401,496,l),
(270,158,l),
(142,496,l),
(-1,496,l),
(200,23,l),
(91,-220,l)
);
}
);
userData = {
assembly = "NPUSHB[ ]	/* 24 values pushed */
3 1 2 0 1 76 1 1 0 0 36 77 0 2 2 38 2 78 17 18 17 3 8 25
CALL[ ]	/* CallFunction */";
};
width = 535;
}
);
note = y;
unicode = 121;
},
{
glyphname = z;
kernLeft = z;
lastChange = "2025-07-25 13:40:37 +0000";
layers = (
{
anchors = (
{
name = bottom;
pos = (226,0);
},
{
name = top;
pos = (226,496);
}
);
layerId = "BF20E584-FC8B-4684-8793-6BFBAEEB9F40";
shapes = (
{
closed = 1;
nodes = (
(410,0,l),
(410,70,l),
(129,70,l),
(405,427,l),
(405,496,l),
(40,496,l),
(40,426,l),
(311,426,l),
(35,69,l),
(35,0,l)
);
}
);
userData = {
assembly = "NPUSHB[ ]	/* 38 values pushed */
5 1 0 1 0 1 3 2 2 76 0 0 0 1 95 0 1 1 36 77 0 2 2 3 95 0 3 3 34 3 78 17 18 17 17 4 8 26
CALL[ ]	/* CallFunction */";
};
width = 452;
},
{
anchors = (
{
name = bottom;
pos = (207,0);
},
{
name = top;
pos = (207,496);
}
);
layerId = "59E4F189-9048-43B1-80D4-C98F20AC972F";
shapes = (
{
closed = 1;
nodes = (
(391,0,l),
(391,105,l),
(167,105,l),
(388,394,l),
(388,496,l),
(23,496,l),
(23,392,l),
(242,392,l),
(22,103,l),
(22,0,l)
);
}
);
userData = {
assembly = "NPUSHB[ ]	/* 38 values pushed */
5 1 0 1 0 1 3 2 2 76 0 0 0 1 95 0 1 1 36 77 0 2 2 3 95 0 3 3 34 3 78 17 18 17 17 4 8 26
CALL[ ]	/* CallFunction */";
};
width = 413;
}
);
note = z;
unicode = 122;
},
{
glyphname = saltillo;
lastChange = "2025-07-25 14:43:36 +0000";
layers = (
{
layerId = "BF20E584-FC8B-4684-8793-6BFBAEEB9F40";
shapes = (
{
closed = 1;
nodes = (
(141,339,l),
(156,700,l),
(65,700,l),
(80,339,l)
);
}
);
userData = {
assembly = "NPUSHB[ ]	/* 16 values pushed */
0 1 1 0 95 0 0 0 33 1 78 17 16 2 8 24
CALL[ ]	/* CallFunction */";
};
width = 221;
},
{
layerId = "59E4F189-9048-43B1-80D4-C98F20AC972F";
shapes = (
{
closed = 1;
nodes = (
(177,330,l),
(197,700,l),
(60,700,l),
(79,330,l)
);
}
);
userData = {
assembly = "NPUSHB[ ]	/* 16 values pushed */
0 1 1 0 95 0 0 0 33 1 78 17 16 2 8 24
CALL[ ]	/* CallFunction */";
};
width = 257;
}
);
note = uniA78C;
unicode = 42892;
},
{
glyphname = fi;
lastChange = "2025-07-25 13:40:37 +0000";
layers = (
{
anchors = (
{
name = caret_1;
pos = (284,0);
}
);
layerId = "BF20E584-FC8B-4684-8793-6BFBAEEB9F40";
shapes = (
{
closed = 1;
nodes = (
(180,0,l),
(180,425,l),
(302,425,l),
(302,496,l),
(180,496,l),
(180,560,ls),
(180,609,o),
(199,628,o),
(250,628,cs),
(287,628,l),
(287,700,l),
(237,700,ls),
(144,700,o),
(96,657,o),
(96,562,cs),
(96,496,l),
(21,496,l),
(21,425,l),
(96,425,l),
(96,0,l)
);
},
{
closed = 1;
nodes = (
(488,0,l),
(488,496,l),
(404,496,l),
(404,0,l)
);
},
{
closed = 1;
nodes = (
(480,591,o),
(505,616,o),
(505,649,cs),
(505,681,o),
(480,705,o),
(447,705,cs),
(415,705,o),
(389,681,o),
(389,649,cs),
(389,616,o),
(415,591,o),
(447,591,cs)
);
}
);
userData = {
assembly = "MPPEM[ ]	/* MeasurePixelPerEm */
PUSHB[ ]	/* 1 value pushed */
46
LT[ ]	/* LessThan */
IF[ ]	/* If */
NPUSHB[ ]	/* 43 values pushed */
0 3 3 2 97 9 1 2 2 33 77 11 1 10 10 2 97 9 1 2 2 33 77 5 1 0 0 1 95 7 4 2 1 1 36 77 8 1 6 6 34 6 78
ELSE[ ]	/* Else */
NPUSHB[ ]	/* 41 values pushed */
0 3 3 2 97 0 2 2 33 77 11 1 10 10 9 97 0 9 9 33 77 5 1 0 0 1 95 7 4 2 1 1 36 77 8 1 6 6 34 6 78
EIF[ ]	/* EndIf */
NPUSHB[ ]	/* 20 values pushed */
24 24 24 35 24 34 30 28 17 17 17 17 19 33 35 17 16 12 8 31
CALL[ ]	/* CallFunction */";
};
width = 567;
},
{
anchors = (
{
name = caret_1;
pos = (267,0);
}
);
layerId = "59E4F189-9048-43B1-80D4-C98F20AC972F";
shapes = (
{
closed = 1;
nodes = (
(186,0,l),
(186,389,l),
(275,389,l),
(275,496,l),
(186,496,l),
(186,534,ls),
(186,575,o),
(203,591,o),
(247,591,cs),
(269,591,l),
(269,700,l),
(227,700,ls),
(114,700,o),
(58,645,o),
(58,534,cs),
(58,496,l),
(0,496,l),
(0,389,l),
(58,389,l),
(58,0,l)
);
},
{
closed = 1;
nodes = (
(484,0,l),
(484,496,l),
(356,496,l),
(356,0,l)
);
},
{
closed = 1;
nodes = (
(467,560,o),
(503,596,o),
(503,643,cs),
(503,690,o),
(467,726,o),
(420,726,cs),
(375,726,o),
(337,690,o),
(337,643,cs),
(337,598,o),
(375,560,o),
(420,560,cs)
);
}
);
userData = {
assembly = "MPPEM[ ]	/* MeasurePixelPerEm */
PUSHB[ ]	/* 1 value pushed */
29
LT[ ]	/* LessThan */
IF[ ]	/* If */
NPUSHB[ ]	/* 41 values pushed */
0 3 3 2 97 0 2 2 33 77 11 1 10 10 9 97 0 9 9 41 77 5 1 0 0 1 95 7 4 2 1 1 36 77 8 1 6 6 34 6 78
ELSE[ ]	/* Else */
MPPEM[ ]	/* MeasurePixelPerEm */
PUSHB[ ]	/* 1 value pushed */
35
LT[ ]	/* LessThan */
IF[ ]	/* If */
NPUSHB[ ]	/* 41 values pushed */
0 3 3 2 97 0 2 2 33 77 11 1 10 10 9 97 0 9 9 39 77 5 1 0 0 1 95 7 4 2 1 1 36 77 8 1 6 6 34 6 78
ELSE[ ]	/* Else */
NPUSHB[ ]	/* 39 values pushed */
0 9 11 1 10 1 9 10 105 0 3 3 2 97 0 2 2 33 77 5 1 0 0 1 95 7 4 2 1 1 36 77 8 1 6 6 34 6 78
EIF[ ]	/* EndIf */
EIF[ ]	/* EndIf */
NPUSHB[ ]	/* 20 values pushed */
23 23 23 34 23 33 29 27 17 17 17 17 19 33 34 17 16 12 8 31
CALL[ ]	/* CallFunction */";
};
width = 534;
}
);
note = fi;
unicode = 64257;
},
{
glyphname = fl;
kernRight = fl;
lastChange = "2025-07-25 13:40:37 +0000";
layers = (
{
anchors = (
{
name = caret_1;
pos = (278,0);
}
);
layerId = "BF20E584-FC8B-4684-8793-6BFBAEEB9F40";
shapes = (
{
closed = 1;
nodes = (
(180,0,l),
(180,425,l),
(302,425,l),
(302,496,l),
(180,496,l),
(180,560,ls),
(180,609,o),
(199,628,o),
(250,628,cs),
(287,628,l),
(287,700,l),
(237,700,ls),
(144,700,o),
(96,657,o),
(96,562,cs),
(96,496,l),
(21,496,l),
(21,425,l),
(96,425,l),
(96,0,l)
);
},
{
closed = 1;
nodes = (
(486,0,l),
(486,700,l),
(402,700,l),
(402,0,l)
);
}
);
userData = {
assembly = "NPUSHB[ ]	/* 42 values pushed */
0 3 3 2 97 7 1 2 2 33 77 5 1 0 0 1 95 4 1 1 1 36 77 8 1 6 6 34 6 78 17 17 17 17 19 33 35 17 16 9 8 31
CALL[ ]	/* CallFunction */";
};
width = 555;
},
{
anchors = (
{
name = caret_1;
pos = (264,0);
}
);
layerId = "59E4F189-9048-43B1-80D4-C98F20AC972F";
shapes = (
{
closed = 1;
nodes = (
(186,0,l),
(186,389,l),
(275,389,l),
(275,496,l),
(186,496,l),
(186,534,ls),
(186,575,o),
(203,591,o),
(247,591,cs),
(269,591,l),
(269,700,l),
(227,700,ls),
(114,700,o),
(58,645,o),
(58,534,cs),
(58,496,l),
(0,496,l),
(0,389,l),
(58,389,l),
(58,0,l)
);
},
{
closed = 1;
nodes = (
(481,0,l),
(481,700,l),
(353,700,l),
(353,0,l)
);
}
);
userData = {
assembly = "NPUSHB[ ]	/* 42 values pushed */
0 3 3 2 97 7 1 2 2 33 77 5 1 0 0 1 95 4 1 1 1 36 77 8 1 6 6 34 6 78 17 17 17 17 19 33 34 17 16 9 8 31
CALL[ ]	/* CallFunction */";
};
width = 527;
}
);
note = fl;
unicode = 64258;
},
{
glyphname = ordfeminine;
lastChange = "2025-07-25 13:38:07 +0000";
layers = (
{
layerId = "BF20E584-FC8B-4684-8793-6BFBAEEB9F40";
shapes = (
{
closed = 1;
nodes = (
(219.667,347,o),
(262,374.333,o),
(286,417,c),
(296.667,374.333,o),
(328.333,354,o),
(371,354,cs),
(378,354,l),
(378,406,l),
(352.667,406,o),
(340,419,o),
(340,445,cs),
(340,568,ls),
(340,653.333,o),
(292.667,710,o),
(194,710,cs),
(116.667,710,o),
(49.333,665,o),
(44,593,c),
(104,593,l),
(113.333,635.667,o),
(147.333,660,o),
(194,660,cs),
(247.333,660,o),
(281,630.667,o),
(281,564,c),
(188,564,ls),
(100,564,o),
(37,528.667,o),
(37,454,cs),
(37,386,o),
(90.333,347,o),
(165,347,cs)
);
},
{
closed = 1;
nodes = (
(130,396,o),
(98,416,o),
(98,456,cs),
(98,497.333,o),
(129.667,518,o),
(193,518,cs),
(281,518,l),
(281,452.667,o),
(240.667,396,o),
(174,396,cs)
);
}
);
userData = {
assembly = "PUSHB[ ]	/* 6 values pushed */
27 1 4 7 1 76
MPPEM[ ]	/* MeasurePixelPerEm */
PUSHB[ ]	/* 1 value pushed */
9
LT[ ]	/* LessThan */
IF[ ]	/* If */
NPUSHB[ ]	/* 41 values pushed */
0 2 1 0 1 2 0 128 0 0 0 7 4 0 7 103 0 1 1 3 97 0 3 3 59 77 10 8 2 4 4 5 97 9 6 2 5 5 58 5 78
ELSE[ ]	/* Else */
MPPEM[ ]	/* MeasurePixelPerEm */
PUSHB[ ]	/* 1 value pushed */
10
LT[ ]	/* LessThan */
IF[ ]	/* If */
NPUSHB[ ]	/* 52 values pushed */
0 2 1 0 1 2 0 128 0 0 0 7 4 0 7 103 0 1 1 3 97 0 3 3 59 77 0 4 4 5 97 9 6 2 5 5 58 77 10 1 8 8 5 97 9 6 2 5 5 58 5 78
ELSE[ ]	/* Else */
MPPEM[ ]	/* MeasurePixelPerEm */
PUSHB[ ]	/* 1 value pushed */
12
LT[ ]	/* LessThan */
IF[ ]	/* If */
NPUSHB[ ]	/* 41 values pushed */
0 2 1 0 1 2 0 128 0 0 0 7 4 0 7 103 0 1 1 3 97 0 3 3 59 77 10 8 2 4 4 5 97 9 6 2 5 5 58 5 78
ELSE[ ]	/* Else */
MPPEM[ ]	/* MeasurePixelPerEm */
PUSHB[ ]	/* 1 value pushed */
13
LT[ ]	/* LessThan */
IF[ ]	/* If */
NPUSHB[ ]	/* 52 values pushed */
0 2 1 0 1 2 0 128 0 0 0 7 4 0 7 103 0 1 1 3 97 0 3 3 59 77 0 4 4 5 97 9 6 2 5 5 58 77 10 1 8 8 5 97 9 6 2 5 5 58 5 78
ELSE[ ]	/* Else */
MPPEM[ ]	/* MeasurePixelPerEm */
PUSHB[ ]	/* 1 value pushed */
24
LT[ ]	/* LessThan */
IF[ ]	/* If */
NPUSHB[ ]	/* 41 values pushed */
0 2 1 0 1 2 0 128 0 0 0 7 4 0 7 103 0 1 1 3 97 0 3 3 59 77 10 8 2 4 4 5 97 9 6 2 5 5 58 5 78
ELSE[ ]	/* Else */
MPPEM[ ]	/* MeasurePixelPerEm */
PUSHB[ ]	/* 1 value pushed */
34
LT[ ]	/* LessThan */
IF[ ]	/* If */
NPUSHB[ ]	/* 52 values pushed */
0 2 1 0 1 2 0 128 0 0 0 7 4 0 7 103 0 1 1 3 97 0 3 3 59 77 0 4 4 5 97 9 6 2 5 5 58 77 10 1 8 8 5 97 9 6 2 5 5 58 5 78
ELSE[ ]	/* Else */
NPUSHB[ ]	/* 49 values pushed */
0 2 1 0 1 2 0 128 0 0 0 7 4 0 7 103 0 1 1 3 97 0 3 3 59 77 0 4 4 5 97 0 5 5 58 77 10 1 8 8 6 97 9 1 6 6 58 6 78
EIF[ ]	/* EndIf */
EIF[ ]	/* EndIf */
EIF[ ]	/* EndIf */
EIF[ ]	/* EndIf */
EIF[ ]	/* EndIf */
EIF[ ]	/* EndIf */
NPUSHB[ ]	/* 23 values pushed */
31 31 0 0 31 39 31 38 35 33 0 30 0 29 33 20 34 18 34 36 11 10 28
CALL[ ]	/* CallFunction */";
};
width = 407;
},
{
layerId = "59E4F189-9048-43B1-80D4-C98F20AC972F";
shapes = (
{
closed = 1;
nodes = (
(199.333,347,o),
(239.667,366.667,o),
(267,406,c),
(284.333,371.333,o),
(319,354,o),
(367,354,cs),
(384,354,l),
(384,429,l),
(361.333,429,o),
(347,441.333,o),
(347,464,cs),
(347,559,ls),
(347,657.667,o),
(282,710,o),
(194,710,cs),
(112.667,710,o),
(55,665.333,o),
(39,588,c),
(128,588,l),
(136,617.333,o),
(160.333,635,o),
(191,635,cs),
(232.333,635,o),
(254.333,606.333,o),
(257,561,c),
(174,561,ls),
(88.667,561,o),
(29,526,o),
(29,450,cs),
(29,387.333,o),
(84.667,347,o),
(146,347,cs)
);
},
{
closed = 1;
nodes = (
(141.333,418,o),
(120,432,o),
(120,460,cs),
(120,489.333,o),
(146.667,504,o),
(180,504,cs),
(257,504,l),
(257,453.333,o),
(218.667,418,o),
(172,418,cs)
);
}
);
userData = {
assembly = "MPPEM[ ]	/* MeasurePixelPerEm */
PUSHB[ ]	/* 1 value pushed */
22
LT[ ]	/* LessThan */
IF[ ]	/* If */
PUSHB[ ]	/* 6 values pushed */
28 1 5 4 1 76
ELSE[ ]	/* Else */
PUSHB[ ]	/* 6 values pushed */
28 1 5 8 1 76
EIF[ ]	/* EndIf */
MPPEM[ ]	/* MeasurePixelPerEm */
PUSHB[ ]	/* 1 value pushed */
22
LT[ ]	/* LessThan */
IF[ ]	/* If */
NPUSHB[ ]	/* 41 values pushed */
0 2 1 0 1 2 0 128 0 0 0 7 4 0 7 103 0 1 1 3 97 0 3 3 59 77 10 8 2 4 4 5 97 9 6 2 5 5 58 5 78
ELSE[ ]	/* Else */
MPPEM[ ]	/* MeasurePixelPerEm */
PUSHB[ ]	/* 1 value pushed */
34
LT[ ]	/* LessThan */
IF[ ]	/* If */
NPUSHB[ ]	/* 52 values pushed */
0 2 1 0 1 2 0 128 0 0 0 7 4 0 7 103 0 1 1 3 97 0 3 3 59 77 0 4 4 5 97 9 6 2 5 5 58 77 10 1 8 8 5 97 9 6 2 5 5 58 5 78
ELSE[ ]	/* Else */
NPUSHB[ ]	/* 49 values pushed */
0 2 1 0 1 2 0 128 0 0 0 7 4 0 7 103 0 1 1 3 97 0 3 3 59 77 0 4 4 5 97 0 5 5 58 77 10 1 8 8 6 97 9 1 6 6 58 6 78
EIF[ ]	/* EndIf */
EIF[ ]	/* EndIf */
NPUSHB[ ]	/* 23 values pushed */
31 31 0 0 31 40 31 39 35 33 0 30 0 29 33 21 34 18 34 36 11 10 28
CALL[ ]	/* CallFunction */";
};
width = 404;
}
);
note = ordfeminine;
unicode = 170;
},
{
glyphname = ordmasculine;
lastChange = "2025-07-25 13:38:07 +0000";
layers = (
{
layerId = "BF20E584-FC8B-4684-8793-6BFBAEEB9F40";
shapes = (
{
closed = 1;
nodes = (
(320.505,349,o),
(399,421.471,o),
(399,531,cs),
(399,645.667,o),
(321,712,o),
(217,712,cs),
(107.222,712,o),
(35,637.613,o),
(35,531,cs),
(35,414.611,o),
(117.888,349,o),
(216,349,cs)
);
},
{
closed = 1;
nodes = (
(150.667,404,o),
(103,451,o),
(103,531,cs),
(103,611,o),
(152,659,o),
(216,659,cs),
(281.333,659,o),
(331,611,o),
(331,531,cs),
(331,451,o),
(280,404,o),
(216,404,cs)
);
}
);
userData = {
assembly = "NPUSHB[ ]	/* 41 values pushed */
0 2 2 0 97 0 0 0 59 77 5 1 3 3 1 97 4 1 1 1 58 1 78 15 15 0 0 15 26 15 25 21 19 0 14 0 13 38 6 10 23
CALL[ ]	/* CallFunction */";
};
width = 433;
},
{
layerId = "59E4F189-9048-43B1-80D4-C98F20AC972F";
shapes = (
{
closed = 1;
nodes = (
(312.508,349,o),
(390,422.668,o),
(390,531,cs),
(390,641.674,o),
(311.074,712,o),
(210,712,cs),
(104.682,712,o),
(29,639.461,o),
(29,531,cs),
(29,421.002,o),
(103.521,349,o),
(207,349,cs)
);
},
{
closed = 1;
nodes = (
(153.667,426,o),
(119,471,o),
(119,531,cs),
(119,591,o),
(153,635,o),
(209,635,cs),
(266.333,635,o),
(299,592.333,o),
(299,531,cs),
(299,471,o),
(264.333,426,o),
(207,426,cs)
);
}
);
userData = {
assembly = "NPUSHB[ ]	/* 41 values pushed */
0 2 2 0 97 0 0 0 59 77 5 1 3 3 1 97 4 1 1 1 58 1 78 16 16 0 0 16 27 16 26 22 20 0 15 0 14 38 6 10 23
CALL[ ]	/* CallFunction */";
};
width = 419;
}
);
note = ordmasculine;
unicode = 186;
},
{
glyphname = "Ya-cy";
lastChange = "2025-07-25 14:43:36 +0000";
layers = (
{
layerId = "BF20E584-FC8B-4684-8793-6BFBAEEB9F40";
shapes = (
{
closed = 1;
nodes = (
(139,0,l),
(319,310,l),
(435,310,l),
(435,0,l),
(519,0,l),
(519,700,l),
(312,700,ls),
(163,700,o),
(78,634,o),
(78,505,cs),
(78,404,o),
(131,345,o),
(236,326,c),
(35,0,l)
);
},
{
closed = 1;
nodes = (
(205,381,o),
(164,420,o),
(164,505,cs),
(164,592,o),
(205,630,o),
(314,630,cs),
(435,630,l),
(435,381,l),
(314,381,ls)
);
}
);
userData = {
assembly = "NPUSHB[ ]	/* 52 values pushed */
12 1 2 5 1 76 3 1 1 2 1 134 0 0 0 4 5 0 4 103 6 1 5 2 2 5 87 6 1 5 5 2 95 0 2 5 2 79 13 13 13 21 13 20 35 17 17 17 35 7 6 27
CALL[ ]	/* CallFunction */";
};
width = 593;
},
{
layerId = "59E4F189-9048-43B1-80D4-C98F20AC972F";
shapes = (
{
closed = 1;
nodes = (
(173,0,l),
(345,295,l),
(423,295,l),
(423,0,l),
(551,0,l),
(551,700,l),
(308,700,ls),
(161,700,o),
(68,626,o),
(68,498,cs),
(68,401,o),
(122,339,o),
(217,316,c),
(22,0,l)
);
},
{
closed = 1;
nodes = (
(227,404,o),
(198,438,o),
(198,498,cs),
(198,557,o),
(228,591,o),
(311,591,cs),
(423,591,l),
(423,404,l),
(311,404,ls)
);
}
);
userData = {
assembly = "NPUSHB[ ]	/* 52 values pushed */
13 1 2 5 1 76 3 1 1 2 1 134 0 0 0 4 5 0 4 103 6 1 5 2 2 5 87 6 1 5 5 2 95 0 2 5 2 79 14 14 14 22 14 21 35 17 17 17 36 7 6 27
CALL[ ]	/* CallFunction */";
};
width = 615;
}
);
note = uni042F;
unicode = (1071,1103);
},
{
glyphname = Delta;
lastChange = "2025-07-25 14:43:36 +0000";
layers = (
{
layerId = "BF20E584-FC8B-4684-8793-6BFBAEEB9F40";
shapes = (
{
closed = 1;
nodes = (
(665,0,l),
(665,65,l),
(382,700,l),
(312,700,l),
(30,65,l),
(30,0,l)
);
},
{
closed = 1;
nodes = (
(347,604,l),
(580,65,l),
(115,65,l)
);
}
);
userData = {
assembly = "NPUSHB[ ]	/* 12 values pushed */
7 1 2 0 1 76 3 0 2 2 1 75
MPPEM[ ]	/* MeasurePixelPerEm */
PUSHB[ ]	/* 1 value pushed */
42
LT[ ]	/* LessThan */
IF[ ]	/* If */
NPUSHB[ ]	/* 17 values pushed */
0 0 0 23 77 3 1 2 2 1 95 0 1 1 24 1 78
ELSE[ ]	/* Else */
NPUSHB[ ]	/* 17 values pushed */
0 0 2 0 133 3 1 2 2 1 95 0 1 1 24 1 78
EIF[ ]	/* EndIf */
NPUSHB[ ]	/* 11 values pushed */
6 6 6 8 6 8 18 17 4 7 24
CALL[ ]	/* CallFunction */";
};
width = 695;
},
{
layerId = "59E4F189-9048-43B1-80D4-C98F20AC972F";
shapes = (
{
closed = 1;
nodes = (
(688,0,l),
(688,98,l),
(408,700,l),
(303,700,l),
(23,98,l),
(23,0,l)
);
},
{
closed = 1;
nodes = (
(355,555,l),
(557,98,l),
(154,98,l)
);
}
);
userData = {
assembly = "NPUSHB[ ]	/* 12 values pushed */
7 1 2 0 1 76 3 0 2 2 1 75
MPPEM[ ]	/* MeasurePixelPerEm */
PUSHB[ ]	/* 1 value pushed */
42
LT[ ]	/* LessThan */
IF[ ]	/* If */
NPUSHB[ ]	/* 17 values pushed */
0 0 0 23 77 3 1 2 2 1 95 0 1 1 24 1 78
ELSE[ ]	/* Else */
NPUSHB[ ]	/* 17 values pushed */
0 0 2 0 133 3 1 2 2 1 95 0 1 1 24 1 78
EIF[ ]	/* EndIf */
NPUSHB[ ]	/* 11 values pushed */
6 6 6 8 6 8 18 17 4 7 24
CALL[ ]	/* CallFunction */";
};
width = 711;
}
);
note = uni0394;
unicode = 916;
},
{
glyphname = Pi;
lastChange = "2025-07-25 13:40:37 +0000";
layers = (
{
layerId = "BF20E584-FC8B-4684-8793-6BFBAEEB9F40";
shapes = (
{
closed = 1;
nodes = (
(209,0,l),
(209,430,l),
(437,430,l),
(437,0,l),
(521,0,l),
(521,430,l),
(600,430,l),
(600,496,l),
(46,496,l),
(46,430,l),
(125,430,l),
(125,0,l)
);
}
);
userData = {
assembly = "NPUSHB[ ]	/* 26 values pushed */
0 1 4 2 2 0 3 1 0 103 5 1 3 3 24 3 78 17 17 17 17 17 16 6 7 28
CALL[ ]	/* CallFunction */";
};
width = 646;
},
{
layerId = "59E4F189-9048-43B1-80D4-C98F20AC972F";
shapes = (
{
closed = 1;
nodes = (
(235,0,l),
(235,398,l),
(411,398,l),
(411,0,l),
(539,0,l),
(539,398,l),
(614,398,l),
(614,496,l),
(33,496,l),
(33,398,l),
(107,398,l),
(107,0,l)
);
}
);
userData = {
assembly = "NPUSHB[ ]	/* 26 values pushed */
0 1 4 2 2 0 3 1 0 103 5 1 3 3 24 3 78 17 17 17 17 17 16 6 7 28
CALL[ ]	/* CallFunction */";
};
width = 647;
}
);
note = Pi;
unicode = 928;
},
{
glyphname = Omega;
lastChange = "2025-07-25 14:43:36 +0000";
layers = (
{
layerId = "BF20E584-FC8B-4684-8793-6BFBAEEB9F40";
shapes = (
{
closed = 1;
nodes = (
(331,0,l),
(331,69,l),
(207,101,o),
(127,212,o),
(127,352,cs),
(127,512,o),
(231,636,o),
(394,636,cs),
(556,636,o),
(662,514,o),
(662,352,cs),
(662,216,o),
(587,102,o),
(458,69,c),
(458,0,l),
(732,0,l),
(732,66,l),
(590,66,l),
(691,121,o),
(747,232,o),
(747,357,cs),
(747,556,o),
(607,712,o),
(394,712,cs),
(195,712,o),
(43,566,o),
(43,357,cs),
(43,230,o),
(99,121,o),
(199,66,c),
(56,66,l),
(56,0,l)
);
}
);
userData = {
assembly = "NPUSHB[ ]	/* 39 values pushed */
33 19 2 0 4 1 76 0 4 4 1 97 0 1 1 23 77 2 1 0 0 3 95 5 1 3 3 24 3 78 23 39 17 22 38 16 6 7 28
CALL[ ]	/* CallFunction */";
};
width = 789;
},
{
layerId = "59E4F189-9048-43B1-80D4-C98F20AC972F";
shapes = (
{
closed = 1;
nodes = (
(320,0,l),
(320,102,l),
(229,142,o),
(169,233,o),
(169,350,cs),
(169,489,o),
(251,595,o),
(394,595,cs),
(525,595,o),
(620,506,o),
(620,350,cs),
(620,233,o),
(560,142,o),
(468,102,c),
(468,0,l),
(740,0,l),
(740,98,l),
(623,98,l),
(708,157,o),
(750,251,o),
(750,363,cs),
(750,566,o),
(605,712,o),
(394,712,cs),
(189,712,o),
(39,568,o),
(39,363,cs),
(39,251,o),
(81,157,o),
(165,98,c),
(48,98,l),
(48,0,l)
);
}
);
userData = {
assembly = "NPUSHB[ ]	/* 39 values pushed */
33 19 2 0 4 1 76 0 4 4 1 97 0 1 1 23 77 2 1 0 0 3 95 5 1 3 3 24 3 78 23 39 17 22 38 16 6 7 28
CALL[ ]	/* CallFunction */";
};
width = 788;
}
);
note = uni03A9;
unicode = 937;
},
